<svg width="520" height="900" viewBox="0 0 520 900" fill="none" xmlns="http://www.w3.org/2000/svg">
<mask id="mask0" mask-type="alpha" maskUnits="userSpaceOnUse" x="0" y="0" width="520" height="900">
<rect width="520" height="900" fill="#C79947"/>
</mask>
<g mask="url(#mask0)">
<g style="mix-blend-mode:overlay" opacity="0.1">
<path d="M1798.16 813.476L1760.38 879.915L1710.7 855.077L1769.5 751.764L1812.56 773.256L1822.74 744.855L-319.164 -23.0319L-328.328 2.42374L-303.345 11.515L-344.111 122.574L-368.257 113.774L-377.385 139.229L1764.52 907.116L1798.16 813.476ZM-280.072 148.393L-329.746 123.592L-270.944 20.2426L-221.306 45.0801L-280.072 148.393ZM-197.923 175.122L-250.252 156.066L-209.523 45.0073L-157.157 64.1354L-197.923 175.122ZM-172.285 186.031L-145.121 70.6448L-91.482 85.1908L-118.683 200.577L-172.285 186.031ZM-52.6077 227.088L-104.901 208.032L-64.1718 96.9731L-11.8423 116.028L-52.6077 227.088ZM11.4313 252.761L-38.2434 227.924L20.5591 124.611L70.1974 149.448L11.4313 252.761ZM93.5803 279.49L41.2508 260.507L81.9798 149.448L134.309 168.503L93.5803 279.49ZM119.036 290.399L146.237 175.013L199.875 189.559L172.674 304.945L119.036 290.399ZM238.75 331.456L186.42 312.364L227.149 201.305L279.588 220.506L238.75 331.456ZM302.789 357.129L253.114 332.292L311.88 228.979L361.555 253.816L302.789 357.129ZM385.047 384.149L332.717 365.057L373.446 253.998L425.776 273.053L385.047 384.149ZM410.502 395.058L437.667 279.708L491.306 294.254L464.141 409.677L410.502 395.058ZM530.507 436.224L478.178 417.168L518.907 306.109L571.236 325.164L530.507 436.224ZM594.51 461.897L544.872 437.096L603.638 333.783L653.167 358.693L594.51 461.897ZM676.659 488.626L624.329 469.57L665.058 358.693L717.388 377.748L676.659 488.626ZM702.115 499.535L729.316 384.149L782.991 398.695L755.971 514.336L702.115 499.535ZM821.829 540.591L769.499 521.536L810.228 410.477L862.558 429.532L821.829 540.591ZM885.831 566.265L836.156 541.428L894.959 438.115L944.597 462.952L885.831 566.265ZM967.98 592.994L915.651 573.938L956.38 462.879L1008.71 481.935L967.98 592.994ZM993.436 603.903L1020.6 488.517L1074.28 503.063L1047.07 618.449L993.436 603.903ZM1113.15 644.959L1060.86 625.904L1101.8 515.063L1154.1 534.082L1113.15 644.959ZM1177.15 670.597L1127.73 645.978L1186.5 542.664L1236.17 567.502L1177.15 670.597ZM1259.34 697.362L1207.23 678.706L1247.99 567.647L1300.28 586.666L1259.34 697.362ZM1284.79 708.271L1312.36 593.321L1366 607.867L1338.83 723.254L1284.79 708.271ZM1404.51 749.291L1352.18 730.236L1392.91 619.177L1445.6 638.705L1404.51 749.291ZM1468.55 774.965L1418.87 750.164L1477.64 646.85L1527.31 671.688L1468.55 774.965ZM1551.06 802.348L1498.73 783.256L1539.46 672.197L1591.79 691.252L1551.06 802.348ZM1576.51 813.257L1603.72 697.871L1657.35 712.417L1630.3 827.803L1576.51 813.257ZM1696.26 854.314L1644.01 835.076L1684.77 724.017L1737.1 743.073L1696.26 854.314Z" fill="#2B2D2C"/>
<path d="M1844.13 685.325L1521.97 569.829L1555.97 539.101L1857.8 647.287L1874.2 601.576L1828.16 293.527L1882.38 312.982L1910.38 500.517L2029.37 168.649L1887.55 296.545L1833.36 277.126L2065.59 67.772L2081.59 23.1155L1779.21 -85.2889L1772.45 -130.6L2095.23 -14.886L2102.5 -35.6141L-39.4073 -803.537L-46.6803 -782.772L286.861 -663.168L252.823 -632.475L-49.8805 -741.207L-53.517 -764.408L-69.2267 -720.77L-19.3701 -387.12L-73.5905 -406.539L-105.265 -619.529L-239.634 -244.968L-78.6453 -390.211L-24.4612 -370.792L-275.853 -143.946L-291.527 -100.308L-273.126 -116.89L29.7228 -8.30402L36.4867 37.0071L-297.782 -82.998L-305.055 -62.2698L1836.85 705.653L1844.13 685.325ZM1855.03 622.959L1574.51 522.336L1608.55 491.644L1848.34 577.611L1855.03 622.959ZM1844.56 552.919L1627.1 475.062L1661.14 444.333L1837.91 507.79L1844.56 552.919ZM1834.09 482.88L1679.65 427.496L1713.65 396.767L1827.4 437.569L1834.09 482.88ZM1823.62 412.841L1732.16 380.112L1766.16 349.42L1816.85 367.603L1823.62 412.841ZM1813.18 342.802L1784.7 332.583L1808.45 311.164L1813.18 342.802ZM1829.36 251.052L1824.63 219.415L1853.11 229.633L1829.36 251.052ZM1871.65 212.869L1820.96 194.686L1814.2 149.375L1905.69 182.104L1871.65 212.869ZM1924.24 165.594L1810.56 124.683L1803.8 79.3361L1958.35 134.72L1924.24 165.594ZM1976.82 118.138L1800.01 54.7533L1793.25 9.4422L2010.82 87.4455L1976.82 118.138ZM2063.41 39.989L2029.41 70.7175L1789.4 -15.2496L1782.63 -60.597L2063.41 39.989ZM1809.8 268.835L1755.58 249.416L1716.77 -10.5222L1521.68 165.558L1467.46 146.102L1752.99 -111.545L1809.8 268.835ZM1261.45 343.783L1295.48 313.091L1472.26 376.439L1479.02 421.787L1261.45 343.783ZM1482.73 446.515L1489.49 491.826L1208.72 391.204L1242.72 360.511L1482.73 446.515ZM1314.03 296.327L1348.07 265.635L1461.45 306.4L1468.26 351.747L1314.03 296.327ZM1366.61 249.052L1400.65 218.324L1451.35 236.506L1457.82 281.672L1366.61 249.052ZM1419.2 201.596L1442.91 180.177L1447.64 211.778L1419.2 201.596ZM1645.32 -43.6872L1611.28 -12.995L1434.51 -76.3795L1427.74 -121.69L1645.32 -43.6872ZM1424.04 -146.419L1417.27 -191.766L1697.83 -91.2893L1663.79 -60.597L1424.04 -146.419ZM1592.73 3.73297L1558.7 34.425L1444.98 -6.34021L1438.22 -51.6876L1592.73 3.73297ZM1540.15 51.0077L1506.15 81.6998L1455.24 63.5172L1448.47 18.2062L1540.15 51.0077ZM1487.57 98.2823L1463.82 119.701L1459.13 88.1L1487.57 98.2823ZM1750.45 -138.928L1716.45 -108.235L1413.42 -216.604L1406.62 -261.951L1750.45 -138.928ZM1444.25 137.448L1390.03 117.992L1351.27 -141.909L1155.99 34.2433L1101.77 14.8243L1387.34 -242.823L1444.25 137.448ZM895.468 212.651L929.506 181.922L1106.28 245.307L1113.04 290.654L895.468 212.651ZM1116.71 315.346L1123.48 360.657L842.884 260.071L876.885 229.379L1116.71 315.346ZM948.052 165.194L982.053 134.466L1095.8 175.267L1102.57 220.506L948.052 165.194ZM1000.64 117.738L1034.64 87.0454L1085.33 105.228L1092.09 150.539L1000.64 117.738ZM1053.18 70.2811L1076.93 48.862L1081.62 80.4998L1053.18 70.2811ZM1279.3 -175.002L1245.26 -144.31L1068.49 -207.694L1061.73 -253.005L1279.3 -175.002ZM1058.06 -277.697L1051.29 -323.044L1331.89 -222.458L1297.81 -191.73L1058.06 -277.697ZM1226.72 -127.582L1192.72 -96.8531L1078.97 -137.655L1072.35 -182.966L1226.72 -127.582ZM1174.17 -80.1251L1140.17 -49.433L1089.44 -67.6155L1082.68 -112.926L1174.17 -80.1251ZM1121.62 -32.8505L1097.8 -11.2496L1093.08 -42.8871L1121.62 -32.8505ZM1384.47 -270.06L1350.47 -239.368L1047.62 -347.954L1040.86 -393.265L1384.47 -270.06ZM1078.31 6.31488L1024.09 -13.1041L985.253 -272.97L790.118 -96.8894L735.898 -116.345L1021.44 -373.992L1078.31 6.31488ZM529.635 81.4816L563.672 50.7894L740.443 114.138L747.207 159.485L529.635 81.4816ZM750.88 184.14L757.644 229.451L477.05 128.938L511.088 98.2095L750.88 184.14ZM582.219 33.9524L616.256 3.26019L729.97 44.0255L736.734 89.5911L582.219 33.9524ZM634.766 -13.5042L668.804 -44.1964L719.497 -26.0138L726.297 19.2972L634.766 -13.5042ZM687.35 -60.7789L711.097 -82.198L715.824 -50.5966L687.35 -60.7789ZM913.469 -306.062L879.613 -275.442L702.842 -338.827L696.078 -384.138L913.469 -306.062ZM692.223 -408.793L685.459 -454.141L966.053 -353.518L932.051 -322.826L692.223 -408.793ZM860.921 -258.642L826.883 -227.949L713.133 -268.715L706.369 -314.062L860.921 -258.642ZM808.337 -211.258L774.154 -180.566L723.461 -198.748L716.697 -244.059L808.337 -211.258ZM755.753 -163.983L732.007 -142.564L727.315 -174.165L755.753 -163.983ZM1018.64 -401.193L984.635 -370.501L681.75 -479.051L675.022 -524.362L1018.64 -401.193ZM712.442 -124.818L658.222 -144.237L619.42 -404.175L424.321 -228.059L370.064 -247.478L655.64 -505.125L712.442 -124.818ZM163.801 -49.6511L197.839 -80.3798L374.61 -16.9952L381.41 28.3522L163.801 -49.6511ZM385.047 53.2259L391.811 98.5368L111.217 -2.04919L145.219 -32.7414L385.047 53.2259ZM216.349 -96.9258L250.387 -127.618L364.1 -86.8527L370.901 -41.5417L216.349 -96.9258ZM268.933 -144.201L302.971 -174.893L353.664 -156.71L360.427 -111.399L268.933 -144.201ZM321.517 -191.657L345.263 -213.076L349.954 -181.438L321.517 -191.657ZM547.599 -436.94L513.597 -406.248L336.826 -469.632L330.063 -514.943L547.599 -436.94ZM326.353 -539.635L319.589 -585.346L600.146 -484.76L566.145 -454.032L326.353 -539.635ZM495.051 -389.52L461.013 -358.791L347.3 -399.557L340.499 -444.904L495.051 -389.52ZM442.467 -342.245L408.429 -311.553L357.736 -329.735L350.973 -375.046L442.467 -342.245ZM389.883 -294.789L366.137 -273.37L361.446 -304.971L389.883 -294.789ZM652.803 -532.253L618.802 -501.561L315.953 -610.074L309.189 -655.385L652.803 -532.253ZM289.806 -636.366L346.609 -255.878L292.425 -275.333L253.587 -535.271L58.4877 -359.191L4.26721 -378.647L289.806 -636.366ZM-46.2076 -716.37L234.422 -615.893L200.384 -585.201L-39.6255 -671.168L-46.2076 -716.37ZM-35.7344 -646.33L181.838 -568.327L147.837 -537.635L-28.9341 -601.02L-35.7344 -646.33ZM-25.2613 -576.291L129.254 -520.907L95.2528 -490.215L-18.6064 -531.089L-25.2613 -576.291ZM-14.7881 -506.252L76.6702 -473.523L42.6689 -442.831L-8.06058 -461.014L-14.7881 -506.252ZM-4.35132 -436.213L24.1226 -425.994L0.37616 -404.611L-4.35132 -436.213ZM-20.5338 -344.463L-15.8063 -312.862L-44.062 -323.153L-20.5338 -344.463ZM-62.8265 -306.425L-12.1335 -288.243L-5.36954 -242.932L-96.8643 -275.661L-62.8265 -306.425ZM-115.41 -258.969L-1.66028 -218.204L5.10364 -172.856L-149.521 -228.277L-115.41 -258.969ZM-167.994 -211.694L8.81287 -148.31L15.5768 -102.999L-202.032 -181.002L-167.994 -211.694ZM-254.58 -133.546L-220.542 -164.238L19.2497 -78.2705L26.0136 -32.9595L-254.58 -133.546ZM-0.96933 -362.391L53.2511 -342.972L92.0527 -83.0343L287.152 -259.114L341.409 -239.477L55.833 18.1699L-0.96933 -362.391ZM58.6695 44.8983L92.6709 14.1697L395.556 122.756L402.32 168.103L58.6695 44.8983ZM364.864 -231.477L419.048 -212.058L457.777 48.2803L652.912 -127.763L707.133 -108.344L421.557 149.303L364.864 -231.477ZM424.503 175.813L458.504 145.121L761.353 253.671L768.117 299.018L424.503 175.813ZM730.661 -100.562L785.063 -80.4888L823.865 179.449L1019 3.36932L1073.22 22.8247L787.645 280.472L730.661 -100.562ZM790.3 306.727L824.301 275.999L1127.19 384.585L1133.95 429.896L790.3 306.727ZM1096.49 30.3522L1150.68 49.7712L1189.52 309.709L1384.65 133.666L1438.84 153.085L1153.3 410.732L1096.49 30.3522ZM1155.99 438.696L1189.99 408.004L1492.84 516.554L1499.6 561.902L1155.99 438.696ZM1462.15 162.321L1516.37 181.777L1555.2 441.715L1750.3 265.635L1804.52 285.09L1518.98 542.737L1462.15 162.321Z" fill="#2B2D2C"/>
<path d="M167.184 330.692L105.254 346.838L67.6529 295.017L34.5605 283.162L97.145 369.457L200.313 342.583L167.184 330.692Z" fill="#2B2D2C"/>
<path d="M460.322 435.787L398.356 451.897L360.791 400.113L327.662 388.221L390.246 474.516L493.414 447.642L460.322 435.787Z" fill="#2B2D2C"/>
<path d="M1759.14 922.316L1738.63 894.097L1720.52 887.588L1549.35 932.171L1445.53 789.002L1427.42 782.492L1256.25 827.076L1152.42 683.906L1134.28 677.397L963.142 721.981L859.283 578.811L841.173 572.338L670.003 616.886L566.18 473.752L548.034 467.243L376.9 511.827L273.041 368.657L254.931 362.148L83.7966 406.731L-20.0986 263.562L-38.2085 257.052L-209.343 301.636L-313.202 158.467L-331.312 151.994L-387.096 166.503L-395.205 189.122L-328.148 171.667L-217.452 324.255L-35.0447 276.726L75.6871 429.35L258.095 381.821L368.79 534.409L551.198 486.917L661.893 639.505L844.337 592.012L955.033 744.6L1137.44 697.107L1248.14 849.695L1430.58 802.166L1541.28 954.754L1723.72 907.261L1751.03 944.972L1759.14 922.316Z" fill="#2B2D2C"/>
<path d="M1737.69 982.21L1713.54 948.935L1709.32 947.408L1705.07 945.917L1527.89 992.064L1420.4 843.84L1416.18 842.349L1411.96 840.822L1234.79 886.969L1127.3 738.781L1123.04 737.254L1118.82 735.727L941.652 781.91L834.157 633.686L829.938 632.159L825.72 630.668L648.513 676.815L541.017 528.591L536.835 527.063L532.58 525.572L355.409 571.72L247.914 423.495L243.696 421.968L239.477 420.477L62.3064 466.624L-45.2254 318.437L-49.4437 316.909L-53.6621 315.382L-230.833 361.566L-338.328 213.341L-342.547 211.814L-346.765 210.323L-408.586 226.396L-416.695 249.015L-349.602 231.56L-238.942 384.148L-56.4985 336.655L54.197 489.244L236.641 441.751L347.3 594.339L529.744 546.846L640.439 699.398L822.847 651.905L933.542 804.493L1115.99 757L1226.68 909.588L1409.09 862.095L1519.79 1014.68L1702.23 967.191L1729.58 1004.86L1737.69 982.21Z" fill="#2B2D2C"/>
<path d="M1716.19 1042.14L1692.04 1008.83L1687.83 1007.3L1683.61 1005.81L1506.4 1051.96L1398.91 903.77L1394.72 902.243L1390.47 900.715L1213.3 946.899L1105.8 798.675L1101.58 797.148L1097.37 795.657L920.158 841.804L812.7 693.58L808.481 692.052L804.263 690.561L627.055 736.709L519.56 588.484L515.342 586.957L511.123 585.466L333.916 631.613L226.421 483.425L222.239 481.898L217.984 480.371L40.8129 526.555L-66.6824 378.33L-70.9008 376.803L-75.1191 375.312L-252.29 421.459L-359.785 273.235L-364.004 271.708L-368.222 270.217L-430.043 286.326L-438.152 308.946L-371.095 291.49L-260.4 444.078L-77.9919 396.549L32.7399 549.174L215.147 501.644L325.843 654.233L508.251 606.74L618.946 759.328L801.39 711.835L912.085 864.423L1094.49 816.894L1205.19 969.518L1387.63 921.989L1498.29 1074.58L1680.74 1027.08L1708.08 1064.76L1716.19 1042.14Z" fill="#2B2D2C"/>
<path d="M1694.7 1102.03L1670.55 1068.76L1666.37 1067.23L1662.12 1065.7L1484.95 1111.89L1377.45 963.663L1373.23 962.136L1369.02 960.645L1191.81 1006.79L1084.35 858.568L1080.09 857.041L1075.88 855.55L898.705 901.697L791.209 753.473L786.991 751.946L782.773 750.455L605.565 796.602L498.07 648.414L493.888 646.887L489.633 645.359L312.462 691.543L204.967 543.319L200.748 541.791L196.53 540.3L19.3591 586.448L-88.1726 438.223L-92.391 436.696L-96.6093 435.205L-273.78 481.353L-381.276 333.128L-385.494 331.637L-389.712 330.11L-451.533 346.22L-459.643 368.839L-392.549 351.384L-281.89 503.972L-99.4822 456.479L11.2497 609.067L193.657 561.574L304.353 714.162L486.797 666.633L597.456 819.221L779.9 771.728L890.595 924.316L1073 876.823L1183.73 1029.41L1366.14 981.919L1476.84 1134.51L1659.28 1086.98L1686.63 1124.65L1694.7 1102.03Z" fill="#2B2D2C"/>
<path d="M1673.25 1161.96L1649.1 1128.65L1644.88 1127.12L1640.63 1125.63L1463.46 1171.78L1355.96 1023.56L1351.78 1022.03L1347.52 1020.54L1170.35 1066.69L1062.86 918.498L1058.64 916.971L1054.42 915.443L877.249 961.591L769.717 813.403L765.535 811.875L761.28 810.384L584.109 856.495L476.614 708.307L472.396 706.78L468.141 705.289L290.97 751.436L183.475 603.212L179.293 601.685L175.038 600.194L-2.13306 646.341L-109.628 498.153L-113.847 496.626L-118.065 495.099L-295.236 541.246L-402.768 393.058L-406.95 391.531L-411.168 390.04L-472.989 406.113L-481.135 428.732L-414.041 411.277L-303.346 563.865L-120.938 516.372L-10.2425 668.96L172.201 621.467L282.861 774.056L465.305 726.526L576 879.114L758.444 831.622L869.103 984.21L1051.55 936.717L1162.24 1089.3L1344.69 1041.81L1455.35 1194.4L1637.79 1146.91L1665.14 1184.58L1673.25 1161.96Z" fill="#2B2D2C"/>
<path d="M1651.79 1221.86L1627.61 1188.55L1623.39 1187.02L1619.17 1185.53L1442 1231.67L1334.5 1083.49L1330.29 1081.96L1326.07 1080.43L1148.86 1126.58L1041.37 978.391L1037.15 976.864L1032.93 975.373L855.757 1021.52L748.262 873.296L744.044 871.769L739.825 870.278L562.618 916.425L455.123 768.201L450.904 766.673L446.686 765.182L269.515 811.33L161.983 663.142L157.801 661.614L153.583 660.087L-23.5882 706.271L-131.12 558.047L-135.338 556.519L-139.557 555.028L-316.728 601.176L-424.223 452.951L-428.441 451.424L-432.66 449.933L-494.48 466.043L-502.59 488.662L-435.533 471.17L-324.837 623.795L-142.429 576.265L-31.6976 728.89L150.71 681.361L261.405 833.949L443.849 786.456L554.509 939.044L736.952 891.515L847.648 1044.14L1030.06 996.61L1140.75 1149.2L1323.19 1101.71L1433.89 1254.29L1616.33 1206.8L1643.64 1244.48L1651.79 1221.86Z" fill="#2B2D2C"/>
<path d="M1630.3 1281.75L1606.15 1248.48L1601.93 1246.95L1597.68 1245.46L1420.51 1291.57L1313.01 1143.38L1308.79 1141.85L1304.58 1140.36L1127.4 1186.51L1019.91 1038.28L1015.69 1036.76L1011.47 1035.27L834.265 1081.41L726.77 933.226L722.552 931.699L718.333 930.171L541.162 976.319L433.667 828.131L429.448 826.603L425.194 825.076L248.023 871.26L140.527 723.036L136.309 721.508L132.091 720.017L-45.0803 766.165L-152.576 617.94L-156.794 616.413L-161.012 614.922L-338.22 661.069L-445.715 512.845L-449.934 511.354L-454.152 509.827L-515.973 525.936L-524.082 548.556L-456.988 531.1L-346.293 683.688L-163.885 636.159L-53.1897 788.784L129.254 741.254L239.913 893.842L422.357 846.35L533.016 998.938L715.497 951.445L826.156 1104.03L1008.6 1056.5L1119.3 1209.13L1301.74 1161.6L1412.4 1314.19L1594.84 1266.69L1622.19 1304.37L1630.3 1281.75Z" fill="#2B2D2C"/>
<path d="M1608.81 1341.64L1584.66 1308.37L1580.44 1306.84L1576.22 1305.35L1399.02 1351.5L1291.52 1203.27L1287.34 1201.75L1283.08 1200.26L1105.91 1246.4L998.418 1098.21L994.199 1096.65L989.981 1095.16L812.81 1141.34L705.315 993.119L701.096 991.592L696.878 990.101L519.671 1036.25L412.175 888.024L407.957 886.497L403.739 885.006L226.568 931.153L119.036 782.929L114.854 781.401L110.636 779.91L-66.5718 826.058L-174.067 677.834L-178.286 676.306L-182.504 674.815L-359.675 720.999L-467.17 572.775L-471.389 571.247L-475.607 569.756L-537.428 585.83L-545.537 608.485L-478.48 590.994L-367.784 743.582L-185.377 696.089L-74.6449 848.677L107.763 801.184L218.458 953.772L400.866 906.279L511.561 1058.83L694.005 1011.34L804.701 1163.93L987.108 1116.43L1097.8 1269.02L1280.25 1221.53L1390.91 1374.12L1573.35 1326.59L1600.7 1364.3L1608.81 1341.64Z" fill="#2B2D2C"/>
<path d="M1587.35 1401.57L1563.2 1368.3L1558.99 1366.73L1554.73 1365.24L1377.56 1411.39L1270.07 1263.2L1265.85 1261.68L1261.63 1260.18L1084.42 1306.33L976.962 1158.11L972.744 1156.58L968.489 1155.09L791.318 1201.24L683.823 1053.01L679.604 1051.49L675.386 1049.99L498.178 1096.14L390.683 947.954L386.501 946.39L382.247 944.899L205.076 991.046L97.5801 842.859L93.3618 841.331L89.1434 839.84L-88.0276 885.988L-195.559 737.763L-199.741 736.236L-203.996 734.745L-381.167 780.892L-488.662 632.668L-492.881 631.141L-497.099 629.65L-558.92 645.759L-567.029 668.342L-499.936 650.923L-405.786 780.747L-362.039 796.42L-206.833 755.982L-112.683 885.806L-68.9359 901.479L86.3069 861.077L180.456 990.901L224.203 1006.57L379.41 966.173L473.596 1096L517.307 1111.67L672.549 1071.27L766.699 1201.06L810.446 1216.76L965.653 1176.33L1059.8 1306.15L1103.55 1321.82L1258.76 1281.42L1352.94 1411.25L1396.65 1426.92L1551.9 1386.52L1579.24 1424.19L1587.35 1401.57Z" fill="#2B2D2C"/>
<path d="M18.8486 932.971L64.8142 920.971L92.7062 959.445L125.835 971.3L76.0873 902.752L71.9054 901.225L67.6507 899.734L-14.3164 921.08L18.8486 932.971Z" fill="#2B2D2C"/>
<path d="M1414.91 1882.39C1409.13 1881.92 1403.42 1881.23 1397.71 1880.25L1408.94 1815.01C1416.94 1816.37 1425.05 1817.01 1433.16 1816.94V1831.23L1459.02 1759.11L1391.52 1791.48L1318.5 1636.2L1473.56 1562.38L1505.38 1630.05L1526.04 1572.49C1524.55 1571.18 1523.17 1569.8 1521.64 1568.53L1531.93 1556.05L1557.39 1484.49L-584.521 716.599L-592.958 740.527C-585.16 740.944 -577.391 741.781 -569.684 743.036L-580.775 808.312C-588.775 806.952 -596.88 806.307 -604.995 806.384L-605.213 774.783L-638.669 868.06L-563.029 832.204L-490.044 987.81L-645.069 1061.16L-680.707 985.446L-702.526 1046.5C-699.58 1049.41 -696.526 1052.18 -693.362 1054.83L-714.817 1080.8L-735 1136.91L1406.91 1904.83L1414.91 1882.39ZM1311.78 1747.84L1254.94 1781.22C1248.9 1770.88 1243.77 1760.03 1239.63 1748.79L1301.45 1726.02C1304.27 1733.57 1307.72 1740.87 1311.78 1747.84ZM1294.9 1702.17L1230.14 1714.2C1227.96 1702.4 1226.81 1690.42 1226.72 1678.42L1292.57 1677.88C1292.65 1686.06 1293.43 1694.22 1294.9 1702.28V1702.17ZM-267.49 971.919C-274.5 976.071 -281.143 980.816 -287.345 986.101L-329.965 935.881C-320.843 928.082 -311.046 921.109 -300.691 915.043L-267.49 971.919ZM-268.362 899.588C-257.145 895.391 -245.586 892.167 -233.816 889.952L-221.924 954.863C-229.928 956.353 -237.787 958.53 -245.416 961.373L-268.362 899.588ZM-318.292 1023.63L-375.603 991.119C-369.69 980.655 -362.876 970.726 -355.239 961.445L-304.509 1003.48C-309.674 1009.79 -314.285 1016.53 -318.292 1023.63ZM-334.656 1069.56L-399.604 1058.65C-397.597 1046.79 -394.568 1035.12 -390.549 1023.78L-328.401 1045.59C-331.177 1053.39 -333.27 1061.4 -334.656 1069.56ZM-365.13 947.336L-381.64 941.445C-382.112 920.565 -385.502 899.855 -391.713 879.915L-318.219 906.243C-335.696 917.685 -351.487 931.517 -365.13 947.336ZM-417.86 1068.4C-418.26 1072.32 -418.623 1076.25 -418.841 1080.1L-424.514 1078.1C-422.211 1074.95 -419.993 1071.72 -417.86 1068.4ZM-381.967 959.3L-376.294 961.3C-378.585 964.5 -380.803 967.737 -382.985 971.009C-382.549 967.227 -382.258 963.3 -381.967 959.409V959.3ZM-410.223 1015.59L-472.044 993.119C-469.329 985.478 -467.273 977.619 -465.898 969.628L-400.95 980.537C-402.989 992.511 -406.092 1004.28 -410.223 1015.7V1015.59ZM-482.662 1016.07L-425.424 1048.79C-431.34 1059.26 -438.18 1069.18 -445.861 1078.43L-496.481 1036.28C-491.304 1029.99 -486.681 1023.26 -482.662 1016.17V1016.07ZM-435.715 1092.18L-419.169 1098.11C-418.679 1118.99 -415.276 1139.7 -409.059 1159.64L-482.59 1133.27C-465.099 1121.86 -449.317 1108.02 -435.715 1092.18ZM-399.35 1130.18C-401.531 1118.37 -402.675 1106.4 -402.768 1094.4L-336.874 1093.89C-336.826 1102.02 -336.06 1110.14 -334.583 1118.14L-399.35 1130.18ZM-328.147 1141.74C-325.294 1149.4 -321.791 1156.8 -317.674 1163.85L-374.549 1197.24C-380.579 1186.89 -385.69 1176.04 -389.822 1164.8L-328.147 1141.74ZM-310.946 1051.92L-155.921 978.355L-82.9002 1133.67L-237.961 1207.2L-310.946 1051.92ZM139.654 1117.96C132.63 1122.11 125.975 1126.85 119.763 1132.14L77.1791 1081.92C86.2574 1074.14 95.9909 1067.16 106.271 1061.05L139.654 1117.96ZM138.782 1045.63C149.994 1041.42 161.554 1038.19 173.329 1035.99L185.22 1100.87C177.22 1102.39 169.361 1104.58 161.728 1107.42L138.782 1045.63ZM89.0342 1169.64L31.7227 1137.13C37.6446 1126.68 44.4581 1116.76 52.0872 1107.49L102.817 1149.53C97.6397 1155.81 93.0277 1162.54 89.0342 1169.64ZM72.6335 1215.6L7.72174 1204.69C9.72412 1192.81 12.7538 1181.13 16.7766 1169.78L78.9247 1191.6C76.1356 1199.4 74.0306 1207.43 72.6335 1215.6ZM42.1959 1093.27L25.6497 1087.34C25.1901 1066.46 21.7992 1045.75 15.5765 1025.81L89.1069 1052.18C71.621 1063.61 55.8295 1077.44 42.1959 1093.27ZM24.2315 1117.2C24.6678 1113.23 25.1406 1109.27 25.3588 1105.31L31.0317 1107.34C28.668 1110.69 26.4498 1113.96 24.2315 1117.31V1117.2ZM-11.3336 1226.15L-17.0066 1224.11C-14.6792 1220.95 -12.4973 1217.57 -10.3154 1214.26C-10.9336 1218.22 -11.3336 1222.18 -11.3336 1226.15ZM-64.6813 1139.23C-61.97 1131.59 -59.9378 1123.71 -58.6083 1115.71L6.37616 1126.62C4.39197 1138.57 1.34961 1150.33 -2.71509 1161.74L-64.6813 1139.23ZM-17.9157 1194.84C-23.8499 1205.29 -30.6884 1215.21 -38.3529 1224.47L-88.9732 1182.29C-83.7969 1176.01 -79.1735 1169.29 -75.1545 1162.22L-17.9157 1194.84ZM5.758 1054.94C8.01404 1066.74 9.23083 1078.71 9.39447 1090.72L-56.4991 1091.38C-56.5888 1083.23 -57.3797 1075.1 -58.8629 1067.09L5.758 1054.94ZM-65.4813 1043.56C-68.307 1035.91 -71.7994 1028.52 -75.9181 1021.48L-19.3339 987.81C-13.3027 998.256 -8.19232 1009.21 -4.06061 1020.54L-65.4813 1043.56ZM-148.357 1224.18L-125.557 1286C-136.779 1290.16 -148.337 1293.35 -160.103 1295.53L-171.886 1230.62C-163.871 1229.16 -155.999 1227.01 -148.357 1224.18ZM-126.284 1213.67C-119.231 1209.55 -112.551 1204.81 -106.319 1199.53L-63.8812 1249.86C-73.0139 1257.62 -82.8093 1264.57 -93.1552 1270.62L-126.284 1213.67ZM-28.3889 1238.11L-11.8427 1244.04C-11.3708 1264.92 -7.96771 1285.63 -1.73322 1305.57L-75.2635 1279.2C-57.7963 1267.81 -42.0172 1254.01 -28.3889 1238.22V1238.11ZM8.19446 1276.11C5.92358 1264.32 4.7066 1252.34 4.55792 1240.33L70.4516 1239.82C70.4948 1247.96 71.2737 1256.08 72.779 1264.08L8.19446 1276.11ZM79.5792 1287.79C82.3987 1295.43 85.8787 1302.82 89.9797 1309.86L33.1409 1343.24C27.1251 1332.89 22.015 1322.04 17.8676 1310.81L79.5792 1287.79ZM96.7072 1197.93L251.768 1124.4L324.789 1279.68L169.728 1353.24L96.7072 1197.93ZM547.344 1263.97C540.313 1268.12 533.657 1272.88 527.452 1278.19L484.687 1227.82C493.768 1220.05 503.502 1213.08 513.779 1206.98L547.344 1263.97ZM546.471 1191.64C557.688 1187.43 569.246 1184.21 581.018 1182L592.91 1246.91C584.9 1248.39 577.038 1250.58 569.418 1253.46L546.471 1191.64ZM496.324 1315.68L439.049 1283.17C444.962 1272.7 451.776 1262.77 459.413 1253.49L510.142 1295.57C504.958 1301.86 500.334 1308.58 496.324 1315.68ZM479.996 1361.61L415.048 1350.7C417.05 1338.82 420.08 1327.14 424.103 1315.79L486.214 1337.61C483.457 1345.41 481.377 1353.44 479.996 1361.61ZM449.522 1239.42L432.976 1233.49C432.519 1212.61 429.128 1191.9 422.903 1171.96L496.433 1198.33C478.939 1209.75 463.146 1223.58 449.522 1239.42ZM431.667 1263.17C432.139 1259.28 432.467 1255.35 432.685 1251.46L438.358 1253.49C435.958 1256.66 433.812 1259.89 431.667 1263.17ZM395.811 1372.26L390.138 1370.23C392.429 1367.06 394.683 1363.83 396.792 1360.52C396.356 1364.37 395.956 1368.26 395.956 1372.19L395.811 1372.26ZM342.499 1285.28C345.186 1277.61 347.206 1269.73 348.536 1261.71L413.52 1272.62C411.523 1284.59 408.481 1296.35 404.429 1307.79L342.499 1285.28ZM389.228 1340.88C383.302 1351.33 376.463 1361.24 368.791 1370.48L318.171 1328.33C323.347 1322.05 327.971 1315.34 331.99 1308.26L389.228 1340.88ZM412.902 1200.95C415.173 1212.74 416.39 1224.72 416.539 1236.73L350.681 1237.38C350.59 1229.25 349.799 1221.13 348.318 1213.13L412.902 1200.95ZM341.699 1189.56C338.832 1181.93 335.328 1174.54 331.226 1167.49L387.956 1133.96C393.977 1144.3 399.087 1155.14 403.229 1166.36L341.699 1189.56ZM258.968 1370.34L281.769 1432.16C270.554 1436.34 258.994 1439.54 247.223 1441.72L235.44 1376.92C243.459 1375.41 251.331 1373.21 258.968 1370.34ZM281.042 1359.83C288.083 1355.7 294.751 1350.96 300.97 1345.68L343.445 1396.01C334.312 1403.77 324.517 1410.72 314.171 1416.77L281.042 1359.83ZM378.937 1384.19L395.483 1390.12C395.952 1410.99 399.355 1431.69 405.593 1451.61L332.062 1425.28C349.529 1413.84 365.307 1400.01 378.937 1384.19ZM415.484 1422.19C413.304 1410.39 412.16 1398.41 412.066 1386.41L477.959 1385.86C478.007 1394.01 478.773 1402.14 480.25 1410.15L415.484 1422.19ZM486.869 1433.79C489.709 1441.45 493.2 1448.84 497.306 1455.9L440.467 1489.29C434.406 1478.96 429.247 1468.13 425.048 1456.92L486.869 1433.79ZM504.033 1343.97L659.094 1270.44L732.115 1425.72L577.091 1499.25L504.033 1343.97ZM954.488 1410.01C947.452 1414.14 940.795 1418.89 934.596 1424.19L892.013 1373.97C901.085 1366.18 910.819 1359.2 921.105 1353.1L954.488 1410.01ZM953.579 1337.68C964.811 1333.49 976.381 1330.26 988.162 1328.04L1000.05 1392.95C992.049 1394.44 984.189 1396.62 976.562 1399.46L953.579 1337.68ZM903.65 1461.72L846.375 1429.21C852.262 1418.73 859.078 1408.8 866.739 1399.54L917.65 1441.57C912.402 1447.87 907.717 1454.61 903.65 1461.72ZM887.285 1507.83L822.374 1496.92C824.364 1485.05 827.393 1473.38 831.429 1462.05L893.54 1483.87C890.782 1491.66 888.689 1499.68 887.285 1507.83ZM856.848 1385.61L840.302 1379.68C839.842 1358.8 836.451 1338.09 830.229 1318.15L903.759 1344.19C886.264 1355.66 870.471 1369.55 856.848 1385.43V1385.61ZM838.992 1409.39C839.429 1405.5 839.756 1401.57 840.011 1397.65L845.684 1399.68C843.247 1402.66 841.138 1406.01 838.992 1409.21V1409.39ZM803.136 1518.49L797.464 1516.45C799.755 1513.32 801.973 1510.09 804.118 1506.78C803.682 1510.41 803.246 1514.3 803.246 1518.2L803.136 1518.49ZM749.789 1431.46C752.496 1423.8 754.528 1415.92 755.862 1407.9L820.846 1418.81C818.828 1430.77 815.786 1442.53 811.755 1453.97L749.789 1431.46ZM796.554 1487.03C790.616 1497.49 783.778 1507.4 776.117 1516.67L725.46 1474.48C730.657 1468.22 735.282 1461.5 739.279 1454.41L796.554 1487.03ZM820.228 1347.13C822.484 1358.93 823.701 1370.91 823.865 1382.92L757.971 1383.57C757.908 1375.42 757.129 1367.29 755.644 1359.28L820.228 1347.13ZM748.989 1335.75C746.156 1328.11 742.664 1320.72 738.552 1313.68L795.318 1280.15C801.35 1290.49 806.484 1301.33 810.664 1312.55L748.989 1335.75ZM666.258 1516.49L689.095 1578.31C677.862 1582.47 666.292 1585.66 654.512 1587.83L642.766 1522.92C650.773 1521.42 658.633 1519.21 666.258 1516.34V1516.49ZM688.368 1505.98C695.417 1501.86 702.087 1497.13 708.296 1491.83L750.771 1542.16C741.632 1549.93 731.838 1556.89 721.497 1562.96L688.368 1505.98ZM786.263 1530.41L802.809 1536.34C803.281 1557.22 806.684 1577.94 812.919 1597.87L739.388 1571.51C756.865 1560.02 772.644 1546.14 786.263 1530.27V1530.41ZM822.81 1568.42C820.63 1556.61 819.486 1544.64 819.392 1532.63L885.249 1532.12C885.328 1540.26 886.106 1548.38 887.576 1556.38L822.81 1568.42ZM894.158 1579.83C896.998 1587.48 900.49 1594.86 904.595 1601.91L847.756 1635.33C841.736 1624.97 836.614 1614.12 832.447 1602.89L894.158 1579.83ZM911.359 1489.98L1066.38 1416.45L1139.37 1571.76L984.199 1645.29L911.359 1489.98ZM1311.12 1607.73L1253.85 1575.22C1259.75 1564.74 1266.56 1554.81 1274.21 1545.54L1324.94 1587.62C1319.71 1593.9 1315.04 1600.63 1310.98 1607.73H1311.12ZM1294.79 1653.69L1229.85 1642.78C1231.83 1630.9 1234.86 1619.22 1238.9 1607.87L1301.01 1629.69C1298.18 1637.49 1296.05 1645.52 1294.65 1653.69H1294.79ZM1264.32 1531.47L1247.81 1525.54C1247.26 1504.72 1243.8 1484.07 1237.55 1464.19L1311.08 1490.56C1293.6 1501.92 1277.81 1515.7 1264.17 1531.47H1264.32ZM1246.32 1555.11C1246.76 1551.18 1247.12 1547.29 1247.34 1543.36L1253.01 1545.4C1250.54 1548.71 1248.46 1551.94 1246.32 1555.11ZM1210.54 1664.2L1204.86 1662.17C1207.17 1658.99 1209.38 1655.75 1211.52 1652.46C1211.01 1656.42 1210.54 1660.31 1210.54 1664.2ZM1157.19 1577.29C1159.9 1569.63 1161.94 1561.74 1163.26 1553.72L1228.24 1564.63C1226.24 1576.6 1223.18 1588.37 1219.12 1599.8L1157.19 1577.29ZM1203.95 1632.89C1198 1643.33 1191.16 1653.23 1183.52 1662.49L1132.79 1620.56C1137.99 1614.3 1142.61 1607.58 1146.61 1600.49L1203.95 1632.89ZM1227.63 1492.96C1229.88 1504.77 1231.1 1516.75 1231.26 1528.78L1165.33 1529.4C1165.27 1521.26 1164.49 1513.14 1163.01 1505.14L1227.63 1492.96ZM1156.39 1481.58C1153.55 1473.93 1150.05 1466.54 1145.91 1459.5L1202.68 1425.97C1208.72 1436.33 1213.87 1447.18 1218.06 1458.41L1156.39 1481.58ZM1073.58 1662.38L1096.42 1724.2C1085.19 1728.37 1073.62 1731.55 1061.84 1733.73L1050.09 1668.82C1058.09 1667.35 1065.95 1665.19 1073.58 1662.38ZM1095.69 1651.87C1102.74 1647.75 1109.4 1643.01 1115.62 1637.73L1158.1 1688.06C1148.96 1695.81 1139.16 1702.76 1128.82 1708.82L1095.69 1651.87ZM1193.59 1676.31L1210.14 1682.24C1210.59 1703.12 1213.99 1723.84 1220.24 1743.77L1146.71 1717.4C1164.18 1705.96 1179.96 1692.13 1193.59 1676.31ZM1341.92 1570.23L1299.34 1519.98C1308.42 1512.21 1318.15 1505.24 1328.43 1499.14L1361.67 1556.02C1354.69 1560.18 1348.08 1564.94 1341.92 1570.23ZM1383.89 1545.51L1360.94 1483.69C1372.15 1479.47 1383.71 1476.24 1395.49 1474.05L1407.38 1538.92C1399.37 1540.42 1391.51 1542.62 1383.89 1545.51ZM1502.22 1482.38C1513.26 1486.3 1523.94 1491.16 1534.15 1496.92L1501.64 1554.52C1494.67 1550.56 1487.37 1547.2 1479.82 1544.49H1479.42L1501.46 1482.38H1502.22ZM1466.91 1473.25L1456 1538.38C1447.98 1537.04 1439.87 1536.38 1431.74 1536.41L1431.31 1470.38C1443.24 1470.31 1455.16 1471.32 1466.91 1473.39V1473.25ZM1421.93 1453.94C1389.92 1455.62 1358.66 1464.16 1330.25 1478.99L1229.85 1442.99C1217.33 1413.5 1198.62 1387.04 1174.97 1365.43L1421.93 1453.94ZM1156.46 1371.39C1165.69 1379.09 1174.21 1387.61 1181.92 1396.85L1131.77 1439.68C1126.48 1433.5 1120.67 1427.77 1114.42 1422.56L1156.46 1371.39ZM1095 1336.37C1106.04 1340.3 1116.72 1345.17 1126.93 1350.92L1094.46 1408.48C1087.49 1404.53 1080.19 1401.18 1072.64 1398.48H1072.2L1094.17 1336.3L1095 1336.37ZM1059.73 1327.21L1048.64 1392.37C1040.63 1391 1032.51 1390.34 1024.38 1390.41L1023.95 1324.33C1035.9 1324.3 1047.84 1325.31 1059.62 1327.35L1059.73 1327.21ZM1014.71 1307.93C982.72 1309.59 951.464 1318.13 923.069 1332.95L822.665 1296.99C810.136 1267.48 791.409 1241.02 767.753 1219.38L1014.71 1307.93ZM749.243 1225.35C758.471 1232.99 766.991 1241.45 774.699 1250.62L724.551 1293.46C719.308 1287.25 713.515 1281.53 707.242 1276.37L749.243 1225.35ZM687.823 1190.33C698.846 1194.26 709.515 1199.13 719.715 1204.87L686.877 1262.73C679.898 1258.79 672.599 1255.44 665.058 1252.73H664.622L686.877 1190.29L687.823 1190.33ZM652.476 1181.16L641.566 1246.33C633.553 1244.98 625.437 1244.32 617.311 1244.37L616.874 1178.33C628.734 1178.28 640.574 1179.28 652.258 1181.31L652.476 1181.16ZM607.492 1161.89C575.5 1163.56 544.244 1172.11 515.852 1186.95L415.411 1150.94C402.913 1121.43 384.196 1094.96 360.536 1073.34L607.492 1161.89ZM342.026 1079.34C351.236 1086.99 359.754 1095.43 367.482 1104.58L317.335 1147.45C312.051 1141.26 306.247 1135.53 299.988 1130.33L342.026 1079.34ZM280.533 1044.32C291.574 1048.24 302.256 1053.11 312.462 1058.87L279.588 1116.69C272.617 1112.74 265.317 1109.41 257.768 1106.72H257.368L279.588 1044.25L280.533 1044.32ZM245.222 1035.16L234.313 1100.29C226.299 1098.94 218.183 1098.3 210.057 1098.36L209.621 1032.28C221.456 1032.27 233.271 1033.28 244.932 1035.3L245.222 1035.16ZM200.239 1015.85C168.247 1017.52 136.991 1026.07 108.599 1040.9L8.19446 1004.9C-4.34424 975.422 -23.0562 948.972 -46.6805 927.335L200.239 1015.85ZM-65.2268 933.299C-56.0085 941.018 -47.4902 949.536 -39.7712 958.754L-89.9551 1001.63C-95.1974 995.399 -100.991 989.654 -107.265 984.465L-65.2268 933.299ZM-126.72 898.279C-115.68 902.202 -104.997 907.069 -94.7916 912.825L-127.702 970.682C-134.677 966.734 -141.977 963.388 -149.521 960.682H-149.958L-127.702 898.206L-126.72 898.279ZM-162.031 889.115L-172.94 954.282C-180.966 952.926 -189.093 952.269 -197.232 952.318L-197.669 886.242C-185.845 886.227 -174.043 887.237 -162.394 889.261L-162.031 889.115ZM-207.014 869.842C-239.003 871.506 -270.258 880.039 -298.655 894.861L-399.095 858.896C-411.571 829.379 -430.277 802.908 -453.934 781.292L-207.014 869.842ZM-534.992 824.64C-541.975 820.708 -549.273 817.363 -556.811 814.639H-557.247L-534.992 752.2L-534.337 752.418C-523.308 756.342 -512.638 761.208 -502.445 766.965L-534.992 824.64ZM-514.955 838.422L-472.989 787.511C-463.787 795.182 -455.27 803.638 -447.534 812.785L-497.717 855.623C-502.918 849.392 -508.662 843.636 -514.882 838.422H-514.955ZM-483.499 875.442L-426.733 841.913C-420.688 852.254 -415.542 863.094 -411.35 874.314L-473.171 897.515C-475.954 889.879 -479.385 882.494 -483.426 875.442H-483.499ZM-466.516 921.08L-401.823 908.898C-399.566 920.696 -398.35 932.67 -398.186 944.681L-464.08 945.336C-464.189 937.199 -464.98 929.085 -466.443 921.08H-466.516ZM-513.791 1053.59L-471.316 1103.96C-480.449 1111.72 -490.244 1118.67 -500.59 1124.72L-533.61 1067.81C-526.567 1063.66 -519.899 1058.9 -513.682 1053.59H-513.791ZM-555.793 1078.29L-532.992 1140.11C-544.211 1144.28 -555.77 1147.48 -567.539 1149.67L-579.284 1084.72C-571.245 1083.27 -563.348 1081.12 -555.683 1078.29H-555.793ZM-673.725 1141.09C-684.871 1137.09 -695.641 1132.11 -705.908 1126.22L-673.179 1068.65C-666.206 1072.62 -658.906 1075.99 -651.36 1078.72L-673.543 1141.16L-673.725 1141.09ZM-638.851 1150.18L-627.65 1085.05C-619.651 1086.43 -611.548 1087.11 -603.431 1087.09L-603.104 1153.13C-615.083 1153.21 -627.046 1152.22 -638.851 1150.18ZM-593.43 1169.64C-561.442 1167.94 -530.191 1159.4 -501.79 1144.58L-401.386 1180.55C-388.874 1210.06 -370.145 1236.53 -346.475 1258.15L-593.43 1169.64ZM-328.219 1251.93C-337.437 1244.21 -345.955 1235.69 -353.675 1226.47L-303.418 1183.71C-298.179 1189.93 -292.399 1195.67 -286.145 1200.87L-328.219 1251.93ZM-266.399 1287.2C-277.555 1283.16 -288.346 1278.17 -298.655 1272.29L-265.926 1214.8C-258.908 1218.83 -251.546 1222.23 -243.925 1224.95L-266.144 1287.2H-266.399ZM-231.525 1296.3L-220.288 1231.17C-212.29 1232.55 -204.185 1233.22 -196.069 1233.17L-195.741 1299.24C-207.747 1299.3 -219.734 1298.29 -231.561 1296.22L-231.525 1296.3ZM-186.104 1315.68C-154.104 1313.99 -122.84 1305.44 -94.428 1290.62L5.97614 1326.62C18.488 1356.12 37.2038 1382.57 60.8512 1404.19L-186.104 1315.68ZM79.1429 1397.97C69.9344 1390.24 61.4169 1381.73 53.6873 1372.52L103.908 1329.64C109.156 1335.85 114.936 1341.6 121.181 1346.81L79.1429 1397.97ZM140.964 1433.21C129.793 1429.19 118.989 1424.21 108.671 1418.34L141.4 1360.84C148.429 1364.85 155.79 1368.24 163.401 1370.99L141.145 1433.21H140.964ZM175.838 1442.3L187.075 1377.21C195.077 1378.56 203.179 1379.23 211.294 1379.21L211.621 1445.28C199.607 1445.36 187.609 1444.39 175.765 1442.37L175.838 1442.3ZM221.294 1461.68C253.299 1460.02 284.568 1451.47 312.971 1436.63L413.339 1472.63C425.85 1502.14 444.565 1528.6 468.214 1550.23L221.294 1461.68ZM486.469 1543.98C477.25 1536.26 468.732 1527.74 461.013 1518.52L511.234 1475.83C516.464 1482.05 522.245 1487.78 528.507 1492.96L486.469 1543.98ZM548.29 1579.25C537.092 1575.25 526.273 1570.26 515.961 1564.34L548.69 1506.85C555.73 1510.87 563.103 1514.28 570.727 1517.03L548.471 1579.29L548.29 1579.25ZM583.127 1588.34L594.364 1523.21C602.362 1524.6 610.467 1525.27 618.583 1525.21L618.874 1591.29C606.88 1591.35 594.905 1590.34 583.091 1588.27L583.127 1588.34ZM628.693 1607.65C660.693 1605.96 691.958 1597.42 720.369 1582.6L820.774 1618.6C833.276 1648.1 851.994 1674.56 875.649 1696.17L628.693 1607.65ZM893.904 1689.95C884.694 1682.22 876.177 1673.7 868.448 1664.49L918.705 1621.73C923.935 1627.96 929.716 1633.7 935.978 1638.89L893.904 1689.95ZM955.725 1725.22C944.553 1721.19 933.749 1716.2 923.432 1710.31L956.161 1652.82C963.199 1656.83 970.572 1660.23 978.198 1662.97L955.943 1725.22H955.725ZM990.599 1734.31L1001.8 1669.18C1009.8 1670.55 1017.9 1671.22 1026.02 1671.18L1026.35 1737.26C1014.31 1737.33 1002.28 1736.35 990.417 1734.31H990.599ZM1035.98 1753.7C1067.98 1752.01 1099.25 1743.46 1127.66 1728.64L1228.06 1764.61C1240.51 1794.16 1259.18 1820.69 1282.79 1842.39L1035.98 1753.7ZM1301.19 1835.95C1291.97 1828.24 1283.46 1819.72 1275.74 1810.5L1325.96 1767.73C1331.21 1773.95 1337 1779.7 1343.27 1784.9L1301.19 1835.95ZM1363.01 1871.23C1351.84 1867.22 1341.03 1862.24 1330.72 1856.36L1363.27 1798.75C1370.32 1802.75 1377.69 1806.14 1385.31 1808.9L1363.27 1871.48L1363.01 1871.23Z" fill="#2B2D2C"/>
</g>
</g>
</svg>
