<svg width="1120" height="248" viewBox="0 0 1120 248" fill="none" xmlns="http://www.w3.org/2000/svg">
<mask id="mask0" mask-type="alpha" maskUnits="userSpaceOnUse" x="0" y="0" width="1120" height="248">
<rect width="1120" height="248" fill="#C79947"/>
</mask>
<g mask="url(#mask0)">
<g style="mix-blend-mode:overlay" opacity="0.1">
<path d="M1638.29 107.476L1600.51 173.915L1550.83 149.077L1609.64 45.7639L1652.69 67.2557L1662.87 38.8546L-479.033 -729.032L-488.197 -703.576L-463.214 -694.485L-503.98 -583.426L-528.126 -592.226L-537.254 -566.771L1604.65 201.116L1638.29 107.476ZM-439.941 -557.607L-489.616 -582.408L-430.813 -685.757L-381.175 -660.92L-439.941 -557.607ZM-357.792 -530.878L-410.121 -549.934L-369.392 -660.993L-317.027 -641.865L-357.792 -530.878ZM-332.154 -519.969L-304.99 -635.355L-251.351 -620.809L-278.552 -505.423L-332.154 -519.969ZM-212.477 -478.912L-264.77 -497.968L-224.041 -609.027L-171.711 -589.972L-212.477 -478.912ZM-148.438 -453.239L-198.113 -478.076L-139.31 -581.389L-89.6717 -556.552L-148.438 -453.239ZM-66.2889 -426.51L-118.618 -445.493L-77.8894 -556.552L-25.5599 -537.497L-66.2889 -426.51ZM-40.8333 -415.601L-13.6322 -530.987L40.0063 -516.441L12.8053 -401.055L-40.8333 -415.601ZM78.8807 -374.544L26.5513 -393.636L67.2802 -504.695L119.719 -485.494L78.8807 -374.544ZM142.92 -348.871L93.245 -373.708L152.011 -477.021L201.686 -452.184L142.92 -348.871ZM225.178 -321.851L172.848 -340.943L213.577 -452.002L265.907 -432.947L225.178 -321.851ZM250.633 -310.942L277.798 -426.292L331.437 -411.746L304.272 -296.323L250.633 -310.942ZM370.638 -269.776L318.309 -288.832L359.038 -399.891L411.367 -380.836L370.638 -269.776ZM434.641 -244.103L385.003 -268.904L443.769 -372.217L493.298 -347.307L434.641 -244.103ZM516.79 -217.374L464.46 -236.43L505.189 -347.307L557.519 -328.252L516.79 -217.374ZM542.245 -206.465L569.447 -321.851L623.121 -307.305L596.102 -191.664L542.245 -206.465ZM661.959 -165.409L609.63 -184.464L650.359 -295.523L702.688 -276.468L661.959 -165.409ZM725.962 -139.735L676.287 -164.572L735.09 -267.885L784.728 -243.048L725.962 -139.735ZM808.111 -113.006L755.781 -132.062L796.51 -243.121L848.84 -224.065L808.111 -113.006ZM833.567 -102.097L860.731 -217.483L914.406 -202.937L887.205 -87.5507L833.567 -102.097ZM953.281 -61.0405L900.988 -80.0958L941.935 -190.937L994.228 -171.918L953.281 -61.0405ZM1017.28 -35.4031L967.863 -60.0223L1026.63 -163.336L1076.3 -138.498L1017.28 -35.4031ZM1099.47 -8.63831L1047.36 -27.2936L1088.12 -138.353L1140.42 -119.334L1099.47 -8.63831ZM1124.92 2.27124L1152.49 -112.679L1206.13 -98.133L1178.96 17.2537L1124.92 2.27124ZM1244.64 43.2911L1192.31 24.2358L1233.04 -86.8234L1285.73 -67.2953L1244.64 43.2911ZM1308.68 68.9648L1259 44.1638L1317.77 -59.1496L1367.44 -34.3121L1308.68 68.9648ZM1391.19 96.3478L1338.86 77.2561L1379.59 -33.803L1431.92 -14.7476L1391.19 96.3478ZM1416.65 107.257L1443.85 -8.12927L1497.49 6.41681L1470.43 121.803L1416.65 107.257ZM1536.4 148.314L1484.14 129.076L1524.9 18.0173L1577.23 37.0727L1536.4 148.314Z" fill="#2B2D2C"/>
<path d="M1179.8 45.0365L1117.87 61.1462L1080.3 9.36219L1047.14 -2.52917L1109.76 83.8016L1212.93 56.9279L1179.8 45.0365Z" fill="#2B2D2C"/>
<path d="M1599.27 216.316L1578.76 188.097L1560.65 181.588L1389.48 226.171L1285.66 83.0017L1267.55 76.4924L1096.38 121.076L992.554 -22.0936L974.408 -28.6028L803.274 15.9808L699.415 -127.189L681.305 -133.662L510.134 -89.1145L406.312 -232.248L388.166 -238.757L217.031 -194.173L113.172 -337.343L95.0626 -343.852L-76.0718 -299.269L-179.967 -442.438L-198.077 -448.948L-369.211 -404.364L-473.07 -547.533L-491.18 -554.006L-546.964 -539.497L-555.073 -516.878L-488.016 -534.333L-377.321 -381.745L-194.913 -429.274L-84.1813 -276.65L98.2263 -324.179L208.922 -171.591L391.329 -219.083L502.025 -66.4954L684.469 -113.988L795.164 38.5999L977.572 -8.89301L1088.27 143.695L1270.71 96.166L1381.41 248.754L1563.85 201.261L1591.16 238.972L1599.27 216.316Z" fill="#2B2D2C"/>
<path d="M1577.82 276.21L1553.67 242.935L1549.45 241.408L1545.2 239.917L1368.02 286.064L1260.53 137.84L1256.31 136.349L1252.09 134.822L1074.92 180.969L967.426 32.7812L963.172 31.2539L958.953 29.7265L781.782 75.9103L674.287 -72.3141L670.069 -73.8413L665.85 -75.3323L488.643 -29.1849L381.148 -177.409L376.965 -178.937L372.711 -180.428L195.54 -134.28L88.0445 -282.505L83.8261 -284.032L79.6077 -285.523L-97.5633 -239.376L-205.095 -387.563L-209.313 -389.091L-213.532 -390.618L-390.703 -344.434L-498.198 -492.659L-502.416 -494.186L-506.635 -495.677L-568.456 -479.604L-576.565 -456.985L-509.471 -474.44L-398.812 -321.852L-216.368 -369.345L-105.673 -216.756L76.7712 -264.249L187.43 -111.661L369.874 -159.154L480.57 -6.6022L662.977 -54.0951L773.673 98.493L956.117 51.0002L1066.81 203.588L1249.22 156.095L1359.92 308.684L1542.36 261.191L1569.71 298.865L1577.82 276.21Z" fill="#2B2D2C"/>
<path d="M1556.32 336.14L1532.18 302.829L1527.96 301.302L1523.74 299.811L1346.53 345.958L1239.04 197.77L1234.86 196.243L1230.6 194.715L1053.43 240.899L945.934 92.6749L941.716 91.1476L937.497 89.6566L760.29 135.804L652.831 -12.4204L648.613 -13.9477L644.394 -15.4386L467.187 30.7087L359.691 -117.516L355.473 -119.043L351.255 -120.534L174.047 -74.3866L66.552 -222.575L62.3701 -224.102L58.1153 -225.629L-119.056 -179.445L-226.551 -327.67L-230.769 -329.197L-234.988 -330.688L-412.159 -284.541L-519.654 -432.765L-523.872 -434.292L-528.091 -435.783L-589.912 -419.674L-598.021 -397.054L-530.964 -414.51L-420.268 -261.922L-237.861 -309.451L-127.129 -156.826L55.2788 -204.356L165.974 -51.7675L348.382 -99.2603L459.077 53.3279L641.521 5.83487L752.217 158.423L934.624 110.894L1045.32 263.518L1227.76 215.989L1338.42 368.577L1520.87 321.084L1548.21 358.759L1556.32 336.14Z" fill="#2B2D2C"/>
<path d="M1534.83 396.033L1510.69 362.759L1506.5 361.232L1502.25 359.704L1325.08 405.888L1217.58 257.663L1213.36 256.136L1209.15 254.645L1031.94 300.792L924.479 152.568L920.224 151.041L916.006 149.55L738.835 195.697L631.339 47.4729L627.121 45.9456L622.903 44.4547L445.695 90.6021L338.2 -57.5859L334.018 -59.1133L329.763 -60.6407L152.592 -14.4569L45.097 -162.681L40.8786 -164.209L36.6602 -165.7L-140.511 -119.552L-248.043 -267.777L-252.261 -269.304L-256.479 -270.795L-433.65 -224.647L-541.146 -372.872L-545.364 -374.363L-549.582 -375.89L-611.403 -359.78L-619.512 -337.161L-552.419 -354.616L-441.76 -202.028L-259.352 -249.521L-148.62 -96.933L33.7874 -144.426L144.483 8.16223L326.927 -39.367L437.586 113.221L620.03 65.7282L730.725 218.316L913.133 170.823L1023.86 323.412L1206.27 275.919L1316.97 428.507L1499.41 380.978L1526.76 418.652L1534.83 396.033Z" fill="#2B2D2C"/>
<path d="M1513.38 455.963L1489.23 422.652L1485.01 421.125L1480.76 419.634L1303.59 465.781L1196.09 317.557L1191.91 316.029L1187.65 314.539L1010.48 360.686L902.988 212.498L898.769 210.971L894.551 209.443L717.38 255.591L609.848 107.403L605.666 105.875L601.411 104.384L424.24 150.495L316.745 2.3075L312.527 0.78009L308.272 -0.710876L131.101 45.4365L23.6055 -102.788L19.4235 -104.315L15.1688 -105.806L-162.002 -59.6588L-269.498 -207.847L-273.716 -209.374L-277.934 -210.901L-455.105 -164.754L-562.637 -312.942L-566.819 -314.469L-571.037 -315.96L-632.858 -299.887L-641.004 -277.268L-573.91 -294.723L-463.215 -142.135L-280.807 -189.628L-170.112 -37.0396L12.3323 -84.5325L122.991 68.0556L305.435 20.5263L416.131 173.114L598.575 125.622L709.234 278.21L891.678 230.717L1002.37 383.305L1184.82 335.812L1295.48 488.4L1477.92 440.907L1505.27 478.582L1513.38 455.963Z" fill="#2B2D2C"/>
<path d="M1491.92 515.856L1467.74 482.546L1463.52 481.018L1459.3 479.527L1282.13 525.675L1174.63 377.487L1170.42 375.959L1166.2 374.432L988.99 420.579L881.495 272.391L877.277 270.864L873.058 269.373L695.887 315.52L588.392 167.296L584.174 165.769L579.955 164.278L402.748 210.425L295.253 62.2007L291.034 60.6734L286.816 59.1824L109.645 105.33L2.11328 -42.8581L-2.06873 -44.3855L-6.28705 -45.9128L-183.458 0.270874L-290.99 -147.953L-295.208 -149.481L-299.426 -150.972L-476.597 -104.824L-584.093 -253.049L-588.311 -254.576L-592.53 -256.067L-654.35 -239.957L-662.46 -217.338L-595.402 -234.83L-484.707 -82.2053L-302.299 -129.735L-191.568 22.89L-9.15991 -24.6392L101.536 127.949L283.98 80.4561L394.639 233.044L577.083 185.515L687.778 338.139L870.186 290.61L980.881 443.198L1163.32 395.706L1274.02 548.294L1456.46 500.801L1483.77 538.475L1491.92 515.856Z" fill="#2B2D2C"/>
<path d="M1470.43 575.75L1446.28 542.475L1442.06 540.948L1437.81 539.457L1260.64 585.568L1153.14 437.38L1148.93 435.853L1144.71 434.362L967.536 480.509L860.04 332.285L855.822 330.758L851.604 329.267L674.396 375.414L566.901 227.226L562.682 225.699L558.464 224.171L381.293 270.319L273.798 122.131L269.579 120.603L265.325 119.076L88.1536 165.26L-19.3418 17.0355L-23.5601 15.5081L-27.7784 14.0172L-204.949 60.1645L-312.445 -88.0597L-316.663 -89.5871L-320.882 -91.0781L-498.089 -44.9307L-605.584 -193.155L-609.803 -194.646L-614.021 -196.173L-675.842 -180.064L-683.951 -157.444L-616.857 -174.9L-506.162 -22.3116L-323.754 -69.8409L-213.059 82.7837L-30.6149 35.2545L80.0442 187.842L262.488 140.35L373.147 292.938L555.628 245.445L666.287 398.033L848.731 350.504L959.426 503.128L1141.87 455.599L1252.53 608.187L1434.97 560.694L1462.32 598.369L1470.43 575.75Z" fill="#2B2D2C"/>
<path d="M1448.94 635.643L1424.79 602.369L1420.57 600.841L1416.35 599.35L1239.15 645.498L1131.65 497.273L1127.47 495.746L1123.22 494.255L946.044 540.403L838.549 392.215L834.33 390.651L830.112 389.16L652.941 435.344L545.446 287.119L541.227 285.592L537.009 284.101L359.802 330.248L252.306 182.024L248.088 180.497L243.87 179.006L66.6985 225.153L-40.8333 76.9288L-45.0152 75.4014L-49.2336 73.9104L-226.441 120.058L-333.936 -28.1664L-338.155 -29.6938L-342.373 -31.1848L-519.544 14.999L-627.039 -133.225L-631.258 -134.753L-635.476 -136.244L-697.297 -120.17L-705.406 -97.5148L-638.349 -115.006L-527.653 37.5817L-345.246 -9.91118L-234.514 142.677L-52.1064 95.1841L58.5891 247.772L240.997 200.279L351.692 352.831L534.136 305.338L644.832 457.926L827.239 410.434L937.935 563.022L1120.38 515.529L1231.04 668.117L1413.48 620.588L1440.83 658.298L1448.94 635.643Z" fill="#2B2D2C"/>
<path d="M1427.48 695.573L1403.34 662.298L1399.12 660.735L1394.86 659.244L1217.69 705.391L1110.2 557.203L1105.98 555.676L1101.76 554.185L924.552 600.332L817.093 452.108L812.874 450.58L808.62 449.09L631.449 495.237L523.953 347.013L519.735 345.485L515.516 343.994L338.309 390.142L230.814 241.954L226.632 240.39L222.377 238.899L45.2061 285.046L-62.2893 136.859L-66.5076 135.331L-70.726 133.84L-247.897 179.988L-355.429 31.7632L-359.611 30.2359L-363.865 28.7449L-541.036 74.8923L-648.532 -73.3321L-652.75 -74.8594L-656.969 -76.3503L-718.789 -60.2406L-726.899 -37.6579L-659.805 -55.0768L-565.656 74.7468L-521.908 90.4202L-366.702 49.9821L-272.553 179.806L-228.805 195.479L-73.5624 155.077L20.5869 284.901L64.3341 300.574L219.541 260.173L313.726 389.996L357.437 405.67L512.68 365.268L606.829 495.055L650.577 510.765L805.783 470.327L899.932 600.15L943.68 615.824L1098.89 575.422L1193.07 705.246L1236.78 720.919L1392.03 680.517L1419.37 718.192L1427.48 695.573Z" fill="#2B2D2C"/>
<path d="M1255.04 1176.39C1249.26 1175.92 1243.55 1175.23 1237.84 1174.25L1249.07 1109.01C1257.07 1110.37 1265.18 1111.01 1273.29 1110.94V1125.23L1299.15 1053.11L1231.66 1085.48L1158.63 930.201L1313.7 856.379L1345.51 924.055L1366.17 866.489C1364.68 865.18 1363.3 863.798 1361.77 862.525L1372.06 850.052L1397.52 778.485L-744.39 10.5989L-752.827 34.5271C-745.029 34.9437 -737.26 35.7813 -729.553 37.0363L-740.645 102.312C-748.644 100.952 -756.749 100.307 -764.864 100.384L-765.082 68.7831L-798.538 162.06L-722.898 126.204L-649.914 281.81L-804.938 355.159L-840.576 279.446L-862.395 340.503C-859.449 343.413 -856.395 346.176 -853.231 348.831L-874.686 374.796L-894.869 430.907L1247.04 1198.83L1255.04 1176.39ZM1151.91 1041.84L1095.07 1075.22C1089.03 1064.88 1083.9 1054.03 1079.76 1042.79L1141.58 1020.02C1144.4 1027.57 1147.85 1034.87 1151.91 1041.84ZM1135.03 996.167L1070.27 1008.2C1068.09 996.398 1066.94 984.425 1066.85 972.42L1132.71 971.875C1132.78 980.061 1133.56 988.225 1135.03 996.276V996.167ZM-427.359 265.919C-434.369 270.071 -441.012 274.816 -447.214 280.101L-489.834 229.881C-480.712 222.082 -470.916 215.109 -460.56 209.043L-427.359 265.919ZM-428.232 193.588C-417.014 189.391 -405.455 186.167 -393.685 183.952L-381.793 248.863C-389.797 250.353 -397.657 252.53 -405.285 255.373L-428.232 193.588ZM-478.161 317.63L-535.472 285.119C-529.56 274.655 -522.746 264.726 -515.108 255.445L-464.379 297.483C-469.543 303.79 -474.154 310.531 -478.161 317.63ZM-494.525 363.559L-559.473 352.649C-557.466 340.785 -554.437 329.117 -550.418 317.775L-488.27 339.594C-491.046 347.386 -493.139 355.404 -494.525 363.559ZM-524.999 241.336L-541.509 235.445C-541.981 214.565 -545.371 193.855 -551.582 173.915L-478.088 200.243C-495.566 211.685 -511.356 225.517 -524.999 241.336ZM-577.729 362.395C-578.129 366.323 -578.492 370.25 -578.711 374.105L-584.384 372.105C-582.08 368.953 -579.862 365.716 -577.729 362.395ZM-541.836 253.3L-536.163 255.3C-538.454 258.5 -540.673 261.737 -542.855 265.009C-542.418 261.227 -542.127 257.3 -541.836 253.409V253.3ZM-570.092 309.593L-631.913 287.119C-629.198 279.478 -627.142 271.619 -625.767 263.628L-560.819 274.537C-562.858 286.511 -565.961 298.28 -570.092 309.702V309.593ZM-642.531 310.066L-585.293 342.794C-591.209 353.262 -598.049 363.181 -605.73 372.432L-656.35 330.285C-651.174 323.992 -646.55 317.263 -642.531 310.175V310.066ZM-595.584 386.178L-579.038 392.106C-578.548 412.986 -575.146 433.696 -568.928 453.635L-642.459 427.271C-624.969 415.859 -609.186 402.024 -595.584 386.178ZM-559.219 424.18C-561.4 412.375 -562.544 400.401 -562.637 388.396L-496.744 387.887C-496.695 396.024 -495.929 404.141 -494.453 412.143L-559.219 424.18ZM-488.016 435.744C-485.164 443.4 -481.66 450.797 -477.543 457.854L-534.418 491.237C-540.448 480.892 -545.559 470.038 -549.691 458.799L-488.016 435.744ZM-470.815 345.922L-315.791 272.355L-242.769 427.671L-397.83 501.201L-470.815 345.922ZM-20.2147 411.961C-27.2391 416.11 -33.8942 420.855 -40.1064 426.143L-82.69 375.923C-73.6118 368.141 -63.8782 361.157 -53.5979 355.05L-20.2147 411.961ZM-21.0875 339.631C-9.87506 335.417 1.68469 332.192 13.4594 329.994L25.3508 394.869C17.3505 396.388 9.49207 398.578 1.85895 401.415L-21.0875 339.631ZM-70.835 463.636L-128.146 431.125C-122.225 420.678 -115.411 410.762 -107.782 401.488L-57.0526 443.526C-62.2294 449.811 -66.8414 456.54 -70.835 463.636ZM-87.2357 509.601L-152.147 498.692C-150.145 486.815 -147.115 475.134 -143.093 463.781L-80.9445 485.6C-83.7335 493.403 -85.8386 501.434 -87.2357 509.601ZM-117.673 387.269L-134.219 381.341C-134.679 360.461 -138.07 339.749 -144.293 319.812L-70.7623 346.176C-88.2481 357.607 -104.04 371.44 -117.673 387.269ZM-135.638 411.197C-135.201 407.234 -134.729 403.27 -134.51 399.306L-128.837 401.342C-131.201 404.688 -133.419 407.961 -135.638 411.306V411.197ZM-171.203 520.147L-176.876 518.111C-174.548 514.947 -172.366 511.565 -170.185 508.256C-170.803 512.22 -171.203 516.183 -171.203 520.147ZM-224.55 433.235C-221.839 425.585 -219.807 417.712 -218.477 409.706L-153.493 420.616C-155.477 432.571 -158.52 444.327 -162.584 455.745L-224.55 433.235ZM-177.785 488.837C-183.719 499.294 -190.558 509.211 -198.222 518.474L-248.842 476.291C-243.666 470.01 -239.043 463.294 -235.024 456.217L-177.785 488.837ZM-154.111 348.94C-151.855 360.739 -150.638 372.712 -150.475 384.723L-216.368 385.378C-216.458 377.228 -217.249 369.101 -218.732 361.086L-154.111 348.94ZM-225.35 337.558C-228.176 329.909 -231.669 322.522 -235.787 315.484L-179.203 281.81C-173.172 292.256 -168.061 303.207 -163.93 314.539L-225.35 337.558ZM-308.227 518.184L-285.426 580.004C-296.648 584.161 -308.206 587.349 -319.973 589.532L-331.755 524.62C-323.741 523.16 -315.868 521.006 -308.227 518.184ZM-286.153 507.674C-279.1 503.547 -272.42 498.814 -266.189 493.528L-223.75 543.857C-232.883 551.621 -242.678 558.569 -253.024 564.622L-286.153 507.674ZM-188.258 532.111L-171.712 538.039C-171.24 558.921 -167.837 579.633 -161.602 599.569L-235.133 573.204C-217.665 561.806 -201.886 548.01 -188.258 532.22V532.111ZM-151.675 570.113C-153.946 558.317 -155.163 546.342 -155.311 534.33L-89.4175 533.82C-89.3744 541.959 -88.5954 550.077 -87.0901 558.076L-151.675 570.113ZM-80.2899 581.786C-77.4704 589.432 -73.9905 596.818 -69.8895 603.86L-126.728 637.243C-132.744 626.89 -137.854 616.038 -142.002 604.805L-80.2899 581.786ZM-63.1619 491.928L91.899 418.398L164.92 573.677L9.85925 647.243L-63.1619 491.928ZM387.475 557.967C380.444 562.12 373.788 566.877 367.583 572.186L324.818 521.82C333.899 514.052 343.633 507.081 353.91 500.983L387.475 557.967ZM386.602 485.637C397.819 481.435 409.377 478.211 421.149 476L433.041 540.912C425.031 542.392 417.169 544.582 409.549 547.457L386.602 485.637ZM336.455 609.678L279.18 577.168C285.092 566.703 291.906 556.774 299.544 547.494L350.273 589.568C345.089 595.855 340.465 602.584 336.455 609.678ZM320.127 655.607L255.179 644.698C257.181 632.821 260.211 621.14 264.233 609.787L326.345 631.606C323.588 639.414 321.508 647.444 320.127 655.607ZM289.653 533.421L273.107 527.493C272.65 506.612 269.259 485.899 263.033 465.963L336.564 492.328C319.07 503.748 303.277 517.582 289.653 533.421ZM271.797 557.167C272.27 553.276 272.597 549.348 272.816 545.457L278.489 547.494C276.089 550.658 273.943 553.894 271.797 557.167ZM235.941 666.262L230.268 664.226C232.559 661.062 234.814 657.826 236.923 654.516C236.487 658.371 236.087 662.262 236.087 666.19L235.941 666.262ZM182.63 579.277C185.317 571.611 187.337 563.726 188.667 555.712L253.651 566.622C251.654 578.587 248.612 590.353 244.56 601.787L182.63 579.277ZM229.359 634.879C223.433 645.33 216.594 655.235 208.922 664.48L158.302 622.333C163.478 616.053 168.102 609.337 172.121 602.26L229.359 634.879ZM253.033 494.946C255.304 506.742 256.521 518.718 256.67 530.73L190.812 531.384C190.721 523.246 189.93 515.131 188.448 507.129L253.033 494.946ZM181.83 483.564C178.962 475.926 175.459 468.542 171.357 461.49L228.086 427.962C234.107 438.299 239.218 449.14 243.36 460.363L181.83 483.564ZM99.0993 664.335L121.9 726.156C110.684 730.341 99.1251 733.542 87.3535 735.72L75.571 670.917C83.5899 669.41 91.4623 667.207 99.0993 664.335ZM121.173 653.825C128.214 649.698 134.882 644.965 141.101 639.679L183.576 690.009C174.443 697.772 164.648 704.72 154.302 710.773L121.173 653.825ZM219.068 678.19L235.614 684.118C236.083 704.988 239.486 725.689 245.724 745.611L172.193 719.283C189.66 707.84 205.438 694.008 219.068 678.19ZM255.615 716.192C253.435 704.386 252.291 692.413 252.197 680.408L318.09 679.863C318.138 688.012 318.904 696.141 320.381 704.155L255.615 716.192ZM327 727.792C329.839 735.447 333.331 742.844 337.437 749.902L280.598 783.286C274.536 772.961 269.378 762.132 265.179 750.92L327 727.792ZM344.164 637.97L499.225 564.44L572.246 719.719L417.222 793.25L344.164 637.97ZM794.619 704.009C787.583 708.14 780.926 712.886 774.727 718.192L732.144 667.972C741.216 660.181 750.95 653.196 761.236 647.098L794.619 704.009ZM793.71 631.679C804.942 627.487 816.512 624.262 828.293 622.042L840.185 686.954C832.18 688.439 824.32 690.617 816.693 693.464L793.71 631.679ZM743.781 755.721L686.505 723.21C692.393 712.73 699.208 702.799 706.87 693.536L757.781 735.574C752.533 741.867 747.848 748.608 743.781 755.721ZM727.416 801.832L662.505 790.922C664.494 779.054 667.524 767.385 671.559 756.048L733.671 777.867C730.913 785.664 728.82 793.681 727.416 801.832ZM696.979 679.608L680.432 673.681C679.973 652.8 676.582 632.088 670.359 612.151L743.89 638.188C726.394 649.664 710.602 663.547 696.979 679.427V679.608ZM679.123 703.391C679.56 699.5 679.887 695.573 680.142 691.645L685.815 693.682C683.378 696.664 681.269 700.009 679.123 703.209V703.391ZM643.267 812.487L637.594 810.45C639.885 807.323 642.104 804.086 644.249 800.777C643.813 804.414 643.376 808.305 643.376 812.196L643.267 812.487ZM589.92 725.465C592.627 717.802 594.659 709.917 595.993 701.9L660.977 712.81C658.959 724.77 655.917 736.535 651.886 747.975L589.92 725.465ZM636.685 781.031C630.747 791.485 623.909 801.402 616.248 810.668L565.591 768.485C570.788 762.22 575.413 755.502 579.41 748.411L636.685 781.031ZM660.359 641.134C662.615 652.933 663.832 664.906 663.996 676.917L598.102 677.572C598.039 669.422 597.26 661.294 595.775 653.28L660.359 641.134ZM589.12 629.752C586.287 622.105 582.795 614.72 578.683 607.678L635.449 574.15C641.481 584.491 646.615 595.332 650.795 606.551L589.12 629.752ZM506.389 810.487L529.226 872.307C517.993 876.469 506.423 879.657 494.643 881.835L482.897 816.923C490.904 815.415 498.764 813.213 506.389 810.341V810.487ZM528.499 799.977C535.548 795.862 542.217 791.128 548.427 785.831L590.902 836.16C581.763 843.927 571.968 850.887 561.628 856.961L528.499 799.977ZM626.394 824.414L642.94 830.342C643.412 851.224 646.815 871.936 653.05 891.872L579.519 865.507C596.996 854.021 612.775 840.14 626.394 824.269V824.414ZM662.941 862.416C660.761 850.61 659.617 838.637 659.523 826.633L725.38 826.124C725.458 834.26 726.237 842.376 727.707 850.379L662.941 862.416ZM734.289 873.835C737.129 881.478 740.621 888.863 744.726 895.908L687.887 929.328C681.867 918.973 676.745 908.12 672.578 896.89L734.289 873.835ZM751.49 783.976L906.515 710.446L979.5 865.762L824.329 939.292L751.49 783.976ZM1151.25 901.727L1093.98 869.216C1099.88 858.744 1106.69 848.814 1114.34 839.542L1165.07 881.617C1159.84 887.904 1155.17 894.633 1151.11 901.727H1151.25ZM1134.92 947.692L1069.98 936.783C1071.96 924.902 1074.99 913.22 1079.03 901.872L1141.14 923.691C1138.31 931.486 1136.18 939.518 1134.78 947.692H1134.92ZM1104.45 825.469L1087.94 819.541C1087.39 798.715 1083.94 778.068 1077.69 758.193L1151.22 784.558C1133.73 795.923 1117.94 809.695 1104.3 825.469H1104.45ZM1086.45 849.106C1086.89 845.179 1087.25 841.288 1087.47 837.36L1093.14 839.397C1090.67 842.706 1088.59 845.943 1086.45 849.106ZM1050.67 958.202L1044.99 956.165C1047.3 952.989 1049.51 949.753 1051.65 946.456C1051.14 950.42 1050.67 954.311 1050.67 958.202ZM997.318 871.289C1000.03 863.629 1002.07 855.743 1003.39 847.724L1068.38 858.634C1066.37 870.6 1063.31 882.366 1059.25 893.799L997.318 871.289ZM1044.08 926.891C1038.13 937.326 1031.3 947.23 1023.65 956.493L972.917 914.564C978.118 908.301 982.742 901.583 986.736 894.49L1044.08 926.891ZM1067.76 786.958C1070.01 798.769 1071.23 810.755 1071.39 822.778L1005.46 823.396C1005.4 815.258 1004.62 807.142 1003.14 799.141L1067.76 786.958ZM996.518 775.576C993.681 767.925 990.176 760.539 986.045 753.502L1042.81 719.974C1048.86 730.327 1054 741.179 1058.19 752.411L996.518 775.576ZM913.715 956.383L936.552 1018.2C925.319 1022.37 913.749 1025.55 901.969 1027.73L890.223 962.82C898.223 961.347 906.082 959.194 913.715 956.383ZM935.825 945.874C942.866 941.747 949.534 937.013 955.753 931.728L998.228 982.057C989.088 989.812 979.294 996.76 968.954 1002.82L935.825 945.874ZM1033.72 970.311L1050.27 976.239C1050.72 997.123 1054.13 1017.84 1060.38 1037.77L986.845 1011.4C1004.31 999.963 1020.09 986.131 1033.72 970.311ZM1182.05 864.234L1139.47 813.978C1148.55 806.21 1158.28 799.238 1168.56 793.14L1201.8 850.015C1194.82 854.179 1188.21 858.936 1182.05 864.234ZM1224.02 839.506L1201.07 777.685C1212.28 773.466 1223.84 770.242 1235.62 768.049L1247.51 832.924C1239.5 834.416 1231.64 836.618 1224.02 839.506ZM1342.35 776.376C1353.39 780.295 1364.08 785.162 1374.28 790.922L1341.77 848.525C1334.8 844.558 1327.5 841.2 1319.95 838.488H1319.55L1341.59 776.376H1342.35ZM1307.04 767.248L1296.13 832.378C1288.12 831.042 1280 830.385 1271.88 830.415L1271.44 764.376C1283.37 764.308 1295.29 765.319 1307.04 767.394V767.248ZM1262.06 747.938C1230.05 749.616 1198.79 758.161 1170.38 772.994L1069.98 736.992C1057.46 707.498 1038.75 681.043 1015.1 659.426L1262.06 747.938ZM996.591 665.39C1005.83 673.091 1014.35 681.611 1022.05 690.845L971.899 733.683C966.606 727.499 960.804 721.77 954.553 716.555L996.591 665.39ZM935.134 630.37C946.172 634.3 956.854 639.166 967.063 644.916L934.589 702.482C927.617 698.526 920.317 695.18 912.769 692.482H912.333L934.298 630.297L935.134 630.37ZM899.86 621.206L888.769 686.372C880.758 684.999 872.64 684.342 864.513 684.409L864.077 618.333C876.033 618.3 887.97 619.31 899.751 621.351L899.86 621.206ZM854.84 601.933C822.85 603.592 791.594 612.126 763.2 626.952L662.795 590.987C650.266 561.482 631.539 535.015 607.884 513.383L854.84 601.933ZM589.374 519.347C598.602 526.99 607.121 535.448 614.83 544.621L564.682 587.459C559.439 581.252 553.645 575.532 547.373 570.367L589.374 519.347ZM527.953 484.328C538.977 488.265 549.646 493.131 559.846 498.874L527.008 556.73C520.029 552.789 512.73 549.444 505.189 546.73H504.753L527.008 484.291L527.953 484.328ZM492.607 475.163L481.697 540.33C473.684 538.975 465.568 538.318 457.441 538.366L457.005 472.327C468.864 472.277 480.705 473.275 492.388 475.309L492.607 475.163ZM447.623 455.89C415.631 457.562 384.375 466.108 355.983 480.946L255.542 444.944C243.044 415.431 224.327 388.962 200.667 367.341L447.623 455.89ZM182.157 373.341C191.367 380.99 199.885 389.435 207.613 398.578L157.465 441.453C152.182 435.26 146.378 429.53 140.119 424.325L182.157 373.341ZM120.664 338.321C131.705 342.244 142.387 347.111 152.593 352.867L119.718 410.688C112.748 406.741 105.447 403.407 97.8993 400.724H97.4993L119.718 338.249L120.664 338.321ZM85.3533 329.158L74.4437 394.287C66.4296 392.944 58.314 392.3 50.1882 392.36L49.7519 326.285C61.5872 326.269 73.4015 327.279 85.0624 329.303L85.3533 329.158ZM40.3696 309.848C8.37775 311.52 -22.8782 320.066 -51.2706 334.903L-151.675 298.902C-164.213 269.422 -182.925 242.972 -206.55 221.335L40.3696 309.848ZM-225.096 227.299C-215.878 235.018 -207.359 243.536 -199.64 252.754L-249.824 295.629C-255.067 289.399 -260.86 283.654 -267.134 278.465L-225.096 227.299ZM-286.589 192.279C-275.549 196.202 -264.866 201.069 -254.661 206.825L-287.571 264.682C-294.546 260.734 -301.846 257.388 -309.39 254.682H-309.827L-287.571 192.206L-286.589 192.279ZM-321.9 183.115L-332.81 248.282C-340.835 246.926 -348.963 246.269 -357.101 246.318L-357.538 180.242C-345.715 180.227 -333.912 181.237 -322.264 183.261L-321.9 183.115ZM-366.884 163.842C-398.872 165.506 -430.127 174.039 -458.524 188.861L-558.964 152.896C-571.44 123.379 -590.146 96.9075 -613.803 75.2924L-366.884 163.842ZM-694.861 118.64C-701.844 114.708 -709.143 111.363 -716.68 108.639H-717.116L-694.861 46.2003L-694.206 46.4185C-683.177 50.3415 -672.507 55.2082 -662.314 60.9645L-694.861 118.64ZM-674.824 132.422L-632.858 81.5109C-623.657 89.1818 -615.139 97.6382 -607.403 106.785L-657.587 149.623C-662.787 143.392 -668.531 137.636 -674.751 132.422H-674.824ZM-643.368 169.442L-586.602 135.913C-580.557 146.254 -575.411 157.094 -571.219 168.314L-633.04 191.515C-635.823 183.879 -639.254 176.494 -643.295 169.442H-643.368ZM-626.385 215.08L-561.692 202.898C-559.436 214.696 -558.219 226.67 -558.055 238.681L-623.949 239.336C-624.058 231.199 -624.849 223.085 -626.313 215.08H-626.385ZM-673.66 347.595L-631.185 397.96C-640.318 405.724 -650.114 412.672 -660.459 418.725L-693.479 361.813C-686.436 357.662 -679.768 352.904 -673.551 347.595H-673.66ZM-715.662 372.287L-692.861 434.107C-704.081 438.281 -715.639 441.481 -727.408 443.671L-739.154 378.723C-731.114 377.269 -723.217 375.116 -715.553 372.287H-715.662ZM-833.594 435.089C-844.74 431.092 -855.51 426.115 -865.777 420.216L-833.048 362.65C-826.075 366.622 -818.776 369.992 -811.229 372.723L-833.412 435.162L-833.594 435.089ZM-798.72 444.181L-787.519 379.05C-779.521 380.431 -771.417 381.112 -763.3 381.087L-762.973 447.126C-774.952 447.21 -786.915 446.224 -798.72 444.181ZM-753.3 463.636C-721.311 461.941 -690.06 453.396 -661.659 438.58L-561.255 474.545C-548.743 504.06 -530.014 530.529 -506.344 552.149L-753.3 463.636ZM-488.089 545.93C-497.306 538.21 -505.824 529.692 -513.544 520.475L-463.288 477.709C-458.048 483.93 -452.268 489.674 -446.014 494.874L-488.089 545.93ZM-426.268 581.204C-437.424 577.161 -448.216 572.173 -458.524 566.295L-425.795 508.801C-418.778 512.83 -411.415 516.226 -403.794 518.947L-426.013 581.204H-426.268ZM-391.394 590.296L-380.157 525.166C-372.159 526.552 -364.054 527.221 -355.938 527.166L-355.61 593.241C-367.616 593.301 -379.603 592.29 -391.43 590.223L-391.394 590.296ZM-345.974 609.678C-313.973 607.988 -282.709 599.444 -254.297 584.623L-153.893 620.624C-141.381 650.119 -122.665 676.574 -99.0179 698.191L-345.974 609.678ZM-80.7263 691.972C-89.9348 684.243 -98.4522 675.725 -106.182 666.517L-55.9616 623.642C-50.7131 629.855 -44.9335 635.598 -38.6882 640.807L-80.7263 691.972ZM-18.9055 727.21C-30.0762 723.188 -40.8802 718.212 -51.1978 712.337L-18.4692 654.844C-11.44 658.85 -4.07922 662.245 3.53174 664.99L-18.7238 727.21H-18.9055ZM15.9686 736.302L27.2054 671.208C35.2075 672.558 43.3096 673.227 51.4246 673.208L51.7519 739.284C39.7379 739.364 27.7399 738.391 15.8959 736.374L15.9686 736.302ZM61.425 755.684C93.4297 754.019 124.699 745.473 153.102 730.629L253.469 766.63C265.981 796.136 284.696 822.603 308.344 844.233L61.425 755.684ZM326.6 837.979C317.381 830.26 308.863 821.741 301.144 812.523L351.364 769.83C356.595 776.048 362.376 781.781 368.638 786.958L326.6 837.979ZM388.421 873.253C377.223 869.254 366.403 864.264 356.092 858.343L388.82 800.85C395.861 804.869 403.234 808.276 410.858 811.032L388.602 873.289L388.421 873.253ZM423.258 882.344L434.495 817.214C442.492 818.6 450.598 819.27 458.714 819.214L459.005 885.29C447.011 885.349 435.036 884.339 423.222 882.271L423.258 882.344ZM468.824 901.654C500.824 899.964 532.089 891.42 560.5 876.598L660.905 912.6C673.407 942.1 692.124 968.557 715.779 990.167L468.824 901.654ZM734.035 983.948C724.825 976.22 716.308 967.702 708.579 958.493L758.836 915.727C764.065 921.957 769.847 927.701 776.109 932.892L734.035 983.948ZM795.855 1019.22C784.684 1015.19 773.88 1010.2 763.563 1004.31L796.292 946.819C803.329 950.834 810.703 954.229 818.329 956.965L796.074 1019.22H795.855ZM830.73 1028.31L841.93 963.184C849.93 964.549 858.034 965.218 866.149 965.184L866.477 1031.26C854.437 1031.33 842.414 1030.35 830.548 1028.31H830.73ZM876.113 1047.7C908.114 1046.01 939.378 1037.46 967.79 1022.64L1068.19 1058.61C1080.64 1088.16 1099.31 1114.69 1122.92 1136.39L876.113 1047.7ZM1141.32 1129.95C1132.1 1122.24 1123.59 1113.72 1115.87 1104.5L1166.09 1061.73C1171.34 1067.95 1177.13 1073.7 1183.4 1078.9L1141.32 1129.95ZM1203.15 1165.23C1191.97 1161.22 1181.16 1156.24 1170.85 1150.36L1203.4 1092.75C1210.45 1096.75 1217.82 1100.14 1225.44 1102.9L1203.4 1165.48L1203.15 1165.23Z" fill="#2B2D2C"/>
</g>
</g>
</svg>
