<svg width="1440" height="1299" viewBox="0 0 1440 1299" fill="none" xmlns="http://www.w3.org/2000/svg">
<g opacity="0.07">
<path d="M1798.29 207.476L1760.5 273.915L1710.83 249.077L1769.63 145.764L1812.69 167.256L1822.87 138.855L-319.037 -629.032L-328.201 -603.576L-303.218 -594.485L-343.984 -483.426L-368.13 -492.226L-377.258 -466.771L1764.65 301.116L1798.29 207.476ZM-279.945 -457.607L-329.619 -482.408L-270.817 -585.757L-221.179 -560.92L-279.945 -457.607ZM-197.796 -430.878L-250.125 -449.934L-209.396 -560.993L-157.031 -541.865L-197.796 -430.878ZM-172.158 -419.969L-144.994 -535.355L-91.355 -520.809L-118.556 -405.423L-172.158 -419.969ZM-52.4807 -378.912L-104.774 -397.968L-64.0448 -509.027L-11.7154 -489.972L-52.4807 -378.912ZM11.5583 -353.239L-38.1165 -378.076L20.686 -481.389L70.3244 -456.552L11.5583 -353.239ZM93.7072 -326.51L41.3778 -345.493L82.1067 -456.552L134.436 -437.497L93.7072 -326.51ZM119.163 -315.601L146.364 -430.987L200.002 -416.441L172.801 -301.055L119.163 -315.601ZM238.877 -274.544L186.547 -293.636L227.276 -404.695L279.715 -385.494L238.877 -274.544ZM302.916 -248.871L253.241 -273.708L312.007 -377.021L361.682 -352.184L302.916 -248.871ZM385.174 -221.851L332.844 -240.943L373.573 -352.002L425.903 -332.947L385.174 -221.851ZM410.629 -210.942L437.794 -326.292L491.433 -311.746L464.268 -196.323L410.629 -210.942ZM530.634 -169.776L478.305 -188.832L519.034 -299.891L571.363 -280.836L530.634 -169.776ZM594.637 -144.103L544.999 -168.904L603.765 -272.217L653.294 -247.307L594.637 -144.103ZM676.786 -117.374L624.456 -136.43L665.185 -247.307L717.515 -228.252L676.786 -117.374ZM702.242 -106.465L729.443 -221.851L783.118 -207.305L756.098 -91.6642L702.242 -106.465ZM821.956 -65.4085L769.626 -84.4638L810.355 -195.523L862.685 -176.468L821.956 -65.4085ZM885.958 -39.7347L836.283 -64.5721L895.086 -167.885L944.724 -143.048L885.958 -39.7347ZM968.107 -13.0063L915.778 -32.0616L956.507 -143.121L1008.84 -124.065L968.107 -13.0063ZM993.563 -2.0968L1020.73 -117.483L1074.4 -102.937L1047.2 12.4493L993.563 -2.0968ZM1113.28 38.9595L1060.98 19.9042L1101.93 -90.9368L1154.22 -71.9178L1113.28 38.9595ZM1177.28 64.5969L1127.86 39.9777L1186.63 -63.3357L1236.3 -38.4982L1177.28 64.5969ZM1259.46 91.3617L1207.35 72.7064L1248.12 -38.3528L1300.41 -19.3339L1259.46 91.3617ZM1284.92 102.271L1312.48 -12.6791L1366.12 1.867L1338.96 117.254L1284.92 102.271ZM1404.63 143.291L1352.3 124.236L1393.03 13.1766L1445.73 32.7047L1404.63 143.291ZM1468.67 168.965L1419 144.164L1477.76 40.8504L1527.44 65.6879L1468.67 168.965ZM1551.19 196.348L1498.86 177.256L1539.59 66.197L1591.91 85.2524L1551.19 196.348ZM1576.64 207.257L1603.84 91.8707L1657.48 106.417L1630.43 221.803L1576.64 207.257ZM1696.39 248.314L1644.14 229.076L1684.9 118.017L1737.23 137.073L1696.39 248.314Z" fill="#C4C4C4"/>
<path d="M1844.25 79.325L1522.1 -36.1709L1556.1 -66.8994L1857.93 41.2869L1874.33 -4.42407L1828.29 -312.473L1882.51 -293.018L1910.51 -105.483L2029.5 -437.351L1887.67 -309.455L1833.49 -328.874L2065.72 -538.228L2081.72 -582.884L1779.34 -691.289L1772.58 -736.6L2095.36 -620.886L2102.63 -641.614L-39.2784 -1409.54L-46.5514 -1388.77L286.99 -1269.17L252.952 -1238.48L-49.7516 -1347.21L-53.3881 -1370.41L-69.0978 -1326.77L-19.2412 -993.12L-73.4616 -1012.54L-105.136 -1225.53L-239.505 -850.968L-78.5164 -996.211L-24.3323 -976.792L-275.725 -749.946L-291.398 -706.308L-272.997 -722.89L29.8517 -614.304L36.6156 -568.993L-297.653 -688.998L-304.926 -668.27L1836.98 99.653L1844.25 79.325ZM1855.16 16.9587L1574.64 -83.6637L1608.68 -114.356L1848.47 -28.3887L1855.16 16.9587ZM1844.69 -53.0806L1627.23 -130.938L1661.26 -161.667L1838.04 -98.2097L1844.69 -53.0806ZM1834.22 -123.12L1679.77 -178.504L1713.78 -209.233L1827.53 -168.431L1834.22 -123.12ZM1823.74 -193.159L1732.29 -225.888L1766.29 -256.58L1816.98 -238.397L1823.74 -193.159ZM1813.31 -263.198L1784.83 -273.417L1808.58 -294.836L1813.31 -263.198ZM1829.49 -354.948L1824.76 -386.585L1853.24 -376.367L1829.49 -354.948ZM1871.78 -393.131L1821.09 -411.314L1814.33 -456.625L1905.82 -423.896L1871.78 -393.131ZM1924.37 -440.406L1810.69 -481.317L1803.93 -526.664L1958.48 -471.28L1924.37 -440.406ZM1976.95 -487.862L1800.14 -551.247L1793.38 -596.558L2010.95 -518.555L1976.95 -487.862ZM2063.54 -566.011L2029.53 -535.282L1789.52 -621.25L1782.76 -666.597L2063.54 -566.011ZM1809.93 -337.165L1755.71 -356.584L1716.9 -616.522L1521.8 -440.442L1467.58 -459.898L1753.12 -717.545L1809.93 -337.165ZM1261.58 -262.217L1295.61 -292.909L1472.38 -229.561L1479.15 -184.213L1261.58 -262.217ZM1482.86 -159.485L1489.62 -114.174L1208.85 -214.796L1242.85 -245.489L1482.86 -159.485ZM1314.16 -309.673L1348.2 -340.365L1461.58 -299.6L1468.38 -254.253L1314.16 -309.673ZM1366.74 -356.948L1400.78 -387.676L1451.47 -369.494L1457.95 -324.328L1366.74 -356.948ZM1419.33 -404.404L1443.04 -425.823L1447.77 -394.222L1419.33 -404.404ZM1645.45 -649.687L1611.41 -618.995L1434.64 -682.38L1427.87 -727.69L1645.45 -649.687ZM1424.16 -752.419L1417.4 -797.766L1697.96 -697.289L1663.92 -666.597L1424.16 -752.419ZM1592.86 -602.267L1558.82 -571.575L1445.11 -612.34L1438.35 -657.688L1592.86 -602.267ZM1540.28 -554.992L1506.28 -524.3L1455.37 -542.483L1448.6 -587.794L1540.28 -554.992ZM1487.69 -507.718L1463.95 -486.299L1459.26 -517.9L1487.69 -507.718ZM1750.58 -744.928L1716.58 -714.235L1413.55 -822.604L1406.75 -867.951L1750.58 -744.928ZM1444.38 -468.552L1390.16 -488.008L1351.4 -747.909L1156.12 -571.757L1101.9 -591.176L1387.47 -848.823L1444.38 -468.552ZM895.597 -393.349L929.635 -424.078L1106.41 -360.693L1113.17 -315.346L895.597 -393.349ZM1116.84 -290.654L1123.61 -245.343L843.013 -345.929L877.014 -376.621L1116.84 -290.654ZM948.181 -440.806L982.182 -471.534L1095.93 -430.733L1102.7 -385.494L948.181 -440.806ZM1000.76 -488.262L1034.77 -518.955L1085.46 -500.772L1092.22 -455.461L1000.76 -488.262ZM1053.31 -535.719L1077.06 -557.138L1081.75 -525.5L1053.31 -535.719ZM1279.43 -781.002L1245.39 -750.31L1068.62 -813.694L1061.86 -859.005L1279.43 -781.002ZM1058.19 -883.697L1051.42 -929.044L1332.01 -828.458L1297.94 -797.73L1058.19 -883.697ZM1226.85 -733.582L1192.85 -702.853L1079.1 -743.655L1072.48 -788.966L1226.85 -733.582ZM1174.3 -686.125L1140.3 -655.433L1089.57 -673.616L1082.8 -718.926L1174.3 -686.125ZM1121.75 -638.85L1097.93 -617.25L1093.2 -648.887L1121.75 -638.85ZM1384.6 -876.06L1350.6 -845.368L1047.75 -953.954L1040.98 -999.265L1384.6 -876.06ZM1078.44 -599.685L1024.22 -619.104L985.382 -878.97L790.247 -702.889L736.026 -722.345L1021.57 -979.992L1078.44 -599.685ZM529.763 -524.518L563.801 -555.211L740.572 -491.862L747.336 -446.515L529.763 -524.518ZM751.009 -421.86L757.773 -376.549L477.179 -477.062L511.217 -507.79L751.009 -421.86ZM582.347 -572.048L616.385 -602.74L730.099 -561.974L736.863 -516.409L582.347 -572.048ZM634.895 -619.504L668.933 -650.196L719.626 -632.014L726.426 -586.703L634.895 -619.504ZM687.479 -666.779L711.225 -688.198L715.953 -656.597L687.479 -666.779ZM913.598 -912.062L879.742 -881.442L702.971 -944.827L696.207 -990.138L913.598 -912.062ZM692.352 -1014.79L685.588 -1060.14L966.182 -959.518L932.18 -928.826L692.352 -1014.79ZM861.05 -864.642L827.012 -833.949L713.262 -874.715L706.498 -920.062L861.05 -864.642ZM808.466 -817.258L774.283 -786.566L723.59 -804.748L716.826 -850.059L808.466 -817.258ZM755.882 -769.983L732.135 -748.564L727.444 -780.165L755.882 -769.983ZM1018.77 -1007.19L984.764 -976.501L681.879 -1085.05L675.151 -1130.36L1018.77 -1007.19ZM712.571 -730.818L658.351 -750.237L619.549 -1010.17L424.45 -834.059L370.193 -853.478L655.769 -1111.12L712.571 -730.818ZM163.93 -655.651L197.968 -686.38L374.739 -622.995L381.539 -577.648L163.93 -655.651ZM385.176 -552.774L391.939 -507.463L111.346 -608.049L145.347 -638.741L385.176 -552.774ZM216.478 -702.926L250.515 -733.618L364.229 -692.853L371.029 -647.542L216.478 -702.926ZM269.062 -750.201L303.099 -780.893L353.792 -762.71L360.556 -717.399L269.062 -750.201ZM321.646 -797.657L345.392 -819.076L350.083 -787.438L321.646 -797.657ZM547.728 -1042.94L513.726 -1012.25L336.955 -1075.63L330.191 -1120.94L547.728 -1042.94ZM326.482 -1145.64L319.718 -1191.35L600.275 -1090.76L566.274 -1060.03L326.482 -1145.64ZM495.18 -995.52L461.142 -964.791L347.429 -1005.56L340.628 -1050.9L495.18 -995.52ZM442.596 -948.245L408.558 -917.553L357.865 -935.735L351.101 -981.046L442.596 -948.245ZM390.012 -900.789L366.266 -879.37L361.575 -910.971L390.012 -900.789ZM652.932 -1138.25L618.931 -1107.56L316.082 -1216.07L309.318 -1261.39L652.932 -1138.25ZM289.935 -1242.37L346.738 -861.878L292.554 -881.333L253.716 -1141.27L58.6166 -965.191L4.39612 -984.647L289.935 -1242.37ZM-46.0787 -1322.37L234.551 -1221.89L200.513 -1191.2L-39.4966 -1277.17L-46.0787 -1322.37ZM-35.6055 -1252.33L181.967 -1174.33L147.966 -1143.64L-28.8052 -1207.02L-35.6055 -1252.33ZM-25.1324 -1182.29L129.383 -1126.91L95.3817 -1096.21L-18.4775 -1137.09L-25.1324 -1182.29ZM-14.6592 -1112.25L76.7991 -1079.52L42.7978 -1048.83L-7.93167 -1067.01L-14.6592 -1112.25ZM-4.22241 -1042.21L24.2515 -1031.99L0.505066 -1010.61L-4.22241 -1042.21ZM-20.4049 -950.463L-15.6774 -918.862L-43.9331 -929.153L-20.4049 -950.463ZM-62.6976 -912.425L-12.0045 -894.243L-5.24063 -848.932L-96.7354 -881.661L-62.6976 -912.425ZM-115.282 -864.969L-1.53137 -824.204L5.23254 -778.856L-149.392 -834.277L-115.282 -864.969ZM-167.866 -817.694L8.94177 -754.31L15.7057 -708.999L-201.903 -787.002L-167.866 -817.694ZM-254.451 -739.546L-220.413 -770.238L19.3786 -684.271L26.1425 -638.96L-254.451 -739.546ZM-0.840424 -968.391L53.38 -948.972L92.1816 -689.034L287.281 -865.114L341.537 -845.477L55.9619 -587.83L-0.840424 -968.391ZM58.7984 -561.102L92.7998 -591.83L395.685 -483.244L402.449 -437.897L58.7984 -561.102ZM364.993 -837.477L419.177 -818.058L457.906 -557.72L653.041 -733.763L707.262 -714.344L421.686 -456.697L364.993 -837.477ZM424.632 -430.187L458.633 -460.879L761.482 -352.329L768.246 -306.982L424.632 -430.187ZM730.79 -706.562L785.192 -686.489L823.994 -426.551L1019.13 -602.631L1073.35 -583.175L787.774 -325.528L730.79 -706.562ZM790.429 -299.273L824.43 -330.001L1127.32 -221.415L1134.08 -176.104L790.429 -299.273ZM1096.62 -575.648L1150.81 -556.229L1189.65 -296.291L1384.78 -472.334L1438.96 -452.915L1153.43 -195.268L1096.62 -575.648ZM1156.12 -167.304L1190.12 -197.996L1492.97 -89.4458L1499.73 -44.0984L1156.12 -167.304ZM1462.27 -443.679L1516.5 -424.223L1555.33 -164.285L1750.43 -340.365L1804.65 -320.91L1519.11 -63.2629L1462.27 -443.679Z" fill="#C4C4C4"/>
<path d="M1046.7 39.9777L984.729 56.0874L947.164 4.30347L914.035 -7.58789L976.62 78.7065L1079.79 51.8327L1046.7 39.9777Z" fill="#C4C4C4"/>
<path d="M1339.8 145.036L1277.87 161.146L1240.3 109.362L1207.14 97.4708L1269.76 183.802L1372.93 156.928L1339.8 145.036Z" fill="#C4C4C4"/>
<path d="M1759.27 316.316L1738.76 288.097L1720.65 281.588L1549.48 326.171L1445.66 183.002L1427.55 176.492L1256.38 221.076L1152.55 77.9064L1134.41 71.3972L963.273 115.981L859.414 -27.1888L841.304 -33.6618L670.134 10.8855L566.311 -132.248L548.165 -138.757L377.031 -94.1734L273.172 -237.343L255.062 -243.852L83.9275 -199.269L-19.9678 -342.438L-38.0776 -348.948L-209.212 -304.364L-313.071 -447.533L-331.181 -454.006L-386.965 -439.497L-395.074 -416.878L-328.017 -434.333L-217.321 -281.745L-34.9138 -329.274L75.818 -176.65L258.226 -224.179L368.921 -71.5906L551.329 -119.083L662.024 33.5046L844.468 -13.9882L955.164 138.6L1137.57 91.107L1248.27 243.695L1430.71 196.166L1541.41 348.754L1723.85 301.261L1751.16 338.972L1759.27 316.316Z" fill="#C4C4C4"/>
<path d="M1737.81 376.21L1713.67 342.935L1709.45 341.408L1705.19 339.917L1528.02 386.064L1420.53 237.84L1416.31 236.349L1412.09 234.822L1234.92 280.969L1127.42 132.781L1123.17 131.254L1118.95 129.727L941.781 175.91L834.286 27.6859L830.067 26.1587L825.849 24.6677L648.641 70.8151L541.146 -77.4093L536.964 -78.9367L532.709 -80.4276L355.538 -34.2803L248.043 -182.505L243.825 -184.032L239.606 -185.523L62.4353 -139.376L-45.0965 -287.563L-49.3148 -289.091L-53.5332 -290.618L-230.704 -244.434L-338.2 -392.659L-342.418 -394.186L-346.636 -395.677L-408.457 -379.604L-416.566 -356.985L-349.473 -374.44L-238.814 -221.852L-56.3696 -269.345L54.3259 -116.756L236.77 -164.249L347.429 -11.6612L529.873 -59.154L640.568 93.3978L822.976 45.9049L933.671 198.493L1116.12 151L1226.81 303.588L1409.22 256.095L1519.91 408.684L1702.36 361.191L1729.7 398.865L1737.81 376.21Z" fill="#C4C4C4"/>
<path d="M1716.32 436.14L1692.17 402.829L1687.96 401.302L1683.74 399.811L1506.53 445.958L1399.03 297.77L1394.85 296.243L1390.6 294.715L1213.43 340.899L1105.93 192.675L1101.71 191.148L1097.49 189.657L920.287 235.804L812.828 87.5796L808.61 86.0523L804.392 84.5614L627.184 130.709L519.689 -17.5156L515.471 -19.043L511.252 -20.534L334.045 25.6134L226.55 -122.575L222.368 -124.102L218.113 -125.629L40.9418 -79.4455L-66.5535 -227.67L-70.7719 -229.197L-74.9902 -230.688L-252.161 -184.541L-359.657 -332.765L-363.875 -334.292L-368.093 -335.783L-429.914 -319.674L-438.023 -297.054L-370.966 -314.51L-260.271 -161.922L-77.863 -209.451L32.8688 -56.8263L215.276 -104.356L325.972 48.2325L508.379 0.739655L619.075 153.328L801.519 105.835L912.214 258.423L1094.62 210.894L1205.32 363.518L1387.76 315.989L1498.42 468.577L1680.86 421.084L1708.21 458.759L1716.32 436.14Z" fill="#C4C4C4"/>
<path d="M1694.83 496.033L1670.68 462.759L1666.5 461.232L1662.24 459.704L1485.07 505.888L1377.58 357.663L1373.36 356.136L1369.14 354.645L1191.93 400.792L1084.48 252.568L1080.22 251.041L1076 249.55L898.832 295.697L791.336 147.473L787.118 145.946L782.9 144.455L605.692 190.602L498.197 42.4141L494.015 40.8867L489.76 39.3593L312.589 85.5431L205.094 -62.6813L200.875 -64.2085L196.657 -65.6995L19.4861 -19.5522L-88.0457 -167.777L-92.264 -169.304L-96.4824 -170.795L-273.653 -124.647L-381.149 -272.872L-385.367 -274.363L-389.585 -275.89L-451.406 -259.78L-459.516 -237.161L-392.422 -254.616L-281.763 -102.028L-99.3553 -149.521L11.3766 3.06699L193.784 -44.4259L304.48 108.162L486.924 60.633L597.583 213.221L780.027 165.728L890.722 318.316L1073.13 270.823L1183.86 423.412L1366.27 375.919L1476.96 528.507L1659.41 480.978L1686.76 518.652L1694.83 496.033Z" fill="#C4C4C4"/>
<path d="M1673.38 555.963L1649.23 522.652L1645.01 521.125L1640.76 519.634L1463.59 565.781L1356.09 417.557L1351.91 416.029L1347.65 414.539L1170.48 460.686L1062.99 312.498L1058.77 310.971L1054.55 309.443L877.38 355.591L769.848 207.403L765.666 205.875L761.411 204.384L584.24 250.495L476.745 102.307L472.527 100.78L468.272 99.2891L291.101 145.436L183.606 -2.78787L179.424 -4.31514L175.169 -5.80612L-2.0022 40.3412L-109.498 -107.847L-113.716 -109.374L-117.934 -110.901L-295.105 -64.754L-402.637 -212.942L-406.819 -214.469L-411.037 -215.96L-472.858 -199.887L-481.004 -177.268L-413.91 -194.723L-303.215 -42.1349L-120.807 -89.6279L-10.1116 62.9604L172.332 15.4675L282.991 168.056L465.435 120.526L576.131 273.114L758.575 225.622L869.234 378.21L1051.68 330.717L1162.37 483.305L1344.82 435.812L1455.48 588.4L1637.92 540.907L1665.27 578.582L1673.38 555.963Z" fill="#C4C4C4"/>
<path d="M1651.92 615.856L1627.74 582.546L1623.52 581.018L1619.3 579.527L1442.13 625.675L1334.63 477.487L1330.42 475.959L1326.2 474.432L1148.99 520.579L1041.49 372.391L1037.28 370.864L1033.06 369.373L855.886 415.52L748.391 267.296L744.173 265.769L739.954 264.278L562.747 310.425L455.251 162.201L451.033 160.673L446.815 159.182L269.644 205.33L162.112 57.1419L157.93 55.6145L153.712 54.0872L-23.4593 100.271L-130.991 -47.9534L-135.209 -49.4808L-139.428 -50.9718L-316.599 -4.82439L-424.094 -153.049L-428.312 -154.576L-432.531 -156.067L-494.352 -139.957L-502.461 -117.338L-435.404 -134.83L-324.708 17.7947L-142.301 -29.7345L-31.5687 122.89L150.839 75.3608L261.534 227.949L443.978 180.456L554.637 333.044L737.081 285.515L847.777 438.139L1030.18 390.61L1140.88 543.198L1323.32 495.706L1434.02 648.294L1616.46 600.801L1643.77 638.475L1651.92 615.856Z" fill="#C4C4C4"/>
<path d="M1630.43 675.75L1606.28 642.475L1602.06 640.948L1597.81 639.457L1420.64 685.568L1313.14 537.38L1308.92 535.853L1304.7 534.362L1127.53 580.509L1020.04 432.285L1015.82 430.758L1011.6 429.267L834.394 475.414L726.899 327.226L722.68 325.699L718.462 324.171L541.291 370.319L433.796 222.131L429.577 220.603L425.323 219.076L248.152 265.26L140.656 117.036L136.438 115.508L132.22 114.017L-44.9514 160.165L-152.447 11.9403L-156.665 10.4129L-160.884 8.92191L-338.091 55.0693L-445.586 -93.155L-449.805 -94.646L-454.023 -96.1733L-515.844 -80.0636L-523.953 -57.4445L-456.859 -74.8997L-346.164 77.6884L-163.756 30.1591L-53.0608 182.784L129.383 135.254L240.042 287.842L422.486 240.35L533.145 392.938L715.626 345.445L826.285 498.033L1008.73 450.504L1119.42 603.128L1301.87 555.599L1412.53 708.187L1594.97 660.694L1622.32 698.369L1630.43 675.75Z" fill="#C4C4C4"/>
<path d="M1608.93 735.643L1584.79 702.369L1580.57 700.841L1576.35 699.35L1399.14 745.498L1291.65 597.273L1287.47 595.746L1283.21 594.255L1106.04 640.403L998.545 492.215L994.326 490.651L990.108 489.16L812.937 535.344L705.442 387.119L701.223 385.592L697.005 384.101L519.798 430.248L412.302 282.024L408.084 280.497L403.866 279.006L226.695 325.153L119.163 176.929L114.981 175.401L110.763 173.91L-66.4449 220.058L-173.94 71.8336L-178.159 70.3062L-182.377 68.8152L-359.548 114.999L-467.043 -33.2254L-471.262 -34.7527L-475.48 -36.2437L-537.301 -20.1703L-545.41 2.4852L-478.353 -15.0064L-367.657 137.582L-185.25 90.0888L-74.5179 242.677L107.89 195.184L218.585 347.772L400.993 300.279L511.688 452.831L694.132 405.338L804.828 557.926L987.235 510.434L1097.93 663.022L1280.37 615.529L1391.03 768.117L1573.48 720.588L1600.82 758.298L1608.93 735.643Z" fill="#C4C4C4"/>
<path d="M1587.48 795.573L1563.33 762.298L1559.11 760.735L1554.86 759.244L1377.69 805.391L1270.19 657.203L1265.97 655.676L1261.76 654.185L1084.55 700.332L977.089 552.108L972.871 550.58L968.616 549.09L791.445 595.237L683.95 447.013L679.731 445.485L675.513 443.994L498.305 490.142L390.81 341.954L386.628 340.39L382.373 338.899L205.202 385.046L97.707 236.859L93.4887 235.331L89.2704 233.84L-87.9006 279.988L-195.432 131.763L-199.614 130.236L-203.869 128.745L-381.04 174.892L-488.535 26.6679L-492.754 25.1406L-496.972 23.6497L-558.793 39.7594L-566.902 62.3421L-499.809 44.9232L-405.659 174.747L-361.912 190.42L-206.706 149.982L-112.556 279.806L-68.8089 295.479L86.4339 255.077L180.583 384.901L224.33 400.574L379.537 360.173L473.723 489.996L517.434 505.67L672.676 465.268L766.826 595.055L810.573 610.765L965.78 570.327L1059.93 700.15L1103.68 715.824L1258.88 675.422L1353.07 805.246L1396.78 820.919L1552.02 780.517L1579.37 818.192L1587.48 795.573Z" fill="#C4C4C4"/>
<path d="M898.324 642.221L944.29 630.22L972.218 668.695L1005.35 680.586L955.599 612.001L951.381 610.474L947.162 608.983L865.195 630.329L898.324 642.221Z" fill="#C4C4C4"/>
<path d="M1191.46 747.316L1237.43 735.315L1265.32 773.79L1298.45 785.681L1248.7 717.096L1244.52 715.569L1240.26 714.078L1158.3 735.424L1191.46 747.316Z" fill="#C4C4C4"/>
<path d="M605.183 537.125L651.185 525.161L679.077 563.636L712.206 575.491L662.458 506.906L658.276 505.415L654.058 503.888L572.055 525.234L605.183 537.125Z" fill="#C4C4C4"/>
<path d="M312.082 432.03L358.047 420.066L385.939 458.54L419.104 470.395L369.357 401.847L365.138 400.32L360.92 398.792L278.953 420.139L312.082 432.03Z" fill="#C4C4C4"/>
<path d="M18.9776 326.971L64.9431 314.971L92.8352 353.445L125.964 365.3L76.2163 296.752L72.0343 295.225L67.7796 293.734L-14.1875 315.08L18.9776 326.971Z" fill="#C4C4C4"/>
<path d="M640.349 716.551L555.945 756.589L595.693 841.102L680.096 801.1L640.349 716.551Z" fill="#C4C4C4"/>
<path d="M1415.04 1276.39C1409.25 1275.92 1403.54 1275.23 1397.84 1274.25L1409.07 1209.01C1417.07 1210.37 1425.18 1211.01 1433.29 1210.94V1225.23L1459.15 1153.11L1391.65 1185.48L1318.63 1030.2L1473.69 956.379L1505.51 1024.05L1526.17 966.489C1524.68 965.18 1523.3 963.798 1521.77 962.525L1532.06 950.052L1557.51 878.485L-584.392 110.599L-592.829 134.527C-585.031 134.944 -577.262 135.781 -569.555 137.036L-580.647 202.312C-588.646 200.952 -596.751 200.307 -604.866 200.384L-605.084 168.783L-638.54 262.06L-562.9 226.204L-489.915 381.81L-644.94 455.159L-680.578 379.446L-702.397 440.503C-699.451 443.413 -696.397 446.176 -693.233 448.831L-714.688 474.796L-734.871 530.907L1407.04 1298.83L1415.04 1276.39ZM1311.9 1141.84L1255.07 1175.22C1249.02 1164.88 1243.9 1154.03 1239.76 1142.79L1301.58 1120.02C1304.4 1127.57 1307.85 1134.87 1311.9 1141.84ZM1295.03 1096.17L1230.27 1108.2C1228.09 1096.4 1226.94 1084.42 1226.85 1072.42L1292.7 1071.88C1292.78 1080.06 1293.55 1088.22 1295.03 1096.28V1096.17ZM-267.361 365.919C-274.371 370.071 -281.014 374.816 -287.216 380.101L-329.836 329.881C-320.714 322.082 -310.918 315.109 -300.562 309.043L-267.361 365.919ZM-268.234 293.588C-257.016 289.391 -245.457 286.167 -233.687 283.952L-221.795 348.863C-229.799 350.353 -237.659 352.53 -245.287 355.373L-268.234 293.588ZM-318.163 417.63L-375.474 385.119C-369.562 374.655 -362.748 364.726 -355.11 355.445L-304.381 397.483C-309.545 403.79 -314.156 410.531 -318.163 417.63ZM-334.527 463.559L-399.475 452.649C-397.468 440.785 -394.439 429.117 -390.42 417.775L-328.272 439.594C-331.048 447.386 -333.141 455.404 -334.527 463.559ZM-365.001 341.336L-381.511 335.445C-381.983 314.565 -385.373 293.855 -391.584 273.915L-318.09 300.243C-335.568 311.685 -351.358 325.517 -365.001 341.336ZM-417.731 462.395C-418.131 466.323 -418.494 470.25 -418.713 474.105L-424.385 472.105C-422.082 468.953 -419.864 465.716 -417.731 462.395ZM-381.838 353.3L-376.165 355.3C-378.456 358.5 -380.675 361.737 -382.856 365.009C-382.42 361.227 -382.129 357.3 -381.838 353.409V353.3ZM-410.094 409.593L-471.915 387.119C-469.2 379.478 -467.144 371.619 -465.769 363.628L-400.821 374.537C-402.86 386.511 -405.963 398.28 -410.094 409.702V409.593ZM-482.533 410.066L-425.295 442.794C-431.211 453.262 -438.051 463.181 -445.732 472.432L-496.352 430.285C-491.176 423.992 -486.552 417.263 -482.533 410.175V410.066ZM-435.586 486.178L-419.04 492.106C-418.55 512.986 -415.148 533.696 -408.93 553.635L-482.461 527.271C-464.971 515.859 -449.188 502.024 -435.586 486.178ZM-399.221 524.18C-401.402 512.375 -402.546 500.401 -402.639 488.396L-336.745 487.887C-336.697 496.024 -335.931 504.141 -334.454 512.143L-399.221 524.18ZM-328.018 535.744C-325.166 543.4 -321.662 550.797 -317.545 557.854L-374.42 591.237C-380.45 580.892 -385.561 570.038 -389.693 558.799L-328.018 535.744ZM-310.817 445.922L-155.793 372.355L-82.7713 527.671L-237.832 601.201L-310.817 445.922ZM139.783 511.961C132.759 516.11 126.104 520.855 119.892 526.143L77.308 475.923C86.3863 468.141 96.1198 461.157 106.4 455.05L139.783 511.961ZM138.911 439.631C150.123 435.417 161.683 432.192 173.457 429.994L185.349 494.869C177.349 496.388 169.49 498.578 161.857 501.415L138.911 439.631ZM89.1631 563.636L31.8516 531.125C37.7735 520.678 44.587 510.762 52.2161 501.488L102.945 543.526C97.7686 549.811 93.1566 556.54 89.1631 563.636ZM72.7624 609.601L7.85065 598.692C9.85303 586.815 12.8827 575.134 16.9055 563.781L79.0536 585.6C76.2645 593.403 74.1595 601.434 72.7624 609.601ZM42.3248 487.269L25.7786 481.341C25.319 460.461 21.9281 439.749 15.7054 419.812L89.2358 446.176C71.7499 457.607 55.9584 471.44 42.3248 487.269ZM24.3604 511.197C24.7968 507.234 25.2695 503.27 25.4877 499.306L31.1606 501.342C28.7969 504.688 26.5787 507.961 24.3604 511.306V511.197ZM-11.2047 620.147L-16.8777 618.111C-14.5503 614.947 -12.3684 611.565 -10.1865 608.256C-10.8047 612.22 -11.2047 616.183 -11.2047 620.147ZM-64.5524 533.235C-61.8411 525.585 -59.8089 517.712 -58.4794 509.706L6.50507 520.616C4.52087 532.571 1.47852 544.327 -2.58618 555.745L-64.5524 533.235ZM-17.7868 588.837C-23.7209 599.294 -30.5595 609.211 -38.224 618.474L-88.8443 576.291C-83.668 570.01 -79.0446 563.294 -75.0256 556.217L-17.7868 588.837ZM5.8869 448.94C8.14294 460.739 9.35974 472.712 9.52338 484.723L-56.3702 485.378C-56.4599 477.228 -57.2508 469.101 -58.734 461.086L5.8869 448.94ZM-65.3524 437.558C-68.1781 429.909 -71.6705 422.522 -75.7892 415.484L-19.205 381.81C-13.1738 392.256 -8.06342 403.207 -3.9317 414.539L-65.3524 437.558ZM-148.229 618.184L-125.428 680.004C-136.65 684.161 -148.208 687.349 -159.975 689.532L-171.757 624.62C-163.743 623.16 -155.87 621.006 -148.229 618.184ZM-126.155 607.674C-119.102 603.547 -112.422 598.814 -106.19 593.528L-63.7523 643.857C-72.8849 651.621 -82.6804 658.569 -93.0263 664.622L-126.155 607.674ZM-28.26 632.111L-11.7138 638.039C-11.2419 658.921 -7.83881 679.633 -1.60431 699.569L-75.1346 673.204C-57.6674 661.806 -41.8882 648.01 -28.26 632.22V632.111ZM8.32336 670.113C6.05249 658.317 4.83551 646.342 4.68683 634.33L70.5805 633.82C70.6237 641.959 71.4026 650.077 72.9079 658.076L8.32336 670.113ZM79.7081 681.786C82.5276 689.432 86.0076 696.818 90.1086 703.86L33.2698 737.243C27.254 726.89 22.1439 716.038 17.9965 704.805L79.7081 681.786ZM96.8361 591.928L251.897 518.398L324.918 673.677L169.857 747.243L96.8361 591.928ZM547.473 657.967C540.442 662.12 533.786 666.877 527.581 672.186L484.816 621.82C493.897 614.052 503.631 607.081 513.908 600.983L547.473 657.967ZM546.6 585.637C557.817 581.435 569.375 578.211 581.147 576L593.039 640.912C585.029 642.392 577.167 644.582 569.547 647.457L546.6 585.637ZM496.453 709.678L439.178 677.168C445.09 666.703 451.904 656.774 459.542 647.494L510.271 689.568C505.087 695.855 500.463 702.584 496.453 709.678ZM480.125 755.607L415.177 744.698C417.179 732.821 420.209 721.14 424.231 709.787L486.343 731.606C483.586 739.414 481.506 747.444 480.125 755.607ZM449.651 633.421L433.105 627.493C432.648 606.612 429.257 585.899 423.031 565.963L496.562 592.328C479.068 603.748 463.275 617.582 449.651 633.421ZM431.796 657.167C432.268 653.276 432.595 649.348 432.814 645.457L438.487 647.494C436.087 650.658 433.941 653.894 431.796 657.167ZM395.939 766.262L390.266 764.226C392.557 761.062 394.812 757.826 396.921 754.516C396.485 758.371 396.085 762.262 396.085 766.19L395.939 766.262ZM342.628 679.277C345.315 671.611 347.335 663.726 348.665 655.712L413.649 666.622C411.652 678.587 408.61 690.353 404.558 701.787L342.628 679.277ZM389.357 734.879C383.431 745.33 376.592 755.235 368.92 764.48L318.3 722.333C323.476 716.053 328.1 709.337 332.119 702.26L389.357 734.879ZM413.031 594.946C415.302 606.742 416.519 618.718 416.668 630.73L350.81 631.384C350.719 623.246 349.928 615.131 348.447 607.129L413.031 594.946ZM341.828 583.564C338.96 575.926 335.457 568.542 331.355 561.49L388.084 527.962C394.105 538.299 399.216 549.14 403.358 560.363L341.828 583.564ZM259.097 764.335L281.898 826.156C270.682 830.341 259.123 833.542 247.352 835.72L235.569 770.917C243.588 769.41 251.46 767.207 259.097 764.335ZM281.171 753.825C288.212 749.698 294.88 744.965 301.099 739.679L343.574 790.009C334.441 797.772 324.646 804.72 314.3 810.773L281.171 753.825ZM379.066 778.19L395.612 784.118C396.081 804.988 399.484 825.689 405.722 845.611L332.191 819.283C349.658 807.84 365.436 794.008 379.066 778.19ZM415.613 816.192C413.433 804.386 412.289 792.413 412.195 780.408L478.088 779.863C478.136 788.012 478.902 796.141 480.379 804.155L415.613 816.192ZM486.998 827.792C489.838 835.447 493.329 842.844 497.435 849.902L440.596 883.286C434.535 872.961 429.376 862.132 425.177 850.92L486.998 827.792ZM504.162 737.97L659.223 664.44L732.244 819.719L577.22 893.25L504.162 737.97ZM954.617 804.009C947.581 808.14 940.924 812.886 934.725 818.192L892.142 767.972C901.214 760.181 910.948 753.196 921.234 747.098L954.617 804.009ZM953.708 731.679C964.94 727.487 976.51 724.262 988.291 722.042L1000.18 786.954C992.178 788.439 984.318 790.617 976.691 793.464L953.708 731.679ZM903.779 855.721L846.504 823.21C852.391 812.73 859.206 802.799 866.868 793.536L917.779 835.574C912.531 841.867 907.846 848.608 903.779 855.721ZM887.414 901.832L822.503 890.922C824.492 879.054 827.522 867.385 831.557 856.048L893.669 877.867C890.911 885.664 888.818 893.681 887.414 901.832ZM856.977 779.608L840.431 773.681C839.971 752.8 836.58 732.088 830.358 712.151L903.888 738.188C886.392 749.664 870.6 763.547 856.977 779.427V779.608ZM839.121 803.391C839.558 799.5 839.885 795.573 840.14 791.645L845.813 793.682C843.376 796.664 841.267 800.009 839.121 803.209V803.391ZM803.265 912.487L797.592 910.45C799.883 907.323 802.102 904.086 804.247 900.777C803.811 904.414 803.375 908.305 803.375 912.196L803.265 912.487ZM749.918 825.465C752.625 817.802 754.657 809.917 755.991 801.9L820.975 812.81C818.957 824.77 815.915 836.535 811.884 847.975L749.918 825.465ZM796.683 881.031C790.745 891.485 783.907 901.402 776.246 910.668L725.589 868.485C730.786 862.22 735.411 855.502 739.408 848.411L796.683 881.031ZM820.357 741.134C822.613 752.933 823.83 764.906 823.994 776.917L758.1 777.572C758.037 769.422 757.258 761.294 755.773 753.28L820.357 741.134ZM749.118 729.752C746.285 722.105 742.793 714.72 738.681 707.678L795.447 674.15C801.479 684.491 806.613 695.332 810.793 706.551L749.118 729.752ZM666.387 910.487L689.224 972.307C677.991 976.469 666.421 979.657 654.641 981.835L642.895 916.923C650.902 915.415 658.762 913.213 666.387 910.341V910.487ZM688.497 899.977C695.546 895.862 702.215 891.128 708.425 885.831L750.9 936.16C741.761 943.927 731.966 950.887 721.626 956.961L688.497 899.977ZM786.392 924.414L802.938 930.342C803.41 951.224 806.813 971.936 813.048 991.872L739.517 965.507C756.994 954.021 772.773 940.14 786.392 924.269V924.414ZM822.939 962.416C820.759 950.61 819.615 938.637 819.521 926.633L885.378 926.124C885.456 934.26 886.235 942.376 887.705 950.379L822.939 962.416ZM894.287 973.835C897.127 981.478 900.619 988.863 904.724 995.908L847.885 1029.33C841.865 1018.97 836.743 1008.12 832.576 996.89L894.287 973.835ZM911.488 883.976L1066.51 810.446L1139.5 965.762L984.328 1039.29L911.488 883.976ZM1311.25 1001.73L1253.97 969.216C1259.88 958.744 1266.69 948.814 1274.34 939.542L1325.07 981.617C1319.84 987.904 1315.17 994.633 1311.1 1001.73H1311.25ZM1294.92 1047.69L1229.97 1036.78C1231.96 1024.9 1234.99 1013.22 1239.03 1001.87L1301.14 1023.69C1298.31 1031.49 1296.18 1039.52 1294.78 1047.69H1294.92ZM1264.45 925.469L1247.94 919.541C1247.38 898.715 1243.93 878.068 1237.68 858.193L1311.21 884.558C1293.73 895.923 1277.94 909.695 1264.3 925.469H1264.45ZM1246.45 949.106C1246.88 945.179 1247.25 941.288 1247.47 937.36L1253.14 939.397C1250.67 942.706 1248.59 945.943 1246.45 949.106ZM1210.66 1058.2L1204.99 1056.17C1207.29 1052.99 1209.51 1049.75 1211.65 1046.46C1211.14 1050.42 1210.66 1054.31 1210.66 1058.2ZM1157.32 971.289C1160.03 963.629 1162.06 955.743 1163.39 947.724L1228.37 958.634C1226.36 970.6 1223.31 982.366 1219.25 993.799L1157.32 971.289ZM1204.08 1026.89C1198.13 1037.33 1191.29 1047.23 1183.64 1056.49L1132.92 1014.56C1138.12 1008.3 1142.74 1001.58 1146.73 994.49L1204.08 1026.89ZM1227.76 886.958C1230.01 898.769 1231.23 910.755 1231.39 922.778L1165.46 923.396C1165.4 915.258 1164.62 907.142 1163.13 899.141L1227.76 886.958ZM1156.52 875.576C1153.68 867.925 1150.17 860.539 1146.04 853.502L1202.81 819.974C1208.85 830.327 1214 841.179 1218.19 852.411L1156.52 875.576ZM1073.71 1056.38L1096.55 1118.2C1085.32 1122.37 1073.75 1125.55 1061.97 1127.73L1050.22 1062.82C1058.22 1061.35 1066.08 1059.19 1073.71 1056.38ZM1095.82 1045.87C1102.86 1041.75 1109.53 1037.01 1115.75 1031.73L1158.23 1082.06C1149.09 1089.81 1139.29 1096.76 1128.95 1102.82L1095.82 1045.87ZM1193.72 1070.31L1210.26 1076.24C1210.72 1097.12 1214.12 1117.84 1220.37 1137.77L1146.84 1111.4C1164.31 1099.96 1180.09 1086.13 1193.72 1070.31ZM1342.05 964.234L1299.47 913.978C1308.55 906.21 1318.28 899.238 1328.56 893.14L1361.8 950.015C1354.82 954.179 1348.21 958.936 1342.05 964.234ZM1384.02 939.506L1361.07 877.685C1372.28 873.466 1383.84 870.242 1395.62 868.049L1407.51 932.924C1399.5 934.416 1391.64 936.618 1384.02 939.506ZM1502.35 876.376C1513.39 880.295 1524.07 885.162 1534.28 890.922L1501.77 948.525C1494.8 944.558 1487.5 941.2 1479.95 938.488H1479.55L1501.59 876.376H1502.35ZM1467.04 867.248L1456.13 932.378C1448.11 931.042 1440 930.385 1431.87 930.415L1431.44 864.376C1443.37 864.308 1455.29 865.319 1467.04 867.394V867.248ZM1422.05 847.938C1390.05 849.616 1358.79 858.161 1330.38 872.994L1229.97 836.992C1217.46 807.498 1198.75 781.043 1175.1 759.426L1422.05 847.938ZM1156.59 765.39C1165.82 773.091 1174.34 781.611 1182.04 790.845L1131.9 833.683C1126.6 827.499 1120.8 821.77 1114.55 816.555L1156.59 765.39ZM1095.13 730.37C1106.17 734.3 1116.85 739.166 1127.06 744.916L1094.59 802.482C1087.62 798.526 1080.32 795.18 1072.77 792.482H1072.33L1094.3 730.297L1095.13 730.37ZM1059.86 721.206L1048.77 786.372C1040.76 784.999 1032.64 784.342 1024.51 784.409L1024.07 718.333C1036.03 718.3 1047.97 719.31 1059.75 721.351L1059.86 721.206ZM1014.84 701.933C982.849 703.592 951.592 712.126 923.198 726.952L822.793 690.987C810.265 661.482 791.537 635.015 767.882 613.383L1014.84 701.933ZM749.372 619.347C758.6 626.99 767.12 635.448 774.828 644.621L724.68 687.459C719.437 681.252 713.643 675.532 707.371 670.367L749.372 619.347ZM687.952 584.328C698.975 588.265 709.644 593.131 719.844 598.874L687.006 656.73C680.027 652.789 672.728 649.444 665.187 646.73H664.751L687.006 584.291L687.952 584.328ZM652.605 575.163L641.695 640.33C633.682 638.975 625.566 638.318 617.439 638.366L617.003 572.327C628.862 572.277 640.703 573.275 652.386 575.309L652.605 575.163ZM607.621 555.89C575.629 557.562 544.373 566.108 515.981 580.946L415.54 544.944C403.042 515.431 384.325 488.962 360.665 467.341L607.621 555.89ZM342.155 473.341C351.365 480.99 359.883 489.435 367.611 498.578L317.464 541.453C312.18 535.26 306.376 529.53 300.117 524.325L342.155 473.341ZM280.662 438.321C291.703 442.244 302.385 447.111 312.591 452.867L279.716 510.688C272.746 506.741 265.445 503.407 257.897 500.724H257.497L279.716 438.249L280.662 438.321ZM245.351 429.158L234.442 494.287C226.428 492.944 218.312 492.3 210.186 492.36L209.75 426.285C221.585 426.269 233.4 427.279 245.06 429.303L245.351 429.158ZM200.368 409.848C168.376 411.52 137.12 420.066 108.727 434.903L8.32336 398.902C-4.21533 369.422 -22.9273 342.972 -46.5516 321.335L200.368 409.848ZM-65.0979 327.299C-55.8796 335.018 -47.3613 343.536 -39.6423 352.754L-89.8262 395.629C-95.0685 389.399 -100.862 383.654 -107.136 378.465L-65.0979 327.299ZM-126.591 292.279C-115.551 296.202 -104.868 301.069 -94.6627 306.825L-127.573 364.682C-134.548 360.734 -141.848 357.388 -149.392 354.682H-149.829L-127.573 292.206L-126.591 292.279ZM-161.902 283.115L-172.811 348.282C-180.837 346.926 -188.964 346.269 -197.103 346.318L-197.54 280.242C-185.717 280.227 -173.914 281.237 -162.266 283.261L-161.902 283.115ZM-206.886 263.842C-238.874 265.506 -270.129 274.039 -298.526 288.861L-398.966 252.896C-411.442 223.379 -430.148 196.908 -453.805 175.292L-206.886 263.842ZM-534.863 218.64C-541.846 214.708 -549.145 211.363 -556.682 208.639H-557.118L-534.863 146.2L-534.208 146.418C-523.179 150.342 -512.509 155.208 -502.316 160.965L-534.863 218.64ZM-514.826 232.422L-472.86 181.511C-463.659 189.182 -455.141 197.638 -447.405 206.785L-497.589 249.623C-502.789 243.392 -508.533 237.636 -514.753 232.422H-514.826ZM-483.37 269.442L-426.604 235.913C-420.559 246.254 -415.413 257.094 -411.221 268.314L-473.042 291.515C-475.825 283.879 -479.256 276.494 -483.297 269.442H-483.37ZM-466.387 315.08L-401.694 302.898C-399.438 314.696 -398.221 326.67 -398.057 338.681L-463.951 339.336C-464.06 331.199 -464.851 323.085 -466.315 315.08H-466.387ZM-513.662 447.595L-471.187 497.96C-480.32 505.724 -490.115 512.672 -500.461 518.725L-533.481 461.813C-526.438 457.662 -519.77 452.904 -513.553 447.595H-513.662ZM-555.664 472.287L-532.863 534.107C-544.083 538.281 -555.641 541.481 -567.41 543.671L-579.156 478.723C-571.116 477.269 -563.219 475.116 -555.555 472.287H-555.664ZM-673.596 535.089C-684.742 531.092 -695.512 526.115 -705.779 520.216L-673.05 462.65C-666.077 466.622 -658.777 469.992 -651.231 472.723L-673.414 535.162L-673.596 535.089ZM-638.722 544.181L-627.521 479.05C-619.522 480.431 -611.419 481.112 -603.302 481.087L-602.975 547.126C-614.954 547.21 -626.917 546.224 -638.722 544.181ZM-593.302 563.636C-561.313 561.941 -530.062 553.396 -501.661 538.58L-401.257 574.545C-388.745 604.06 -370.016 630.529 -346.346 652.149L-593.302 563.636ZM-328.091 645.93C-337.308 638.21 -345.826 629.692 -353.546 620.475L-303.29 577.709C-298.05 583.93 -292.27 589.674 -286.016 594.874L-328.091 645.93ZM-266.27 681.204C-277.426 677.161 -288.218 672.173 -298.526 666.295L-265.797 608.801C-258.78 612.83 -251.417 616.226 -243.796 618.947L-266.015 681.204H-266.27ZM-231.396 690.296L-220.159 625.166C-212.161 626.552 -204.056 627.221 -195.94 627.166L-195.612 693.241C-207.618 693.301 -219.605 692.29 -231.432 690.223L-231.396 690.296ZM-185.976 709.678C-153.975 707.988 -122.711 699.444 -94.2991 684.623L6.10504 720.624C18.6169 750.119 37.3327 776.574 60.9801 798.191L-185.976 709.678ZM79.2718 791.972C70.0633 784.243 61.5458 775.725 53.8162 766.517L104.036 723.642C109.285 729.855 115.065 735.598 121.31 740.807L79.2718 791.972ZM141.093 827.21C129.922 823.188 119.118 818.212 108.8 812.337L141.529 754.844C148.558 758.85 155.919 762.245 163.53 764.99L141.274 827.21H141.093ZM175.967 836.302L187.203 771.208C195.206 772.558 203.308 773.227 211.423 773.208L211.75 839.284C199.736 839.364 187.738 838.391 175.894 836.374L175.967 836.302ZM221.423 855.684C253.428 854.019 284.697 845.473 313.1 830.629L413.467 866.63C425.979 896.136 444.694 922.603 468.342 944.233L221.423 855.684ZM486.598 937.979C477.379 930.26 468.861 921.741 461.142 912.523L511.362 869.83C516.593 876.048 522.374 881.781 528.636 886.958L486.598 937.979ZM548.419 973.253C537.221 969.254 526.401 964.264 516.09 958.343L548.818 900.85C555.859 904.869 563.232 908.276 570.856 911.032L548.6 973.289L548.419 973.253ZM583.256 982.344L594.493 917.214C602.49 918.6 610.596 919.27 618.712 919.214L619.003 985.29C607.009 985.349 595.034 984.339 583.22 982.271L583.256 982.344ZM628.822 1001.65C660.822 999.964 692.087 991.42 720.498 976.598L820.903 1012.6C833.405 1042.1 852.122 1068.56 875.777 1090.17L628.822 1001.65ZM894.033 1083.95C884.823 1076.22 876.306 1067.7 868.577 1058.49L918.834 1015.73C924.063 1021.96 929.845 1027.7 936.107 1032.89L894.033 1083.95ZM955.854 1119.22C944.682 1115.19 933.878 1110.2 923.561 1104.31L956.29 1046.82C963.328 1050.83 970.701 1054.23 978.327 1056.97L956.072 1119.22H955.854ZM990.728 1128.31L1001.93 1063.18C1009.93 1064.55 1018.03 1065.22 1026.15 1065.18L1026.47 1131.26C1014.44 1131.33 1002.41 1130.35 990.546 1128.31H990.728ZM1036.11 1147.7C1068.11 1146.01 1099.38 1137.46 1127.79 1122.64L1228.19 1158.61C1240.64 1188.16 1259.3 1214.69 1282.92 1236.39L1036.11 1147.7ZM1301.32 1229.95C1292.1 1222.24 1283.58 1213.72 1275.87 1204.5L1326.09 1161.73C1331.34 1167.95 1337.13 1173.7 1343.4 1178.9L1301.32 1229.95ZM1363.14 1265.23C1351.97 1261.22 1341.16 1256.24 1330.85 1250.36L1363.4 1192.75C1370.45 1196.75 1377.82 1200.14 1385.44 1202.9L1363.4 1265.48L1363.14 1265.23Z" fill="#C4C4C4"/>
<path d="M233.025 570.509L148.621 610.547L188.368 695.059L272.772 655.058L233.025 570.509Z" fill="#C4C4C4"/>
<path d="M1047.68 862.594L963.273 902.632L1003.02 987.144L1087.39 947.106L1047.68 862.594Z" fill="#C4C4C4"/>
<path d="M1486.82 1076.31L1455 1008.64L1370.6 1048.64L1410.34 1133.19L1477.95 1101.11L1486.82 1076.31Z" fill="#C4C4C4"/>
</g>
</svg>
