<svg width="20" height="20" viewBox="0 0 20 20" fill="none" xmlns="http://www.w3.org/2000/svg">
<path fill-rule="evenodd" clip-rule="evenodd" d="M2 0C0.895431 0 0 0.895431 0 2V18C0 19.1046 0.895431 20 2 20H10.4978V13.1125H8.87014V10.3959H10.4978V8.17427C10.4978 8.16604 10.4977 8.15686 10.4977 8.14678C10.4959 7.65923 10.4862 5.04907 13.9235 5.04925H16.4004V7.87737H14.5787C14.2184 7.87737 13.8539 8.2508 13.8539 8.52842V10.3859H16.3968C16.295 11.8101 16.0849 13.1127 16.0849 13.1127H13.8412V20H18C19.1046 20 20 19.1046 20 18V2C20 0.895431 19.1046 0 18 0H2Z" fill="#C4C4C4"/>
</svg>
