<svg width="11" height="19" viewBox="0 0 11 19" fill="none" xmlns="http://www.w3.org/2000/svg">
<path d="M10.1298 0.00394227L7.60504 0C4.76857 0 2.93552 1.8302 2.93552 4.66291V6.81283H0.396993C0.177634 6.81283 0 6.98589 0 7.19937V10.3143C0 10.5278 0.177837 10.7007 0.396993 10.7007H2.93552V18.5608C2.93552 18.7743 3.11315 18.9471 3.33251 18.9471H6.64456C6.86392 18.9471 7.04156 18.7741 7.04156 18.5608V10.7007H10.0097C10.229 10.7007 10.4067 10.5278 10.4067 10.3143L10.4079 7.19937C10.4079 7.09687 10.366 6.99871 10.2916 6.92617C10.2173 6.85363 10.116 6.81283 10.0107 6.81283H7.04156V4.99032C7.04156 4.11435 7.25605 3.66966 8.4286 3.66966L10.1294 3.66907C10.3485 3.66907 10.5262 3.496 10.5262 3.28273V0.390284C10.5262 0.177205 10.3487 0.00433649 10.1298 0.00394227Z" fill="#C4C4C4"/>
</svg>
