<svg width="13" height="23" viewBox="0 0 13 23" fill="none" xmlns="http://www.w3.org/2000/svg">
<path d="M12.1558 0.267914L9.12607 0.263184C5.7223 0.263184 3.52263 2.45942 3.52263 5.85869V8.43859H0.476392C0.213161 8.43859 0 8.64627 0 8.90244V12.6404C0 12.8966 0.213404 13.104 0.476392 13.104H3.52263V22.5362C3.52263 22.7923 3.73579 22.9998 3.99902 22.9998H7.97349C8.23672 22.9998 8.44988 22.7921 8.44988 22.5362V13.104H12.0116C12.2749 13.104 12.488 12.8966 12.488 12.6404L12.4895 8.90244C12.4895 8.77944 12.4392 8.66165 12.35 8.5746C12.2608 8.48756 12.1392 8.43859 12.0129 8.43859H8.44988V6.25158C8.44988 5.20041 8.70728 4.66678 10.1143 4.66678L12.1553 4.66607C12.4183 4.66607 12.6314 4.45839 12.6314 4.20246V0.731526C12.6314 0.47583 12.4185 0.268387 12.1558 0.267914Z" fill="white"/>
</svg>
