<svg width="20" height="20" viewBox="0 0 20 20" fill="none" xmlns="http://www.w3.org/2000/svg">
<rect width="20" height="20" rx="10" fill="#C4C4C4"/>
<path d="M6.10272 11.4604L5.61539 13.2796L3.83424 13.3173C3.30193 12.33 3 11.2004 3 10C3 8.83922 3.2823 7.74459 3.78269 6.78074L5.36881 7.07147L6.06345 8.64768C5.91806 9.07154 5.83882 9.52654 5.83882 10C5.83888 10.5138 5.93195 11.0062 6.10272 11.4604Z" fill="white"/>
<path d="M16.8779 8.69208C16.9583 9.11553 17.0002 9.55284 17.0002 9.99978C17.0002 10.5009 16.9475 10.9898 16.8472 11.4613C16.5064 13.066 15.616 14.4671 14.3825 15.4587L12.3848 15.3564L12.1022 13.5917C12.9206 13.1117 13.5602 12.3606 13.8972 11.4613H10.1541V8.69208H16.8779Z" fill="white"/>
<path d="M14.3825 15.4587C13.1829 16.4229 11.6591 16.9998 10.0003 16.9998C7.33447 16.9998 5.01656 15.51 3.83424 13.3173L6.10272 11.4604C6.69387 13.0381 8.21601 14.161 10.0003 14.161C10.7672 14.161 11.4856 13.9537 12.1022 13.5917L14.3825 15.4587Z" fill="white"/>
<path d="M14.4684 4.61154L12.2007 6.46809C11.5626 6.06925 10.8084 5.83885 10.0003 5.83885C8.17567 5.83885 6.62499 7.01341 6.06345 8.64768L3.78269 6.78074C4.94771 4.53458 7.29489 3 10.0003 3C11.6988 3 13.2561 3.60501 14.4684 4.61154Z" fill="white"/>
</svg>
