<svg width="23" height="23" viewBox="0 0 23 23" fill="none" xmlns="http://www.w3.org/2000/svg">
<path fill-rule="evenodd" clip-rule="evenodd" d="M17.1685 0.108398H5.82599C2.64159 0.108398 0.0512695 2.69908 0.0512695 5.88312V17.2257C0.0512695 20.4101 2.64159 23 5.82599 23H17.1685C20.3529 23 22.9429 20.4101 22.9429 17.2257V5.88312C22.9429 2.69908 20.3529 0.108398 17.1685 0.108398ZM20.452 17.2257C20.452 19.0363 18.9788 20.5094 17.1685 20.5094H5.82599C4.01571 20.5094 2.54258 19.0363 2.54258 17.2257V5.88312C2.54258 4.07284 4.01571 2.60006 5.82599 2.60006H17.1685C18.9788 2.60006 20.452 4.07284 20.452 5.88312V17.2257ZM17.5833 6.87825C16.8139 6.87825 16.1879 6.25262 16.1879 5.48326C16.1879 4.71426 16.8139 4.08862 17.5833 4.08862C18.3527 4.08862 18.9783 4.71426 18.9783 5.48326C18.9783 6.25262 18.3527 6.87825 17.5833 6.87825ZM5.60022 11.5542C5.60022 8.30352 8.24519 5.65894 11.4956 5.65894C14.7467 5.65894 17.3917 8.30387 17.3917 11.5542C17.3917 14.805 14.7467 17.4499 11.4956 17.4499C8.24519 17.4499 5.60022 14.805 5.60022 11.5542ZM8.09117 11.5542C8.09117 13.4316 9.61932 14.9593 11.4956 14.9593C13.373 14.9593 14.9 13.4316 14.9 11.5542C14.9 9.67762 13.373 8.15057 11.4956 8.15057C9.61932 8.15057 8.09117 9.67762 8.09117 11.5542Z" fill="white"/>
</svg>
