<svg width="20" height="20" viewBox="0 0 20 20" fill="none" xmlns="http://www.w3.org/2000/svg">
<path fill-rule="evenodd" clip-rule="evenodd" d="M14.2644 0.871094H4.81226C2.1586 0.871094 0 3.02999 0 5.68336V15.1355C0 17.7891 2.1586 19.9474 4.81226 19.9474H14.2644C16.918 19.9474 19.0763 17.7891 19.0763 15.1355V5.68336C19.0763 3.02999 16.918 0.871094 14.2644 0.871094ZM17.0005 15.1355C17.0005 16.6443 15.7729 17.8719 14.2644 17.8719H4.81226C3.3037 17.8719 2.07609 16.6443 2.07609 15.1355V5.68336C2.07609 4.17479 3.3037 2.94748 4.81226 2.94748H14.2644C15.7729 2.94748 17.0005 4.17479 17.0005 5.68336V15.1355ZM14.6098 6.51261C13.9687 6.51261 13.447 5.99125 13.447 5.35012C13.447 4.70929 13.9687 4.18793 14.6098 4.18793C15.251 4.18793 15.7724 4.70929 15.7724 5.35012C15.7724 5.99125 15.251 6.51261 14.6098 6.51261ZM4.62378 10.4093C4.62378 7.70034 6.82792 5.49652 9.53659 5.49652C12.2459 5.49652 14.45 7.70063 14.45 10.4093C14.45 13.1182 12.2459 15.3223 9.53659 15.3223C6.82792 15.3223 4.62378 13.1182 4.62378 10.4093ZM6.69957 10.4093C6.69957 11.9737 7.97302 13.2468 9.53659 13.2468C11.101 13.2468 12.3736 11.9737 12.3736 10.4093C12.3736 8.84542 11.101 7.57288 9.53659 7.57288C7.97302 7.57288 6.69957 8.84542 6.69957 10.4093Z" fill="#C4C4C4"/>
</svg>
