<svg width="23" height="23" viewBox="0 0 23 23" fill="none" xmlns="http://www.w3.org/2000/svg">
<path d="M22.7356 13.9398V22.7366H17.8624V14.5289C17.8624 12.4671 17.1576 11.06 15.3936 11.06C14.0471 11.06 13.2458 12.0083 12.8932 12.9256C12.7647 13.2535 12.7316 13.71 12.7316 14.169V22.7366H7.85677C7.85677 22.7366 7.92242 8.83553 7.85677 7.39528H12.7311V9.56985C12.7212 9.58611 12.7084 9.60365 12.6991 9.61941H12.7311V9.56985C13.3787 8.52602 14.5353 7.03487 17.124 7.03487C20.3313 7.03481 22.7356 9.22753 22.7356 13.9398ZM2.75749 0C1.08982 0 -0.000976562 1.14474 -0.000976562 2.6501C-0.000976562 4.12266 1.05826 5.30214 2.69279 5.30214H2.72535C4.42532 5.30214 5.48255 4.12288 5.48255 2.6501C5.45052 1.14474 4.42532 0 2.75749 0ZM0.288545 22.7366H5.16152V7.39528H0.288545V22.7366Z" fill="white"/>
</svg>
