<svg width="19" height="19" viewBox="0 0 19 19" fill="none" xmlns="http://www.w3.org/2000/svg">
<path d="M18.9471 11.6165V18.9471H14.8861V12.1074C14.8861 10.3892 14.2988 9.21665 12.8288 9.21665C11.7067 9.21665 11.0389 10.0069 10.7452 10.7713C10.638 11.0446 10.6105 11.425 10.6105 11.8075V18.9471H6.54811C6.54811 18.9471 6.60282 7.36293 6.54811 6.16272H10.6101V7.97486C10.6018 7.98841 10.5911 8.00302 10.5834 8.01616H10.6101V7.97486C11.1497 7.105 12.1135 5.86238 14.2708 5.86238C16.9435 5.86233 18.9471 7.68959 18.9471 11.6165ZM2.29872 0C0.908994 0 0 0.953944 0 2.20841C0 3.43554 0.882696 4.41844 2.2448 4.41844H2.27194C3.68857 4.41844 4.5696 3.43573 4.5696 2.20841C4.5429 0.953944 3.68857 0 2.29872 0ZM0.241268 18.9471H4.30207V6.16272H0.241268V18.9471Z" fill="#C4C4C4"/>
</svg>
