<svg width="65" height="68" viewBox="0 0 65 68" fill="none" xmlns="http://www.w3.org/2000/svg">
<path d="M0.00453031 35.6535C0.029447 35.4224 0.0611592 35.1914 0.0792805 34.9603C0.163091 33.9365 0.226516 32.9126 0.335243 31.891C0.403198 31.2636 0.507395 30.6339 0.652365 30.02C0.863025 29.1321 1.03291 28.2351 1.18241 27.3358C1.2028 27.209 1.22092 27.0821 1.25263 26.9575C1.34777 26.586 1.34097 26.2123 1.29793 25.834C1.28661 25.7321 1.29567 25.6234 1.31832 25.5237C1.38854 25.2405 1.47235 24.9597 1.56749 24.6788C1.61732 24.8351 1.59014 24.9914 1.56975 25.1477C1.53351 25.4082 1.50406 25.6709 1.47462 25.9314C1.47009 25.9654 1.48368 25.9994 1.51992 26.0379C1.54031 25.9926 1.56069 25.9473 1.57881 25.902C1.99334 24.8079 2.43957 23.7274 2.97189 22.6854C3.24144 22.1554 3.56989 21.6548 3.87795 21.1451C4.01386 20.9186 4.16562 20.7012 4.30153 20.4747C4.70926 19.8019 5.17362 19.1722 5.67195 18.5629C6.01626 18.1438 6.31752 17.6885 6.63238 17.2468C7.51806 16.0123 8.44224 14.8118 9.47742 13.6973C9.74471 13.4096 9.98481 13.0993 10.2385 12.798C10.909 12.003 11.7086 11.3461 12.5263 10.7118C13.369 10.0595 14.2524 9.46599 15.1856 8.9518C15.7202 8.65507 16.2752 8.3991 16.8664 8.23148C16.9547 8.20656 17.0498 8.1975 17.1404 8.17938C17.1472 8.19297 17.154 8.20656 17.1608 8.22242C17.0974 8.30397 17.0476 8.40137 16.9683 8.46026C16.6874 8.67319 16.4043 8.88838 16.1075 9.07865C15.6115 9.39577 15.138 9.74461 14.6692 10.1002C14.198 10.4559 13.7654 10.85 13.3282 11.2441C12.6373 11.8648 11.9193 12.4537 11.2239 13.0699C10.0007 14.1526 8.85676 15.3078 7.83744 16.5922C7.20093 17.3918 6.64371 18.2435 6.11139 19.111C6.04117 19.2266 5.98228 19.3511 5.903 19.4621C5.16003 20.5041 4.69794 21.6888 4.21999 22.8599C3.40227 24.8713 2.83371 26.9575 2.40107 29.0845C2.1519 30.3122 1.93218 31.5445 1.78494 32.788C1.68301 33.6329 1.52672 34.4779 1.54484 35.3318C1.55616 35.8437 1.61732 36.3557 1.68981 36.8608C1.91406 38.417 2.24704 39.9482 2.72045 41.4477C2.90846 42.0435 3.13271 42.6279 3.38867 43.201C3.64464 43.7718 3.85983 44.3607 4.10446 44.9383C4.41479 45.6677 4.73871 46.3903 5.04903 47.1174C5.20306 47.4776 5.34124 47.8445 5.48168 48.2115C5.51113 48.2885 5.52019 48.3769 5.53831 48.4584C5.52245 48.4652 5.50433 48.4743 5.48847 48.4811C5.43864 48.4199 5.38201 48.3633 5.33671 48.2976C4.81119 47.5319 4.30606 46.755 3.87115 45.9328C3.76922 45.7402 3.67861 45.5386 3.56083 45.3551C3.14404 44.7005 2.8473 43.9938 2.6072 43.2599C2.58454 43.1896 2.55283 43.1194 2.49847 43.056C2.50526 43.0968 2.50526 43.1398 2.51659 43.1806C2.86089 44.44 3.22785 45.6926 3.70806 46.9068C3.98441 47.609 4.29247 48.2976 4.58921 48.9907C4.85423 49.6159 5.11246 50.2411 5.48621 50.8142C5.64251 51.0543 5.75803 51.3193 5.89167 51.5707C5.90526 51.5979 5.91659 51.6273 5.93471 51.65C6.21333 52.0532 6.48741 52.4609 6.77282 52.8573C7.14883 53.3783 7.53165 53.8902 7.91672 54.4044C8.05263 54.5856 8.19307 54.7646 8.34257 54.9322C8.74351 55.3852 9.15576 55.827 9.5499 56.2822C9.82625 56.6016 10.089 56.9346 10.3472 57.2676C10.5284 57.5009 10.6666 57.7614 10.7165 58.0649C11.1287 58.1714 11.4481 58.4364 11.7562 58.715C13.0971 59.9246 14.5151 61.0391 15.9829 62.0924C17.0023 62.824 18.0646 63.4877 19.1904 64.0427C19.7318 64.3077 20.2913 64.5342 20.8417 64.7856C21.3287 65.0076 21.8044 65.2568 22.2959 65.4675C22.9959 65.7665 23.7026 66.0473 24.4116 66.3282C24.9937 66.557 25.5804 66.7722 26.1648 66.9964C26.2396 67.0259 26.3121 67.0621 26.3845 67.1369C26.3324 67.1437 26.2781 67.1595 26.226 67.1527C25.9406 67.1165 25.6574 67.0757 25.3743 67.0372C24.8895 66.9693 24.4025 66.899 23.9178 66.8311C23.8272 66.8198 23.7366 66.8062 23.646 66.813C23.2382 66.8401 22.8577 66.7269 22.4749 66.6023C21.3536 66.2376 20.2822 65.7529 19.2153 65.2545C18.8688 65.0914 18.5448 64.8808 18.2096 64.6882C17.6071 64.3439 16.9977 64.0132 16.4043 63.6531C16.0056 63.4107 15.6273 63.1321 15.2468 62.8625C14.6442 62.4344 14.0372 62.0108 13.4528 61.5578C12.7483 61.0119 12.0982 60.4003 11.5546 59.6868C11.4322 59.526 11.3348 59.3447 11.2239 59.1726C11.1015 58.9823 10.9792 58.7943 10.8546 58.6063C10.7527 58.4568 10.6372 58.3141 10.6417 58.1465C10.3789 57.9856 10.1207 57.8452 9.88515 57.6753C7.90993 56.2551 6.27675 54.5154 5.01279 52.4383C4.50087 51.5934 4.02292 50.7258 3.57895 49.8424C2.68648 48.0688 1.90273 46.2476 1.33644 44.3381C0.912858 42.9042 0.550433 41.4545 0.335243 39.9754C0.21972 39.1848 0.167622 38.3852 0.0838108 37.5902C0.0611592 37.3818 0.029447 37.1734 0 36.965C0.00453031 36.5301 0.00453031 36.0906 0.00453031 35.6535ZM2.37615 42.6324C2.38748 42.6301 2.39654 42.6256 2.40786 42.6234C2.38748 42.5554 2.36709 42.4874 2.3467 42.4172C2.33538 42.4195 2.32632 42.424 2.31499 42.4263C2.33538 42.4942 2.35576 42.5622 2.37615 42.6324Z" fill="black"/>
<path d="M64.6514 29.7189C64.6378 29.7982 64.6129 29.8775 64.6106 29.959C64.6015 30.3486 64.5155 30.7201 64.4045 31.0916C64.3411 31.3 64.2912 31.5129 64.2437 31.7258C64.2074 31.8889 64.2074 31.9048 64.1032 32.0339C63.9832 31.9795 63.9401 31.8617 63.9016 31.753C63.7748 31.3906 63.6434 31.0282 63.5392 30.6589C63.1179 29.1481 62.6988 27.6372 62.2956 26.1196C62.1484 25.5669 62.0555 24.9983 61.9423 24.4366C61.9241 24.3482 61.9241 24.2553 61.9332 24.167C61.9445 24.0583 62.0147 24.0266 62.1099 24.0855C62.1665 24.1194 62.2254 24.1647 62.2639 24.2168C62.3772 24.3754 62.4995 24.5317 62.5856 24.7061C62.7283 24.9961 62.8461 25.2996 62.9729 25.5986C63.0046 25.6733 63.0409 25.7458 63.1088 25.807C63.059 25.4808 63.0159 25.1523 62.9548 24.8307C62.8347 24.2168 62.7079 23.603 62.572 22.9937C62.5221 22.7671 62.4361 22.5474 62.3681 22.3232C62.0668 21.3016 61.6523 20.3208 61.2695 19.3286C60.7077 17.8721 60.0395 16.4587 59.4166 15.0271C59.3509 14.8776 59.2988 14.7236 59.2422 14.5718C59.2558 14.5627 59.2694 14.5537 59.283 14.5446C59.3237 14.5695 59.3713 14.5854 59.403 14.6194C59.548 14.7825 59.6998 14.9433 59.8289 15.1177C60.1777 15.5911 60.522 16.0691 60.8618 16.5515C61.3329 17.2198 61.7293 17.931 62.0329 18.6921C62.2707 19.2879 62.5335 19.8745 62.7419 20.4793C63.0159 21.2767 63.256 22.0876 63.4916 22.8985C63.7725 23.8612 64.0692 24.8194 64.2663 25.8047C64.3954 26.4412 64.4996 27.08 64.5608 27.7278C64.5744 27.866 64.6197 28.0019 64.6514 28.1378C64.6514 28.6611 64.6514 29.1911 64.6514 29.7189Z" fill="black"/>
<path d="M32.4873 0C32.5303 0.029447 32.5711 0.0588941 32.6141 0.0883411C32.6572 0.117788 32.7002 0.142705 32.7863 0.197069C32.6934 0.206129 32.6481 0.21519 32.6005 0.21519C32.0886 0.21519 31.5767 0.212925 31.067 0.217455C30.6865 0.221985 30.3037 0.235576 29.9141 0.244637C30.0545 0.0815456 30.2674 0.072485 30.4486 0C31.1282 0 31.8077 0 32.4873 0Z" fill="black"/>
<path d="M31.5797 68C31.5389 67.957 31.4914 67.9185 31.4551 67.8709C31.3691 67.7599 31.3827 67.6149 31.4846 67.5243C31.5865 67.4315 31.7338 67.436 31.8334 67.5311C31.9286 67.6217 31.9376 67.7758 31.8515 67.88C31.813 67.9253 31.7632 67.9615 31.7179 68C31.6703 68 31.625 68 31.5797 68Z" fill="black"/>
<path d="M23.898 62.7858C24.0452 62.7858 24.1924 62.7926 24.3397 62.7835C24.9105 62.7495 25.4655 62.8447 26.0249 62.9398C26.589 63.035 27.1598 63.112 27.7351 63.1074C28.0681 63.1052 28.4011 63.1188 28.7318 63.1052C29.4159 63.0757 30.0864 63.1686 30.7614 63.2592C30.9245 63.2819 31.0921 63.2977 31.2575 63.2977C32.5486 63.3 33.8397 63.3136 35.1309 63.2932C36.0143 63.2796 36.8954 63.2252 37.7698 63.0871C39.301 62.8424 40.7892 62.437 42.248 61.916C43.3874 61.5082 44.4905 61.0212 45.5574 60.4549C48.3888 58.9531 51.1161 57.2815 53.6417 55.304C54.2805 54.8034 54.8649 54.2258 55.438 53.6459C57.2479 51.8156 58.7089 49.7294 59.8573 47.4348C60.4463 46.2569 60.9129 45.0156 61.4271 43.8015C61.7102 43.1356 61.9775 42.4628 62.2584 41.7946C62.3241 41.6383 62.3717 41.482 62.3535 41.3144C62.3377 41.1694 62.383 41.0516 62.4736 40.9406C62.571 40.8251 62.6503 40.696 62.7431 40.5759C62.9289 40.3336 63.0104 40.0617 63.015 39.7559C63.0172 39.5611 63.0557 39.3663 63.0716 39.1715C63.0965 38.8725 63.1146 38.5713 63.1373 38.27C63.1554 38.0299 63.1758 37.7898 63.1916 37.5497C63.2166 37.2258 63.2415 36.9041 63.2596 36.5802C63.2687 36.4443 63.2641 36.3084 63.2596 36.1725C63.2437 35.4091 63.323 34.6525 63.3774 33.8914C63.4 33.5834 63.4159 33.2731 63.4703 32.9695C63.5156 32.7272 63.6107 32.4961 63.6945 32.2628C63.7149 32.2062 63.7715 32.1609 63.8123 32.1065C63.9527 32.1699 63.989 32.2832 64.0116 32.3874C64.0932 32.7475 64.186 33.1077 64.2313 33.4724C64.3695 34.5461 64.4058 35.6243 64.331 36.7048C64.2834 37.3911 64.2042 38.0729 64.0773 38.7479C64.0705 38.7842 64.066 38.8227 64.0615 38.8612C64.1113 38.8793 64.1634 38.8861 64.1996 38.9133C64.2336 38.9382 64.2608 38.9835 64.2699 39.0266C64.3061 39.1874 64.3627 39.3505 64.3605 39.5136C64.3582 39.9281 64.331 40.3426 64.3129 40.7571C64.3106 40.8319 64.2925 40.9089 64.297 40.9837C64.3288 41.525 64.2427 42.0483 64.1158 42.5715C63.9709 43.1718 63.8621 43.7811 63.7489 44.3905C63.7149 44.5739 63.7285 44.7665 63.7104 44.9522C63.6968 45.1153 63.6832 45.2829 63.6469 45.4437C63.4544 46.2637 63.1441 47.0384 62.7635 47.7882C62.5302 48.2503 62.1995 48.6444 61.8688 49.0386C61.794 49.1292 61.6853 49.1949 61.5834 49.2583C61.4701 49.3285 61.3931 49.2922 61.3863 49.1541C61.3795 49.0046 61.384 48.8505 61.418 48.7056C61.7102 47.4507 61.9956 46.1912 62.4396 44.9771C62.5642 44.6374 62.6548 44.2863 62.759 43.9397C62.7748 43.8853 62.7794 43.8287 62.7567 43.7653C62.7205 43.8559 62.6842 43.9442 62.6503 44.0348C61.6559 46.7054 60.3919 49.2379 58.7633 51.5823C57.8481 52.9006 56.8424 54.1442 55.66 55.2338C54.6814 56.1353 53.8048 57.1342 52.9101 58.1173C52.7991 58.2396 52.6745 58.3506 52.5431 58.448C52.0584 58.8082 51.5737 59.1683 51.0753 59.5104C50.6834 59.7777 50.2734 60.02 49.8657 60.2647C49.3991 60.5433 48.9302 60.8174 48.4591 61.0869C48.3843 61.13 48.2892 61.1639 48.2054 61.1594C48.0151 61.1503 47.8475 61.2092 47.6866 61.2953C46.5722 61.8888 45.3898 62.3214 44.2119 62.7654C44.0918 62.8107 43.9695 62.847 43.8495 62.8945C43.6864 62.9602 43.5188 62.9851 43.3421 62.9829C43.2243 62.9829 43.102 63.01 42.9864 63.0395C42.3952 63.1958 41.8108 63.3702 41.2038 63.454C41.0769 63.4721 40.9478 63.5061 40.8232 63.497C40.3271 63.4676 39.8492 63.5718 39.3667 63.6579C38.3723 63.8346 37.3734 63.9909 36.3744 64.1494C35.5975 64.274 34.8138 64.2921 34.0277 64.2831C33.0537 64.274 32.0797 64.2785 31.1057 64.2808C29.2641 64.2831 27.4429 64.0928 25.6557 63.6466C25.0849 63.5038 24.5435 63.2637 24.0316 62.967C23.975 62.933 23.9251 62.8855 23.873 62.8447C23.8889 62.8243 23.8934 62.8039 23.898 62.7858Z" fill="black"/>
<path d="M26.0547 40.3199C28.1726 36.6503 30.2724 33.0125 32.3677 29.3837C32.3903 29.3814 32.3994 29.3792 32.4062 29.3792C32.413 29.3792 32.422 29.3837 32.4243 29.3882C34.515 33.0079 36.6081 36.6254 38.6988 40.2451C38.7079 40.2632 38.7079 40.2859 38.7146 40.3199C34.506 40.3199 30.3041 40.3199 26.0547 40.3199Z" fill="black"/>
<path d="M39.5231 38.8136C37.6384 35.5563 35.7584 32.308 33.8828 29.0666C33.8987 29.0439 33.9009 29.0371 33.9055 29.0303C33.91 29.0258 33.9145 29.0168 33.9213 29.0168C33.9666 29.0122 34.0119 29.0077 34.0572 29.0077C37.754 29.0077 41.453 29.0077 45.1497 29.0077C45.1135 29.1685 39.7586 38.5032 39.5231 38.8136Z" fill="black"/>
<path d="M30.9443 29.0166C29.0506 32.2965 27.1751 35.5448 25.2769 38.8338C23.3787 35.547 21.5031 32.2965 19.623 29.0438C19.8043 28.9894 30.3418 28.9667 30.9443 29.0166Z" fill="black"/>
<path d="M35.3548 24.4161C35.3571 26.0516 34.0433 27.3721 32.4124 27.3767C30.7769 27.3812 29.4518 26.0697 29.4473 24.4388C29.4427 22.7897 30.7565 21.4691 32.401 21.4691C34.0365 21.4669 35.3503 22.7784 35.3548 24.4161Z" fill="black"/>
<path d="M36.9102 24.9416C36.9124 23.4805 38.0835 22.3185 39.5491 22.3185C40.9988 22.3185 42.1812 23.51 42.1721 24.962C42.1631 26.4026 40.9806 27.5782 39.54 27.5805C38.088 27.5805 36.9079 26.3958 36.9102 24.9416Z" fill="black"/>
<path d="M25.2693 22.3231C26.719 22.3186 27.9014 23.4897 27.9059 24.9326C27.9127 26.3868 26.7303 27.5805 25.2806 27.5828C23.8377 27.5873 22.653 26.4094 22.6485 24.9665C22.6417 23.501 23.806 22.3254 25.2693 22.3231Z" fill="black"/>
<path d="M59.5405 19.2766C59.4295 19.1543 59.314 19.0387 59.2121 18.9119C58.5076 18.0443 57.8212 17.1632 57.1009 16.3092C56.6003 15.7158 56.0657 15.1495 55.5221 14.5922C54.7746 13.8243 53.9999 13.0836 53.2456 12.3203C52.8152 11.8831 52.3509 11.4867 51.8707 11.1062C50.1242 9.72441 48.2464 8.55106 46.2463 7.57025C45.3787 7.1444 44.4636 6.83181 43.5644 6.48297C42.5586 6.09337 41.5438 5.72868 40.5336 5.35266C40.3659 5.28924 40.2029 5.21448 40.0488 5.04233C40.1372 5.04233 40.1915 5.03554 40.2436 5.0446C40.6604 5.11482 41.0795 5.17371 41.4917 5.26432C41.8745 5.34813 42.2483 5.46818 42.6288 5.56785C43.2789 5.73774 43.929 5.89856 44.5791 6.06845C44.6947 6.0979 44.8079 6.14546 44.9166 6.19303C45.6324 6.51695 46.3256 6.87485 46.9847 7.30976C47.4106 7.59063 47.8795 7.80809 48.3325 8.05273C49.7437 8.81155 51.096 9.66325 52.3894 10.6078C53.5152 11.4301 54.5096 12.3996 55.4564 13.4144C56.6275 14.6715 57.6536 16.0397 58.5393 17.5166C58.7998 17.9492 59.092 18.3615 59.3616 18.7896C59.4522 18.9323 59.5111 19.0931 59.5835 19.2471C59.5699 19.2562 59.5564 19.2675 59.5405 19.2766Z" fill="black"/>
<path d="M21.9919 2.21524C21.8311 2.48479 21.6249 2.64335 21.4052 2.76794C20.6192 3.21644 19.8151 3.63323 19.0381 4.09305C18.2974 4.53023 17.5046 4.86774 16.7662 5.30718C16.5782 5.41817 16.3902 5.52916 16.2022 5.64016C15.586 6.00485 14.9699 6.3718 14.3515 6.73196C13.8826 7.00605 13.4092 7.27107 12.9358 7.53609C12.8203 7.60178 12.7093 7.68786 12.5553 7.64029C12.5462 7.4772 12.6481 7.38206 12.7433 7.28919C13.0559 6.98339 13.3662 6.67307 13.6901 6.38086C14.6347 5.53143 15.654 4.7794 16.7322 4.10891C17.1037 3.87786 17.4774 3.65135 17.8421 3.41351C18.6508 2.88572 19.5251 2.51197 20.4561 2.25375C20.8117 2.15408 21.1674 2.12237 21.5275 2.10198C21.6702 2.09972 21.8175 2.1722 21.9919 2.21524Z" fill="black"/>
<path d="M23.1934 5.60391C23.3066 5.54501 23.4153 5.47932 23.5309 5.42722C24.2467 5.10784 24.9556 4.76806 25.7077 4.54155C26.1902 4.39658 26.6862 4.29918 27.1755 4.17006C27.581 4.0636 27.9887 4.03415 28.4078 4.03642C30.0908 4.04548 31.7738 4.04548 33.4591 4.03415C33.7037 4.03189 33.8917 4.08852 34.0593 4.26973C34.1907 4.41243 34.347 4.53022 34.5146 4.67519C34.27 4.70237 34.0344 4.73862 33.7988 4.75447C33.604 4.76806 33.407 4.76353 33.2099 4.75674C32.664 4.73409 32.1249 4.80657 31.5858 4.87453C31.4952 4.88585 31.4046 4.89038 31.3139 4.89038C30.6797 4.89265 30.0455 4.88812 29.4112 4.89265C29.307 4.89265 29.1983 4.90624 29.1009 4.93795C28.4893 5.13275 27.8686 5.28678 27.2321 5.37513C27.1211 5.39098 27.0056 5.40457 26.8946 5.40231C25.9229 5.36607 24.9692 5.50197 24.0133 5.64241C23.7506 5.68092 23.4765 5.64921 23.2092 5.64921C23.2024 5.63109 23.1979 5.6175 23.1934 5.60391Z" fill="black"/>
<path d="M8.84023 53.0365C9.09845 53.22 9.36121 53.3922 9.61038 53.587C9.90032 53.8157 10.1903 54.0468 10.4553 54.305C11.0193 54.8555 11.6739 55.2904 12.2901 55.7728C13.1463 56.4433 14.0388 57.0594 14.904 57.7141C15.6742 58.2962 16.4421 58.8806 17.2077 59.4673C17.3028 59.5398 17.3821 59.6327 17.4682 59.7165C17.5815 59.8252 17.6925 59.9362 17.808 60.0404C17.851 60.0812 17.9076 60.1084 17.9575 60.1401C17.9462 60.1559 17.9348 60.174 17.9258 60.1899C17.8714 60.1899 17.8148 60.2012 17.7649 60.1876C17.5996 60.1378 17.432 60.0902 17.2734 60.0245C16.023 59.5103 14.8202 58.9033 13.6741 58.1852C13.6356 58.1603 13.5948 58.1422 13.5608 58.1127C12.7318 57.3992 11.8121 56.7944 11.0555 55.9994C10.863 55.7978 10.6909 55.5758 10.5051 55.3696C9.94109 54.7399 9.44502 54.0581 8.96028 53.365C8.89685 53.2744 8.84929 53.1747 8.79492 53.0796C8.80851 53.0637 8.82437 53.0501 8.84023 53.0365Z" fill="black"/>
<path d="M22.3317 44.841C22.6579 45.4775 22.6942 45.4775 23.3262 45.5092C23.3397 45.7358 23.3397 45.9645 23.3262 46.1888C22.744 46.3247 22.3453 46.1661 22.0373 45.6814C21.8878 45.4458 21.7405 45.208 21.6001 44.9679C21.5389 44.8614 21.4642 44.8206 21.3441 44.8297C21.1267 44.8455 20.9092 44.8501 20.7008 44.9316C20.5627 44.986 20.497 45.0562 20.506 45.2125C20.5196 45.4685 20.5106 45.7244 20.5106 45.9827C20.5106 46.0551 20.5106 46.1299 20.5106 46.225C20.3158 46.225 20.1504 46.2273 19.9873 46.225C19.9375 46.225 19.8854 46.2137 19.8242 46.2069C19.8242 45.0766 19.8242 43.9576 19.8242 42.8228C19.9012 42.8182 19.9669 42.8092 20.0326 42.8092C20.6737 42.8092 21.3147 42.8069 21.9557 42.8092C22.0531 42.8092 22.1528 42.8092 22.2479 42.8273C22.7236 42.9156 23.0407 43.2509 23.0906 43.7334C23.1359 44.1796 22.9456 44.5715 22.488 44.7663C22.4382 44.7889 22.3906 44.8116 22.3317 44.841ZM20.5219 44.3359C20.8435 44.1841 21.1493 44.1569 21.4574 44.1501C21.6228 44.1456 21.7881 44.1501 21.9535 44.1456C22.0282 44.1434 22.1052 44.1388 22.1755 44.1184C22.3204 44.0777 22.3952 43.9667 22.3952 43.8149C22.3952 43.6563 22.3317 43.5635 22.1709 43.5204C22.0848 43.4978 21.992 43.491 21.9036 43.491C21.505 43.4887 21.1063 43.4887 20.7076 43.4887C20.6487 43.4887 20.5898 43.4955 20.5219 43.5023C20.5219 43.7741 20.5219 44.0324 20.5219 44.3359Z" fill="black"/>
<path d="M49.8317 44.8412C50.1579 45.48 50.1964 45.4777 50.799 45.5094C50.8443 45.6725 50.8511 45.9466 50.8126 46.1935C50.2463 46.3272 49.8431 46.1663 49.5373 45.6816C49.3878 45.446 49.2405 45.2082 49.1001 44.9681C49.0389 44.8616 48.9642 44.8208 48.8441 44.8299C48.6267 44.8457 48.4092 44.8503 48.2008 44.9318C48.0627 44.9862 47.997 45.0564 48.006 45.2127C48.0196 45.4687 48.0106 45.7246 48.0106 45.9828C48.0106 46.0553 48.0106 46.1301 48.0106 46.2094C47.7659 46.2094 47.5507 46.2094 47.3242 46.2094C47.3242 45.0745 47.3242 43.9533 47.3242 42.8207C47.4012 42.8162 47.4669 42.8071 47.5326 42.8071C48.1737 42.8071 48.8147 42.8048 49.4557 42.8071C49.5531 42.8071 49.6528 42.8071 49.7479 42.8252C50.2236 42.9136 50.5407 43.2488 50.5906 43.7313C50.6359 44.1798 50.4433 44.5694 49.988 44.7642C49.9382 44.7891 49.8906 44.8118 49.8317 44.8412ZM48.0174 44.3315C48.3209 44.2002 48.6086 44.1549 48.9008 44.1503C49.0729 44.1481 49.2473 44.1481 49.4195 44.1458C49.4942 44.1435 49.5713 44.1435 49.6437 44.1254C49.8046 44.0892 49.8906 43.9804 49.8952 43.8219C49.8997 43.6543 49.8295 43.5569 49.6573 43.5138C49.5848 43.4957 49.5078 43.4889 49.4353 43.4889C49.014 43.4866 48.5927 43.4866 48.1714 43.4889C48.1216 43.4889 48.0717 43.5025 48.0174 43.5093C48.0174 43.7766 48.0174 44.0303 48.0174 44.3315Z" fill="black"/>
<path d="M11.8416 42.6959C12.1451 42.7072 12.4419 42.757 12.7227 42.8793C13.3185 43.1398 13.7013 43.5725 13.7828 44.2339C13.8689 44.9361 13.6401 45.5137 13.0625 45.9328C12.3513 46.4515 11.3093 46.4696 10.5686 45.9917C9.44959 45.2691 9.4949 43.6472 10.6501 42.9858C10.9922 42.7887 11.4316 42.6823 11.8416 42.6959ZM11.7827 43.3981C11.5335 43.389 11.2912 43.4388 11.0669 43.5544C10.6728 43.7537 10.4734 44.0776 10.4734 44.5193C10.4734 44.961 10.675 45.2872 11.0692 45.4797C11.4656 45.6745 11.8801 45.6904 12.2992 45.55C12.503 45.482 12.6774 45.3665 12.8224 45.2057C13.2211 44.7685 13.2233 43.8896 12.4872 43.5453C12.2674 43.4434 12.0319 43.3913 11.7827 43.3981Z" fill="black"/>
<path d="M38.8284 46.1886C38.8284 45.3052 38.8284 44.4105 38.8284 43.5021C38.6743 43.4931 38.5407 43.4863 38.398 43.4795C38.3028 43.2666 38.2077 43.0536 38.1035 42.8226C38.1896 42.8158 38.2462 42.809 38.3029 42.809C38.953 42.809 39.6008 42.7999 40.2509 42.8158C40.4819 42.8203 40.7198 42.8588 40.9372 42.9313C41.5533 43.1352 41.9135 43.6607 41.943 44.3742C41.9498 44.569 41.9339 44.7684 41.8954 44.9586C41.7572 45.6472 41.2181 46.1524 40.5182 46.2022C39.9768 46.2407 39.4332 46.2158 38.8895 46.2181C38.8782 46.2181 38.8646 46.2067 38.8284 46.1886ZM39.551 45.5227C39.8681 45.5227 40.1716 45.5498 40.4683 45.5159C40.8444 45.4728 41.1026 45.2508 41.2045 44.8748C41.2725 44.6302 41.2725 44.381 41.2045 44.1364C41.1184 43.8193 40.91 43.6154 40.5907 43.5361C40.2509 43.45 39.9043 43.5021 39.551 43.4908C39.551 44.1772 39.551 44.8386 39.551 45.5227Z" fill="black"/>
<path d="M51.7559 45.6089C51.928 45.4436 52.0843 45.2941 52.2497 45.1332C52.2814 45.1604 52.3154 45.1876 52.3425 45.2193C52.6959 45.6452 53.1603 45.729 53.6722 45.6452C53.8126 45.6225 53.9553 45.584 54.0776 45.516C54.1773 45.4617 54.2702 45.3665 54.3246 45.2669C54.422 45.0902 54.3517 44.9158 54.1615 44.8433C54.0369 44.7957 53.8987 44.7708 53.7673 44.7617C53.4887 44.7391 53.2078 44.7459 52.9315 44.7119C52.7548 44.6915 52.5736 44.6462 52.4128 44.5715C51.8283 44.3019 51.7106 43.5454 52.1704 43.0969C52.3425 42.9292 52.5487 42.8205 52.7797 42.7661C53.4479 42.6121 54.0822 42.6982 54.6711 43.0583C54.696 43.0742 54.7164 43.0946 54.7595 43.1331C54.6145 43.303 54.4741 43.4661 54.3246 43.6382C54.098 43.5001 53.8647 43.4026 53.6065 43.3709C53.3573 43.3415 53.1104 43.337 52.8726 43.4412C52.671 43.5318 52.5804 43.6473 52.6053 43.7877C52.6279 43.9282 52.7276 44.0074 52.9428 44.0346C53.1376 44.0573 53.3347 44.055 53.5295 44.0754C53.7832 44.1003 54.0437 44.1116 54.2883 44.1751C55.0517 44.3699 55.2963 45.2737 54.7504 45.8513C54.5239 46.0914 54.2317 46.2046 53.9146 46.2726C53.2124 46.4221 52.5645 46.3156 51.9982 45.8513C51.9212 45.7811 51.8465 45.6973 51.7559 45.6089Z" fill="black"/>
<path d="M29.9707 42.8205C30.87 42.8205 31.7511 42.8205 32.6436 42.8205C32.6436 43.0402 32.6436 43.2486 32.6436 43.4819C31.9799 43.4819 31.3185 43.4819 30.6457 43.4819C30.6457 43.7605 30.6457 44.0142 30.6457 44.2996C31.1395 44.0776 31.6582 44.1275 32.1906 44.1252C32.1906 44.3494 32.1906 44.5624 32.1906 44.7889C31.6696 44.85 31.1237 44.7028 30.6389 45.0041C30.6389 45.1717 30.6389 45.3371 30.6389 45.5273C31.3434 45.5545 32.0411 45.5251 32.75 45.5454C32.7999 45.7674 32.7772 45.9826 32.7659 46.2114C31.8327 46.2114 30.9085 46.2114 29.9707 46.2114C29.9707 45.0811 29.9707 43.9598 29.9707 42.8205Z" fill="black"/>
<path d="M45.8821 43.4888C45.2116 43.4888 44.5569 43.4888 43.8887 43.4888C43.8887 43.7606 43.8887 44.0143 43.8887 44.2997C44.3871 44.08 44.9035 44.1231 45.4313 44.1276C45.4313 44.3518 45.4313 44.558 45.4313 44.7935C45.352 44.7958 45.2727 44.8003 45.1934 44.8026C44.9148 44.8117 44.634 44.8003 44.3576 44.8366C43.8932 44.8977 43.8479 44.9702 43.8751 45.4278C43.8774 45.4572 43.8865 45.4844 43.8978 45.5342C44.5977 45.5342 45.2976 45.5342 46.0112 45.5342C46.0112 45.7653 46.0112 45.9714 46.0112 46.1798C45.8571 46.2319 43.6713 46.2546 43.2114 46.2025C43.2001 45.0812 43.2069 43.9554 43.2092 42.8183C44.113 42.8183 44.9919 42.8183 45.8843 42.8183C45.8821 43.038 45.8821 43.2464 45.8821 43.4888Z" fill="black"/>
<path d="M7.8322 12.7032C7.82541 12.7734 7.82994 12.8482 7.80729 12.9116C7.74386 13.0792 7.67817 13.2514 7.5921 13.4077C6.50935 15.3625 5.32694 17.2562 4.08337 19.1113C3.97464 19.2744 3.84779 19.4239 3.72094 19.5734C3.67111 19.6323 3.59863 19.6753 3.53747 19.7252C3.43327 19.6482 3.45592 19.5621 3.47631 19.4873C3.55785 19.1906 3.62128 18.8848 3.7368 18.5994C4.11055 17.6684 4.53867 16.7578 5.05965 15.8993C5.52174 15.1405 6.045 14.4156 6.63167 13.7429C6.88084 13.4598 7.13907 13.1857 7.40635 12.9184C7.50829 12.8164 7.6442 12.7462 7.76651 12.6624C7.7869 12.676 7.80955 12.6896 7.8322 12.7032Z" fill="black"/>
<path d="M36.4533 45.72C35.7579 45.6769 35.0919 45.7766 34.4532 46.0394C34.4192 46.053 34.3784 46.0665 34.3512 46.0892C34.0975 46.3157 33.8008 46.2002 33.4746 46.2251C34.0341 45.1741 34.5732 44.1638 35.1078 43.1604C35.0398 43.0199 34.9764 42.8931 34.8949 42.7322C35.135 42.7186 35.3479 42.7186 35.5608 42.7322C35.6039 42.7345 35.6537 42.8025 35.6809 42.85C35.7737 43.0131 35.8598 43.183 35.9459 43.3484C36.4103 44.2295 36.8769 45.1084 37.3412 45.9895C37.3752 46.0552 37.4047 46.1209 37.4545 46.2228C37.2144 46.2228 37.006 46.2296 36.7976 46.2183C36.7523 46.2161 36.6957 46.1617 36.6662 46.1186C36.5915 45.9895 36.5258 45.8559 36.4533 45.72ZM35.4747 43.849C35.2822 44.1276 34.7499 45.1809 34.7137 45.3598C35.1554 45.1492 35.622 45.1061 36.1226 45.0812C35.8961 44.6508 35.6877 44.2567 35.4747 43.849Z" fill="black"/>
<path d="M17.6177 42.8228C17.8601 42.8228 18.0662 42.8228 18.2882 42.8228C18.2927 42.9089 18.2972 42.9836 18.2972 43.0561C18.2972 43.636 18.2972 44.2182 18.2972 44.798C18.2972 44.8592 18.2972 44.9181 18.2927 44.9793C18.2429 45.7335 17.8034 46.1979 17.0537 46.3021C16.7048 46.3519 16.3628 46.3451 16.0207 46.2568C15.3706 46.0869 15.0082 45.6361 14.9969 44.9679C14.9878 44.4175 14.9946 43.8671 14.9946 43.3166C14.9946 43.1581 14.9946 43.0018 14.9946 42.8138C15.2189 42.8024 15.4318 42.8002 15.6742 42.8206C15.6742 42.9089 15.6742 42.9904 15.6742 43.0697C15.6742 43.636 15.6742 44.2 15.6742 44.7663C15.6742 44.8501 15.6719 44.9317 15.681 45.0155C15.7104 45.2896 15.8486 45.4844 16.1136 45.5682C16.467 45.6814 16.8271 45.6814 17.1805 45.5659C17.4138 45.4889 17.5565 45.3213 17.5928 45.0721C17.6086 44.9679 17.6154 44.8615 17.6154 44.7573C17.6177 44.2 17.6154 43.6405 17.6154 43.0833C17.6177 43.0018 17.6177 42.9202 17.6177 42.8228Z" fill="black"/>
<path d="M50.3925 5.98695C50.089 5.82613 49.7741 5.68116 49.4819 5.50221C48.0934 4.64825 46.6776 3.84185 45.2234 3.10794C44.1112 2.54618 42.9447 2.11354 41.7464 1.76923C41.5584 1.71487 41.3727 1.65144 41.1914 1.57896C41.1167 1.54951 41.0555 1.48156 40.9785 1.42493C41.0782 1.31167 41.1756 1.31847 41.2707 1.33885C41.5584 1.39775 41.8506 1.44305 42.1315 1.52912C42.9968 1.79641 43.8439 2.10674 44.6526 2.519C45.2008 2.79988 45.7829 3.01733 46.3492 3.2665C46.6029 3.37976 46.8543 3.50434 47.1058 3.6244C47.8148 3.95964 48.5011 4.34245 49.1739 4.74565C49.2645 4.80001 49.3505 4.86344 49.4275 4.93366C49.6518 5.13525 49.876 5.33912 50.0912 5.54978C50.2136 5.66983 50.32 5.80574 50.4355 5.93485C50.4197 5.95071 50.4061 5.96883 50.3925 5.98695Z" fill="black"/>
<path d="M27.1463 42.825C27.1463 43.7243 27.1463 44.6122 27.1463 45.5319C27.7534 45.5477 28.3446 45.5296 28.9517 45.5432C28.9517 45.7742 28.9517 45.9894 28.9517 46.2137C28.1204 46.2137 27.3004 46.2137 26.4668 46.2137C26.4668 45.0834 26.4668 43.9621 26.4668 42.825C26.6797 42.825 26.8949 42.825 27.1463 42.825Z" fill="black"/>
<path d="M48.6462 63.2705C48.6734 63.4268 48.5895 63.5015 48.508 63.5582C48.2883 63.7144 48.0686 63.8775 47.8285 64.0021C46.9269 64.4755 46.0027 64.8969 45.0378 65.2253C44.0117 65.5741 43.0014 65.9751 41.9775 66.333C41.4656 66.5119 40.9469 66.6841 40.4169 66.7883C39.9321 66.8834 39.4292 66.8879 38.9332 66.9287C38.8947 66.931 38.8539 66.9174 38.8086 66.8766C38.8516 66.8562 38.8947 66.8336 38.94 66.8154C39.4089 66.6025 39.9117 66.4983 40.4055 66.3602C41.5676 66.0385 42.7273 65.7055 43.878 65.3522C45.3753 64.8923 46.7865 64.2309 48.1546 63.4698C48.2475 63.4177 48.3381 63.3656 48.4355 63.3226C48.4967 63.2999 48.5669 63.2909 48.6462 63.2705Z" fill="black"/>
<path d="M55.5036 58.3981C55.4515 58.2893 55.4968 58.2146 55.5466 58.1353C55.7279 57.8476 55.9249 57.5781 56.1922 57.3584C56.4074 57.1839 56.5999 56.9801 56.8015 56.7853C56.9963 56.595 57.2342 56.4682 57.4811 56.3028C57.4698 56.5542 57.4041 56.7558 57.2614 56.9144C56.908 57.304 56.5433 57.6868 56.1741 58.0628C56.0178 58.2191 55.7437 58.3392 55.5036 58.3981Z" fill="black"/>
<path d="M51.969 62.199C51.6564 62.1967 51.3914 61.9362 51.3868 61.6236C51.38 61.3042 51.6541 61.0279 51.9758 61.0302C52.2997 61.0324 52.5647 61.3042 52.5557 61.6282C52.5466 61.9408 52.2816 62.199 51.969 62.199Z" fill="black"/>
<path d="M58.7868 54.8033C59.0359 54.8033 59.233 54.9936 59.2398 55.2405C59.2466 55.4919 59.0382 55.7071 58.7868 55.7071C58.5353 55.7071 58.3315 55.4942 58.336 55.2405C58.3405 54.9958 58.5353 54.8033 58.7868 54.8033Z" fill="black"/>
<path d="M28.4727 67.1889C28.2552 67.1866 28.0876 67.019 28.0899 66.8015C28.0921 66.5886 28.2665 66.4142 28.4795 66.4165C28.6901 66.4187 28.8645 66.5954 28.8623 66.8083C28.8623 67.0235 28.6901 67.1911 28.4727 67.1889Z" fill="black"/>
<path d="M8.61246 12.4312C8.6034 12.6418 8.41993 12.814 8.21153 12.8049C7.99861 12.7959 7.83325 12.6146 7.84005 12.4017C7.84684 12.1865 8.02352 12.0234 8.24098 12.0302C8.45617 12.0393 8.62153 12.216 8.61246 12.4312Z" fill="black"/>
<path d="M49.4423 62.5023C49.4559 62.3234 49.619 62.1875 49.798 62.2033C49.9701 62.2192 50.097 62.3687 50.0856 62.5431C50.0743 62.7266 49.9203 62.8579 49.7345 62.8398C49.5647 62.824 49.4288 62.6677 49.4423 62.5023Z" fill="black"/>
<path d="M51.6476 6.38559C51.8311 6.38559 51.9738 6.53282 51.967 6.7163C51.9625 6.88845 51.8198 7.02436 51.6476 7.02436C51.4641 7.02436 51.3237 6.87939 51.3282 6.69365C51.3328 6.51923 51.4709 6.38559 51.6476 6.38559Z" fill="black"/>
<path d="M55.8118 10.1478C55.9817 10.1523 56.1244 10.2996 56.1244 10.4672C56.1244 10.6461 55.9727 10.7911 55.7914 10.7866C55.608 10.782 55.4698 10.6325 55.4811 10.4468C55.4924 10.2746 55.6374 10.1433 55.8118 10.1478Z" fill="black"/>
<path d="M39.3135 0.99894C39.3089 1.13485 39.1843 1.2549 39.0484 1.25037C38.9125 1.24584 38.7925 1.12126 38.797 0.98535C38.8015 0.851705 38.9306 0.729387 39.062 0.733917C39.1957 0.738447 39.318 0.865296 39.3135 0.99894Z" fill="black"/>
<path d="M36.2019 0.280975C36.3378 0.280975 36.4601 0.405559 36.4601 0.539203C36.4601 0.675113 36.3378 0.797431 36.1996 0.795166C36.0615 0.795166 35.9414 0.672847 35.9414 0.536938C35.9414 0.403294 36.066 0.27871 36.2019 0.280975Z" fill="black"/>
<path d="M53.78 59.4786C53.925 59.474 54.0451 59.585 54.0473 59.7277C54.0496 59.8682 53.9318 59.986 53.7891 59.986C53.6509 59.986 53.5445 59.884 53.5377 59.7481C53.5286 59.5986 53.6328 59.4831 53.78 59.4786Z" fill="black"/>
<path d="M60.2714 52.6468C60.2759 52.7918 60.1649 52.9096 60.0222 52.9118C59.8818 52.9141 59.7617 52.794 59.7617 52.6536C59.7617 52.5199 59.8659 52.4112 60.0018 52.4022C60.1536 52.3976 60.2668 52.4973 60.2714 52.6468Z" fill="black"/>
<path d="M23.9452 0.996817C24.0879 1.00361 24.1989 1.13046 24.1898 1.26864C24.1785 1.40908 24.0539 1.51554 23.9089 1.50195C23.773 1.49062 23.6734 1.37963 23.6779 1.24372C23.6824 1.10101 23.8025 0.990022 23.9452 0.996817Z" fill="black"/>
<path d="M28.0841 1.18259C27.9413 1.18032 27.8236 1.05801 27.8304 0.919831C27.8372 0.779391 27.9595 0.668398 28.1044 0.677459C28.2404 0.684254 28.3468 0.792982 28.3468 0.928891C28.3468 1.06933 28.229 1.18485 28.0841 1.18259Z" fill="black"/>
<path d="M20.8796 61.6077C20.8818 61.7074 20.8003 61.7935 20.6961 61.798C20.5828 61.8025 20.49 61.7142 20.4922 61.6055C20.4968 61.5058 20.5828 61.4243 20.687 61.4243C20.7912 61.4265 20.8773 61.5081 20.8796 61.6077Z" fill="black"/>
<path d="M30.7492 66.0338C30.8512 66.0338 30.9395 66.1199 30.9418 66.2173C30.944 66.326 30.8444 66.4189 30.7379 66.4121C30.6405 66.4053 30.5544 66.3124 30.5567 66.215C30.5589 66.1176 30.6473 66.0315 30.7492 66.0338Z" fill="black"/>
<path d="M60.9863 50.5879C61.0927 50.5834 61.1765 50.6604 61.1811 50.7623C61.1856 50.8642 61.1086 50.9548 61.0089 50.9639C60.9002 50.973 60.8028 50.8869 60.8028 50.7759C60.8005 50.6717 60.8798 50.5924 60.9863 50.5879Z" fill="black"/>
<path d="M26.5215 2.29903C26.517 2.40097 26.4309 2.48478 26.3313 2.48478C26.2225 2.48251 26.1342 2.38285 26.1455 2.27412C26.1546 2.17445 26.2474 2.0929 26.3471 2.0997C26.4468 2.10423 26.5261 2.1971 26.5215 2.29903Z" fill="black"/>
<path d="M11.9196 8.78645C11.9174 8.88838 11.8358 8.96993 11.7316 8.96993C11.6206 8.96993 11.5346 8.87932 11.5436 8.76606C11.5504 8.66186 11.6342 8.58938 11.7407 8.59617C11.8472 8.6007 11.9219 8.68225 11.9196 8.78645Z" fill="black"/>
<path d="M53.3326 8.59644C53.439 8.59644 53.5183 8.67119 53.5206 8.77538C53.5229 8.87958 53.4481 8.96339 53.3462 8.97019C53.2352 8.97698 53.1423 8.88864 53.1446 8.77765C53.1468 8.67345 53.2261 8.59644 53.3326 8.59644Z" fill="black"/>
<path d="M54.8305 8.92474C54.8871 9.01308 54.9438 9.06292 54.9438 9.11275C54.9438 9.15126 54.8803 9.21695 54.835 9.22601C54.7626 9.24187 54.6969 9.18297 54.7059 9.11049C54.7127 9.05839 54.7693 9.01082 54.8305 8.92474Z" fill="black"/>
<path d="M56.5306 11.8513C56.5782 11.9442 56.6303 11.9963 56.6258 12.0461C56.6235 12.0824 56.551 12.1367 56.5057 12.1413C56.4242 12.1503 56.3811 12.0846 56.4015 12.0099C56.4128 11.9623 56.4649 11.9283 56.5306 11.8513Z" fill="black"/>
<path d="M2.3753 42.6326C2.35491 42.5647 2.33679 42.4945 2.31641 42.4265C2.32773 42.4242 2.33679 42.4197 2.34812 42.4174C2.3685 42.4854 2.38889 42.5534 2.40928 42.6236C2.39569 42.6258 2.38663 42.6281 2.3753 42.6326Z" fill="black"/>
</svg>
