<svg width="249" height="276" viewBox="0 0 249 276" fill="none" xmlns="http://www.w3.org/2000/svg">
<path d="M73.8193 41.3817L63.5391 199.35L190.723 207.657L201.003 49.6883L73.8193 41.3817Z" fill="#C79947"/>
<g filter="url(#filter0_d)">
<path d="M178.679 40.0002L52.082 54.76L70.3487 212L196.946 197.24L178.679 40.0002Z" fill="white"/>
</g>
<circle opacity="0.4" cx="75.6698" cy="71.7209" r="4.01933" transform="rotate(-6.98662 75.6698 71.7209)" fill="#999999"/>
<path opacity="0.4" d="M71.576 83.0244L82.3787 81.7005C82.0131 78.7175 79.2985 76.5956 76.3154 76.9611C73.3323 77.3267 71.2104 80.0413 71.576 83.0244Z" fill="#999999"/>
<path d="M168.483 56.7573L94.4727 65.3861L94.7327 67.6242L168.743 58.9953L168.483 56.7573Z" fill="#C4C4C4"/>
<path d="M169.265 63.4001L95.2539 72.0289L95.5139 74.267L169.525 65.6382L169.265 63.4001Z" fill="#C4C4C4"/>
<path d="M134.781 73.8866L96 78.4081L96.26 80.6462L135.041 76.1247L134.781 73.8866Z" fill="#C4C4C4"/>
<circle opacity="0.4" cx="79.0487" cy="99.2051" r="4.01933" transform="rotate(-6.98662 79.0487 99.2051)" fill="#999999"/>
<path opacity="0.4" d="M74.9549 110.508L85.7576 109.185C85.392 106.202 82.6774 104.08 79.6943 104.445C76.7112 104.811 74.5893 107.525 74.9549 110.508Z" fill="#999999"/>
<path d="M171.659 83.9972L97.6484 92.6261L97.9084 94.8642L171.919 86.2353L171.659 83.9972Z" fill="#C4C4C4"/>
<path d="M172.436 90.6112L98.4258 99.2401L98.6858 101.478L172.696 92.8493L172.436 90.6112Z" fill="#C4C4C4"/>
<path d="M137.953 101.097L99.1719 105.619L99.4319 107.857L138.213 103.336L137.953 101.097Z" fill="#C4C4C4"/>
<circle opacity="0.4" cx="81.9901" cy="126.049" r="4.01933" transform="rotate(-6.98664 81.9901 126.049)" fill="#999999"/>
<path opacity="0.4" d="M77.8963 137.352L88.699 136.029C88.3334 133.045 85.6188 130.924 82.6357 131.289C79.6526 131.655 77.5307 134.369 77.8963 137.352Z" fill="#999999"/>
<path d="M174.827 111.208L100.816 119.837L101.076 122.075L175.087 113.446L174.827 111.208Z" fill="#C4C4C4"/>
<path d="M175.577 117.826L101.566 126.455L101.826 128.693L175.837 120.064L175.577 117.826Z" fill="#C4C4C4"/>
<path d="M141.094 128.312L102.312 132.834L102.572 135.072L141.354 130.55L141.094 128.312Z" fill="#C4C4C4"/>
<circle opacity="0.4" cx="85.1346" cy="153.567" r="4.01933" transform="rotate(-6.98662 85.1346 153.567)" fill="#999999"/>
<path opacity="0.4" d="M81.0408 164.87L91.8435 163.547C91.478 160.564 88.7634 158.442 85.7803 158.807C82.7972 159.173 80.6753 161.887 81.0408 164.87Z" fill="#999999"/>
<path d="M177.968 138.422L103.957 147.051L104.217 149.289L178.228 140.66L177.968 138.422Z" fill="#C4C4C4"/>
<path d="M178.757 145.022L104.746 153.658L105.006 155.896L179.017 147.26L178.757 145.022Z" fill="#C4C4C4"/>
<path d="M144.262 155.523L105.48 160.044L105.74 162.282L144.522 157.761L144.262 155.523Z" fill="#C4C4C4"/>
<path d="M85.587 63.4571L64.5352 65.9115L66.9852 87.0012L88.037 84.5468L85.587 63.4571Z" stroke="#EBEBEB" stroke-width="3" stroke-miterlimit="10"/>
<path d="M88.7588 90.6682L67.707 93.1226L70.1571 114.212L91.2089 111.758L88.7588 90.6682Z" stroke="#EBEBEB" stroke-width="3" stroke-miterlimit="10"/>
<path d="M91.9385 117.902L70.8867 120.358L73.3389 141.448L94.3907 138.992L91.9385 117.902Z" stroke="#EBEBEB" stroke-width="3" stroke-miterlimit="10"/>
<path d="M95.0753 145.121L74.0234 147.575L76.4734 168.665L97.5253 166.211L95.0753 145.121Z" stroke="#EBEBEB" stroke-width="3" stroke-miterlimit="10"/>
<path d="M98.2549 172.327L77.2031 174.784L79.6553 195.873L100.707 193.417L98.2549 172.327Z" stroke="#EBEBEB" stroke-width="3" stroke-miterlimit="10"/>
<circle opacity="0.4" cx="88.3065" cy="180.472" r="4.01933" transform="rotate(-6.98662 88.3065 180.472)" fill="#999999"/>
<path opacity="0.4" d="M84.2127 191.776L95.0154 190.452C94.6499 187.469 91.9352 185.347 88.9521 185.712C85.969 186.078 83.8471 188.793 84.2127 191.776Z" fill="#999999"/>
<path d="M181.151 165.619L107.141 174.255L107.401 176.493L181.412 167.857L181.151 165.619Z" fill="#C4C4C4"/>
<path d="M181.913 172.247L107.902 180.876L108.162 183.114L182.173 174.485L181.913 172.247Z" fill="#C4C4C4"/>
<path d="M147.445 182.724L108.664 187.249L108.924 189.487L147.705 184.962L147.445 182.724Z" fill="#C4C4C4"/>
<path d="M69.7578 73.8831L74.1696 79.805L88.8747 64.8123" stroke="#67AC5B" stroke-width="4" stroke-miterlimit="10"/>
<path d="M72.9297 101.095L77.3415 107.016L91.952 93.0846" stroke="#67AC5B" stroke-width="4" stroke-miterlimit="10"/>
<path d="M79.2461 155.518L83.6867 161.44L98.5354 146.394" stroke="#67AC5B" stroke-width="4" stroke-miterlimit="10"/>
<path d="M82.707 183.002L87.1476 188.924L101.996 173.879" stroke="#67AC5B" stroke-width="4" stroke-miterlimit="10"/>
<path d="M76.582 128.751L81.0226 134.673L95.8713 119.627" stroke="#67AC5B" stroke-width="4" stroke-miterlimit="10"/>
<defs>
<filter id="filter0_d" x="0.0820312" y="0.00012207" width="248.864" height="276" filterUnits="userSpaceOnUse" color-interpolation-filters="sRGB">
<feFlood flood-opacity="0" result="BackgroundImageFix"/>
<feColorMatrix in="SourceAlpha" type="matrix" values="0 0 0 0 0 0 0 0 0 0 0 0 0 0 0 0 0 0 127 0"/>
<feOffset dy="12"/>
<feGaussianBlur stdDeviation="26"/>
<feColorMatrix type="matrix" values="0 0 0 0 0 0 0 0 0 0 0 0 0 0 0 0 0 0 0.1 0"/>
<feBlend mode="normal" in2="BackgroundImageFix" result="effect1_dropShadow"/>
<feBlend mode="normal" in="SourceGraphic" in2="effect1_dropShadow" result="shape"/>
</filter>
</defs>
</svg>
