<svg width="95" height="118" viewBox="0 0 95 118" fill="none" xmlns="http://www.w3.org/2000/svg">
<path d="M76.2994 117.464C95.8961 116.374 94.8733 91.8524 94.8733 88.8341V85.1786C94.8733 85.1786 93.6436 39.8589 79.0103 39.8589V39.8645C78.1607 39.8421 77.2049 39.9763 76.1261 40.3284L74.5946 40.8259C74.5946 40.8259 73.5437 41.1668 72.3699 41.9885C70.8552 40.3731 68.3567 38.9702 64.5335 40.211L63.0019 40.7085C63.0019 40.7085 61.7946 41.0998 60.5202 42.0612C59.0166 40.4123 56.5013 38.9534 52.6166 40.211L51.0851 40.7085C51.0851 40.7085 49.8722 41.0998 48.6034 42.0612C47.0998 40.4123 44.5789 38.9534 40.6998 40.211L39.1683 40.7085C39.1683 40.7085 37.5473 41.2339 36.0885 42.553L22.3942 4.90775C22.3942 4.90775 19.8957 -1.95057 13.0374 0.547935L10.606 1.39195C10.606 1.39195 3.74764 3.89046 6.24614 10.7488L30.8399 78.1302C30.7393 78.1749 11.5338 68.5219 11.5338 68.5219C11.5338 68.5219 4.92702 65.157 1.56214 71.7638L0.857864 73.15C0.857864 73.15 -1.60152 77.9737 1.80808 81.4727L1.71306 81.4336C1.71306 81.4336 1.81926 81.5174 2.01489 81.6739C2.35026 81.9925 2.74153 82.3 3.1831 82.5906C6.15671 84.9047 13.261 90.3544 21.3098 95.8042C21.3098 95.8042 47.8991 117.698 63.2702 118L76.2994 117.464Z" fill="#BE8B6F"/>
</svg>
