<svg width="176" height="166" viewBox="0 0 176 166" fill="none" xmlns="http://www.w3.org/2000/svg">
<rect x="1.43624" y="15.5655" width="143" height="47" transform="rotate(-6 1.43624 15.5655)" stroke="#C79947"/>
<rect x="3" y="7.46277" width="144" height="48" fill="#C79947"/>
<path d="M48.5001 28.6947C48.2441 27.4627 47.2201 25.8787 44.6601 25.8787C42.5641 25.8787 40.9161 27.4787 40.9161 29.2547C40.9161 30.9507 42.0681 32.0067 43.6841 32.3587L45.3001 32.7107C46.4361 32.9507 46.9961 33.6547 46.9961 34.4707C46.9961 35.4627 46.2281 36.2787 44.6601 36.2787C42.9481 36.2787 42.0521 35.1107 41.9401 33.8467L40.4361 34.3267C40.6441 35.9427 41.9401 37.7027 44.6761 37.7027C47.0921 37.7027 48.5961 36.1027 48.5961 34.3427C48.5961 32.7587 47.5401 31.5747 45.6521 31.1587L43.9561 30.7907C42.9961 30.5827 42.5001 29.9587 42.5001 29.1427C42.5001 28.0867 43.4121 27.2547 44.6921 27.2547C46.2761 27.2547 46.9641 28.3747 47.0921 29.1907L48.5001 28.6947ZM55.2583 36.5347C55.2583 36.8547 55.2903 37.2867 55.3223 37.4627H56.7623C56.7303 37.1907 56.6823 36.6467 56.6823 36.0387V29.7667H55.1783V34.4067C55.1783 35.5747 54.5703 36.3747 53.3543 36.3747C52.0903 36.3747 51.6103 35.4467 51.6103 34.3907V29.7667H50.1063V34.6147C50.1063 36.3587 51.1943 37.7027 52.9863 37.7027C53.8823 37.7027 54.8423 37.3347 55.2583 36.5347ZM60.7368 37.4627V36.3427C61.2168 37.1747 62.0968 37.6707 63.2328 37.6707C65.5208 37.6707 66.8168 35.8627 66.8168 33.5747C66.8168 31.3347 65.6168 29.5427 63.2808 29.5427C62.0008 29.5427 61.1048 30.1667 60.7368 30.8547V25.8787H59.2488V37.4627H60.7368ZM65.2808 33.5747C65.2808 35.2387 64.3848 36.3267 63.0088 36.3267C61.6808 36.3267 60.7208 35.2387 60.7208 33.5747C60.7208 31.9107 61.6808 30.8707 63.0088 30.8707C64.4008 30.8707 65.2808 31.9107 65.2808 33.5747ZM68.0131 35.4627C68.1411 36.3427 69.0371 37.7027 71.1491 37.7027C73.0531 37.7027 73.9651 36.4067 73.9651 35.3187C73.9651 34.1827 73.2291 33.3347 71.8371 33.0307L70.5891 32.7587C69.9971 32.6307 69.7091 32.2947 69.7091 31.8307C69.7091 31.3027 70.2211 30.8067 70.9891 30.8067C72.2051 30.8067 72.5251 31.6867 72.5891 32.0867L73.9171 31.5907C73.7571 30.9027 73.1011 29.5267 70.9891 29.5267C69.4851 29.5267 68.2531 30.6467 68.2531 31.9587C68.2531 33.0467 68.9731 33.8627 70.1731 34.1187L71.4851 34.4067C72.1251 34.5507 72.4771 34.9187 72.4771 35.3987C72.4771 35.9427 72.0131 36.4227 71.1651 36.4227C70.0771 36.4227 69.4691 35.7827 69.3731 34.9827L68.0131 35.4627ZM79.1214 30.9187C80.4334 30.9187 80.9934 31.7987 81.1854 32.5507L82.5454 31.9747C82.2254 30.8067 81.1694 29.5267 79.1214 29.5267C76.9294 29.5267 75.2494 31.2067 75.2494 33.6067C75.2494 35.9427 76.8974 37.7027 79.1374 37.7027C81.1374 37.7027 82.2414 36.4067 82.6094 35.3027L81.2814 34.7267C81.1054 35.3347 80.5774 36.3107 79.1374 36.3107C77.8894 36.3107 76.7854 35.3667 76.7854 33.6067C76.7854 31.8147 77.9054 30.9187 79.1214 30.9187ZM88.6458 29.6867C88.5658 29.6707 88.3578 29.6387 88.1498 29.6387C87.3658 29.6387 86.4058 29.9267 85.8458 31.1107V29.7667H84.3738V37.4627H85.8778V33.6067C85.8778 31.9107 86.7258 31.2387 87.9898 31.2387C88.1978 31.2387 88.4218 31.2547 88.6458 31.2867V29.6867ZM91.7368 37.4627V29.7667H90.2488V37.4627H91.7368ZM89.9128 26.8547C89.9128 27.4467 90.3928 27.9267 90.9848 27.9267C91.5928 27.9267 92.0728 27.4467 92.0728 26.8547C92.0728 26.2467 91.5928 25.7667 90.9848 25.7667C90.3928 25.7667 89.9128 26.2467 89.9128 26.8547ZM95.7836 37.4627V36.3427C96.2636 37.1747 97.1436 37.6707 98.2796 37.6707C100.568 37.6707 101.864 35.8627 101.864 33.5747C101.864 31.3347 100.664 29.5427 98.3276 29.5427C97.0476 29.5427 96.1516 30.1667 95.7836 30.8547V25.8787H94.2956V37.4627H95.7836ZM100.328 33.5747C100.328 35.2387 99.4316 36.3267 98.0556 36.3267C96.7276 36.3267 95.7676 35.2387 95.7676 33.5747C95.7676 31.9107 96.7276 30.8707 98.0556 30.8707C99.4476 30.8707 100.328 31.9107 100.328 33.5747ZM104.756 32.8227C104.82 31.8307 105.588 30.8547 106.852 30.8547C108.212 30.8547 108.932 31.7187 108.964 32.8227H104.756ZM109.188 34.8227C108.9 35.6867 108.276 36.3747 107.028 36.3747C105.732 36.3747 104.74 35.4147 104.708 34.0387H110.5C110.516 33.9427 110.532 33.7507 110.532 33.5587C110.532 31.1587 109.204 29.5267 106.836 29.5267C104.9 29.5267 103.156 31.1747 103.156 33.5907C103.156 36.1987 104.964 37.7027 107.028 37.7027C108.82 37.7027 110.052 36.6307 110.484 35.2707L109.188 34.8227Z" fill="white"/>
<g filter="url(#filter0_d)">
<path d="M137.299 141.464C156.896 140.374 155.873 115.852 155.873 112.834V109.179C155.873 109.179 154.644 63.8589 140.01 63.8589V63.8645C139.161 63.8421 138.205 63.9763 137.126 64.3284L135.595 64.8259C135.595 64.8259 134.544 65.1668 133.37 65.9885C131.855 64.3731 129.357 62.9702 125.533 64.211L124.002 64.7085C124.002 64.7085 122.795 65.0998 121.52 66.0612C120.017 64.4123 117.501 62.9534 113.617 64.211L112.085 64.7085C112.085 64.7085 110.872 65.0998 109.603 66.0612C108.1 64.4123 105.579 62.9534 101.7 64.211L100.168 64.7085C100.168 64.7085 98.5473 65.2339 97.0885 66.553L83.3942 28.9077C83.3942 28.9077 80.8957 22.0494 74.0374 24.5479L71.606 25.3919C71.606 25.3919 64.7476 27.8905 67.2461 34.7488L91.8399 102.13C91.7393 102.175 72.5338 92.5219 72.5338 92.5219C72.5338 92.5219 65.927 89.157 62.5621 95.7638L61.8579 97.15C61.8579 97.15 59.3985 101.974 62.8081 105.473L62.7131 105.434C62.7131 105.434 62.8193 105.517 63.0149 105.674C63.3503 105.993 63.7415 106.3 64.1831 106.591C67.1567 108.905 74.261 114.354 82.3098 119.804C82.3098 119.804 108.899 141.698 124.27 142L137.299 141.464Z" fill="#BE8B6F"/>
<path d="M149.834 91.9061C151.229 100.898 152.16 119.348 149.834 125.394C148.439 129.115 147.044 131.44 146.113 132.836" stroke="#B58469" stroke-width="3" stroke-linecap="round" stroke-linejoin="bevel"/>
<path d="M83.7891 42.1394L94.0215 70.046" stroke="#B58469" stroke-width="3" stroke-linecap="round" stroke-linejoin="bevel"/>
<path d="M73.1755 26.4037C73.1755 26.4037 67.3456 28.5277 69.4696 34.3576L70.1795 36.3083C70.1795 36.3083 72.3035 42.1381 78.1334 40.0141L78.3402 39.9415C78.3402 39.9415 84.17 37.8175 82.0516 31.9876L81.3362 30.0369C81.3362 30.0369 79.2121 24.207 73.3823 26.331L73.1755 26.4037Z" fill="#CEA58B"/>
<path d="M63.5455 96.9544C63.5455 96.9544 60.6949 101.89 65.6304 104.741L68.4978 106.395C68.4978 106.395 73.4334 109.246 76.284 104.31L76.3902 104.131C76.3902 104.131 79.2408 99.1958 74.3053 96.3451L71.4379 94.6906C71.4379 94.6906 66.5024 91.84 63.6517 96.7755L63.5455 96.9544Z" fill="#CEA58B"/>
</g>
<defs>
<filter id="filter0_d" x="41" y="8.00012" width="134.882" height="158" filterUnits="userSpaceOnUse" color-interpolation-filters="sRGB">
<feFlood flood-opacity="0" result="BackgroundImageFix"/>
<feColorMatrix in="SourceAlpha" type="matrix" values="0 0 0 0 0 0 0 0 0 0 0 0 0 0 0 0 0 0 127 0"/>
<feOffset dy="4"/>
<feGaussianBlur stdDeviation="10"/>
<feColorMatrix type="matrix" values="0 0 0 0 0 0 0 0 0 0 0 0 0 0 0 0 0 0 0.25 0"/>
<feBlend mode="normal" in2="BackgroundImageFix" result="effect1_dropShadow"/>
<feBlend mode="normal" in="SourceGraphic" in2="effect1_dropShadow" result="shape"/>
</filter>
</defs>
</svg>
