<svg width="20" height="16" viewBox="0 0 20 16" fill="none" xmlns="http://www.w3.org/2000/svg">
<path d="M19.7362 1.97322C19.0388 2.29023 18.2906 2.50523 17.5044 2.60121C18.3071 2.10805 18.9216 1.32583 19.2128 0.39661C18.4599 0.85331 17.6287 1.18493 16.7431 1.3647C16.0339 0.588545 15.0251 0.105103 13.9063 0.105103C11.7597 0.105103 10.0193 1.89064 10.0193 4.09159C10.0193 4.40374 10.0536 4.70862 10.1199 5.00016C6.89005 4.83373 4.02602 3.24619 2.10917 0.833871C1.7741 1.42178 1.58348 2.10681 1.58348 2.83806C1.58348 4.22156 2.27019 5.44228 3.3121 6.15647C2.67511 6.13462 2.07601 5.95485 1.55153 5.65604V5.70584C1.55153 7.63713 2.89179 9.24897 4.66893 9.61581C4.34333 9.7057 3.99999 9.7555 3.64479 9.7555C3.3938 9.7555 3.15108 9.73 2.91309 9.6814C3.40798 11.2665 4.84298 12.4192 6.54318 12.4508C5.21356 13.5197 3.53705 14.155 1.71611 14.155C1.40237 14.155 1.09333 14.1355 0.789062 14.1003C2.50938 15.2336 4.55174 15.8944 6.74683 15.8944C13.8968 15.8944 17.8052 9.81868 17.8052 4.54953L17.7921 4.03331C18.5558 3.47453 19.2164 2.77247 19.7362 1.97322Z" fill="#C4C4C4"/>
</svg>
