<svg width="20" height="17" viewBox="0 0 20 17" fill="none" xmlns="http://www.w3.org/2000/svg">
<path d="M20 1.97193C19.2639 2.30656 18.4741 2.5335 17.6442 2.63481C18.4915 2.11425 19.1402 1.28856 19.4476 0.307706C18.6527 0.789784 17.7754 1.13983 16.8406 1.32959C16.092 0.510307 15.0271 0 13.8461 0C11.5803 0 9.74312 1.88476 9.74312 4.20801C9.74312 4.53751 9.77936 4.85933 9.84936 5.16707C6.44001 4.99139 3.41684 3.31564 1.39347 0.769266C1.03977 1.38984 0.838563 2.11294 0.838563 2.88482C0.838563 4.3452 1.56343 5.63376 2.66324 6.38764C1.99085 6.36457 1.35847 6.17481 0.804838 5.8594V5.91196C0.804838 7.95058 2.21958 9.65198 4.09546 10.0392C3.75177 10.1341 3.38935 10.1867 3.01442 10.1867C2.74948 10.1867 2.49327 10.1597 2.24206 10.1084C2.76445 11.7817 4.27919 12.9984 6.07387 13.0318C4.67037 14.1601 2.90069 14.8306 0.978564 14.8306C0.647387 14.8306 0.321177 14.8101 0 14.7729C1.81592 15.9692 3.97177 16.6667 6.28883 16.6667C13.8362 16.6667 17.9617 10.2533 17.9617 4.6914L17.9479 4.14649C18.754 3.55666 19.4513 2.81559 20 1.97193Z" fill="#00ACED"/>
</svg>
