<svg width="24" height="20" viewBox="0 0 24 20" fill="none" xmlns="http://www.w3.org/2000/svg">
<path d="M23.6821 3.03105C22.8453 3.41147 21.9474 3.66946 21.004 3.78464C21.9673 3.19285 22.7047 2.25418 23.0541 1.13912C22.1505 1.68716 21.1531 2.0851 20.0904 2.30083C19.2394 1.36944 18.0289 0.789307 16.6862 0.789307C14.1104 0.789307 12.0218 2.93196 12.0218 5.5731C12.0218 5.94768 12.063 6.31354 12.1426 6.66339C8.26675 6.46367 4.82992 4.55862 2.52969 1.66383C2.1276 2.36932 1.89886 3.19136 1.89886 4.06886C1.89886 5.72906 2.72291 7.19393 3.97321 8.05096C3.20882 8.02474 2.4899 7.80902 1.86052 7.45044V7.5102C1.86052 9.82776 3.46884 11.762 5.6014 12.2022C5.21068 12.31 4.79867 12.3698 4.37243 12.3698C4.07125 12.3698 3.77998 12.3392 3.4944 12.2809C4.08826 14.183 5.81027 15.5663 7.85051 15.6042C6.25497 16.8869 4.24315 17.6492 2.05802 17.6492C1.68152 17.6492 1.31068 17.6259 0.945557 17.5836C3.00995 18.9435 5.46078 19.7365 8.09489 19.7365C16.6749 19.7365 21.3649 12.4456 21.3649 6.12263L21.3493 5.50316C22.2656 4.83262 23.0584 3.99015 23.6821 3.03105Z" fill="white"/>
</svg>
