<svg width="24" height="16" viewBox="0 0 24 16" fill="none" xmlns="http://www.w3.org/2000/svg">
<path d="M24 0H0V15.9996H24V0Z" fill="#F0F0F0"/>
<path d="M5.34487 7.99985L0 2.65259V13.348L5.34487 7.99985Z" fill="black"/>
<path d="M7.55587 7.99983L0 0.438904V2.65262L5.34487 7.99988L0 13.3481V15.5577L7.55587 7.99983Z" fill="#FFDA44"/>
<path d="M23.8984 9.56502C23.9011 9.5444 23.9361 9.52386 24 9.50324V7.99982V6.43462H23.8984H10.4345L3.99984 0H0V0.43889L7.55587 7.99982L0 15.5577V15.9996H3.99984L10.4345 9.56502H23.8984V9.56502Z" fill="#6DA544"/>
<path d="M23.5866 11.1303H11.0828L6.21338 15.9997H24V11.1303H23.5866Z" fill="#0052B4"/>
<path d="M23.5866 4.86937H24V0H6.21338L11.0828 4.86937H23.5866Z" fill="#D80027"/>
</svg>
